<svg width="44" height="44" viewBox="0 0 44 44" fill="none" xmlns="http://www.w3.org/2000/svg">
<g clip-path="url(#clip0_573_17392)">
<mask id="mask0_573_17392" style="mask-type:luminance" maskUnits="userSpaceOnUse" x="0" y="0" width="44" height="44">
<path d="M44 0H0V44H44V0Z" fill="white"/>
</mask>
<g mask="url(#mask0_573_17392)">
<path d="M44 13.8164V20.225C44 33.3546 34.1506 44.0004 22 44.0004C9.8494 44.0004 0 33.3546 0 20.225V13.8164L22.9636 37.5632L44 13.8164Z" fill="url(#paint0_linear_573_17392)"/>
<path d="M0.9636 13.7871C0.6864 13.7871 0.4114 13.7871 0.1386 13.8091C0.0467916 14.6169 0.000518481 15.4293 0 16.2423C0 28.3423 9.8494 38.1587 22 38.1587C22.2772 38.1587 22.55 38.1587 22.825 38.1389C22.9156 37.3311 22.9621 36.5186 22.9636 35.7057C22.9636 23.6013 13.1142 13.7871 0.9636 13.7871Z" fill="url(#paint1_linear_573_17392)"/>
<path d="M43.8636 13.8157C32.2234 14.3877 22.9636 23.9687 22.9636 35.7057C22.9636 23.6057 13.1142 13.7871 0.9636 13.7871C0.6864 13.7871 0.4114 13.7871 0.1386 13.8091C0.0467916 14.6169 0.000518481 15.4293 0 16.2423C0 28.3423 9.8494 38.1587 22 38.1587C22.2772 38.1587 22.55 38.1587 22.825 38.1389C22.9174 38.1389 23.0098 38.1389 23.1 38.1389C34.7402 37.5669 44 27.9859 44 16.2489C43.9993 15.436 43.9538 14.6237 43.8636 13.8157Z" fill="url(#paint2_linear_573_17392)"/>
<path d="M22.0001 15.84C26.3741 15.84 29.9201 12.2941 29.9201 7.92C29.9201 3.54589 26.3741 0 22.0001 0C17.626 0 14.0801 3.54589 14.0801 7.92C14.0801 12.2941 17.626 15.84 22.0001 15.84Z" fill="#6F4A9E"/>
</g>
</g>
<defs>
<linearGradient id="paint0_linear_573_17392" x1="22" y1="46.0728" x2="22" y2="31.6078" gradientUnits="userSpaceOnUse">
<stop stop-color="#FF8A11"/>
<stop offset="1" stop-color="#E81894"/>
</linearGradient>
<linearGradient id="paint1_linear_573_17392" x1="25.2362" y1="42.0835" x2="7.227" y2="20.9921" gradientUnits="userSpaceOnUse">
<stop stop-color="#B03B83"/>
<stop offset="1" stop-color="#6F4A9E"/>
</linearGradient>
<linearGradient id="paint2_linear_573_17392" x1="22" y1="33.7829" x2="22" y2="17.8967" gradientUnits="userSpaceOnUse">
<stop stop-color="#FF8A11"/>
<stop offset="1" stop-color="#E81894"/>
</linearGradient>
<clipPath id="clip0_573_17392">
<rect width="44" height="44" fill="white"/>
</clipPath>
</defs>
</svg>
