<svg width="140" height="100" fill="none" xmlns="http://www.w3.org/2000/svg"><path d="M0 1.556C0 .696.696 0 1.556 0h136.888c.86 0 1.556.696 1.556 1.556V100H0V1.556Z" fill="url(#a)"/><g filter="url(#b)"><mask id="f" fill="#fff"><path d="M0 1.556C0 .696.696 0 1.556 0H21.68v100H0V1.556Z"/></mask><path d="M0 1.556C0 .696.696 0 1.556 0H21.68v100H0V1.556Z" fill="url(#c)"/><path d="M0 1.556C0 .696.696 0 1.556 0H21.68v100H0V1.556Z" fill="url(#d)" fill-opacity=".2"/><path d="M0 0h21.68H0Zm21.68 100H0h21.68ZM0 100V0v100ZM21.778 0v100h-.195V0h.195Z" fill="url(#e)" mask="url(#f)"/></g><g filter="url(#g)"><rect x="25.181" y="2.344" width="110.639" height="54.883" rx=".583" fill="url(#h)"/><rect x="25.181" y="2.344" width="110.639" height="54.883" rx=".583" fill="url(#i)" fill-opacity=".2"/><rect x="25.229" y="2.392" width="110.542" height="54.786" rx=".535" stroke="url(#j)" stroke-width=".097"/></g><g filter="url(#k)"><rect x="25.181" y="59.57" width="110.639" height="38.672" rx=".583" fill="url(#l)"/><rect x="25.181" y="59.57" width="110.639" height="38.672" rx=".583" fill="url(#m)" fill-opacity=".2"/><rect x="25.229" y="59.619" width="110.542" height="38.575" rx=".535" stroke="url(#n)" stroke-width=".097"/></g><rect x="1.216" y="1.22" width="2.819" height="2.832" rx=".535" fill="#181F29" stroke="url(#o)" stroke-width=".097"/><rect x="1.216" y="4.736" width="19.25" height="2.637" rx=".535" fill="#181F29" stroke="url(#p)" stroke-width=".097"/><rect x="26.396" y="3.564" width="5.347" height="1.075" rx=".146" fill="#181F29" stroke="url(#q)" stroke-width=".097"/><rect x="26.396" y="5.127" width="23.333" height="5.86" rx=".535" fill="#181F29" stroke="url(#r)" stroke-width=".097"/><rect x="120.604" y="7.08" width="14" height="4.102" rx=".535" fill="#181F29" stroke="url(#s)" stroke-width=".097"/><rect x="105.924" y="7.08" width="14" height="4.102" rx=".535" fill="#181F29" stroke="url(#t)" stroke-width=".097"/><rect x="26.396" y="12.646" width="2.819" height="1.075" rx=".146" fill="#181F29" stroke="url(#u)" stroke-width=".097"/><rect x="26.396" y="20.634" width="2.819" height="1.075" rx=".146" fill="#181F29" stroke="url(#v)" stroke-width=".097"/><rect x="26.396" y="28.623" width="2.819" height="1.075" rx=".146" fill="#181F29" stroke="url(#w)" stroke-width=".097"/><rect x="26.396" y="36.611" width="2.819" height="1.075" rx=".146" fill="#181F29" stroke="url(#x)" stroke-width=".097"/><rect x="26.396" y="44.6" width="2.819" height="1.075" rx=".146" fill="#181F29" stroke="url(#y)" stroke-width=".097"/><rect x="26.396" y="52.588" width="2.819" height="1.075" rx=".146" fill="#181F29" stroke="url(#z)" stroke-width=".097"/><rect x="26.396" y="63.721" width="6.708" height="1.075" rx=".146" fill="#181F29" stroke="url(#A)" stroke-width=".097"/><rect x="26.396" y="60.791" width="14.486" height="1.27" rx=".146" fill="#181F29" stroke="url(#B)" stroke-width=".097"/><rect x="26.396" y="66.064" width="9.042" height="3.125" rx=".146" fill="#181F29" stroke="url(#C)" stroke-width=".097"/><rect x="26.396" y="71.631" width="9.042" height="3.125" rx=".146" fill="#181F29" stroke="url(#D)" stroke-width=".097"/><rect x="26.396" y="77.197" width="9.042" height="3.125" rx=".146" fill="#181F29" stroke="url(#E)" stroke-width=".097"/><rect x="26.396" y="82.763" width="9.042" height="3.125" rx=".146" fill="#181F29" stroke="url(#F)" stroke-width=".097"/><rect x="26.396" y="88.33" width="9.042" height="3.125" rx=".146" fill="#181F29" stroke="url(#G)" stroke-width=".097"/><rect x="26.396" y="93.896" width="9.042" height="3.125" rx=".146" fill="#181F29" stroke="url(#H)" stroke-width=".097"/><rect x="51.868" y="66.064" width="9.042" height="3.125" rx=".146" fill="#181F29" stroke="url(#I)" stroke-width=".097"/><rect x="51.868" y="71.631" width="9.042" height="3.125" rx=".146" fill="#181F29" stroke="url(#J)" stroke-width=".097"/><rect x="51.868" y="77.197" width="9.042" height="3.125" rx=".146" fill="#181F29" stroke="url(#K)" stroke-width=".097"/><rect x="51.868" y="82.763" width="9.042" height="3.125" rx=".146" fill="#181F29" stroke="url(#L)" stroke-width=".097"/><rect x="51.868" y="88.33" width="9.042" height="3.125" rx=".146" fill="#181F29" stroke="url(#M)" stroke-width=".097"/><rect x="51.868" y="93.896" width="9.042" height="3.125" rx=".146" fill="#181F29" stroke="url(#N)" stroke-width=".097"/><rect x="77.243" y="66.064" width="13.125" height="3.125" rx=".146" fill="#181F29" stroke="url(#O)" stroke-width=".097"/><rect x="77.243" y="71.631" width="13.125" height="3.125" rx=".146" fill="#181F29" stroke="url(#P)" stroke-width=".097"/><rect x="77.243" y="77.197" width="13.125" height="3.125" rx=".146" fill="#181F29" stroke="url(#Q)" stroke-width=".097"/><rect x="77.243" y="82.763" width="13.125" height="3.125" rx=".146" fill="#181F29" stroke="url(#R)" stroke-width=".097"/><rect x="77.243" y="88.33" width="13.125" height="3.125" rx=".146" fill="#181F29" stroke="url(#S)" stroke-width=".097"/><rect x="77.243" y="93.896" width="13.125" height="3.125" rx=".146" fill="#181F29" stroke="url(#T)" stroke-width=".097"/><rect x="102.618" y="66.064" width="13.125" height="3.125" rx=".146" fill="#181F29" stroke="url(#U)" stroke-width=".097"/><rect x="102.618" y="71.631" width="13.125" height="3.125" rx=".146" fill="#181F29" stroke="url(#V)" stroke-width=".097"/><rect x="102.618" y="77.197" width="13.125" height="3.125" rx=".146" fill="#181F29" stroke="url(#W)" stroke-width=".097"/><rect x="102.618" y="82.763" width="13.125" height="3.125" rx=".146" fill="#181F29" stroke="url(#X)" stroke-width=".097"/><rect x="102.618" y="88.33" width="13.125" height="3.125" rx=".146" fill="#181F29" stroke="url(#Y)" stroke-width=".097"/><rect x="102.618" y="93.896" width="13.125" height="3.125" rx=".146" fill="#181F29" stroke="url(#Z)" stroke-width=".097"/><rect x="121.479" y="66.064" width="13.125" height="3.125" rx=".146" fill="#181F29" stroke="url(#aa)" stroke-width=".097"/><rect x="121.479" y="71.631" width="13.125" height="3.125" rx=".146" fill="#181F29" stroke="url(#ab)" stroke-width=".097"/><rect x="121.479" y="77.197" width="13.125" height="3.125" rx=".146" fill="#181F29" stroke="url(#ac)" stroke-width=".097"/><rect x="121.479" y="82.763" width="13.125" height="3.125" rx=".146" fill="#181F29" stroke="url(#ad)" stroke-width=".097"/><rect x="121.479" y="88.33" width="13.125" height="3.125" rx=".146" fill="#181F29" stroke="url(#ae)" stroke-width=".097"/><rect x="121.479" y="93.896" width="13.125" height="3.125" rx=".146" fill="#181F29" stroke="url(#af)" stroke-width=".097"/><rect x="51.868" y="63.721" width="6.708" height="1.075" rx=".146" fill="#181F29" stroke="url(#ag)" stroke-width=".097"/><rect x="77.243" y="63.721" width="6.708" height="1.075" rx=".146" fill="#181F29" stroke="url(#ah)" stroke-width=".097"/><rect x="102.618" y="63.721" width="6.708" height="1.075" rx=".146" fill="#181F29" stroke="url(#ai)" stroke-width=".097"/><rect x="127.993" y="63.721" width="6.708" height="1.075" rx=".146" fill="#181F29" stroke="url(#aj)" stroke-width=".097"/><rect x="30.187" y="54.931" width="2.819" height="1.075" rx=".146" fill="#181F29" stroke="url(#ak)" stroke-width=".097"/><rect x="39.424" y="54.931" width="2.819" height="1.075" rx=".146" fill="#181F29" stroke="url(#al)" stroke-width=".097"/><rect x="48.66" y="54.931" width="2.819" height="1.075" rx=".146" fill="#181F29" stroke="url(#am)" stroke-width=".097"/><rect x="57.896" y="54.931" width="2.819" height="1.075" rx=".146" fill="#181F29" stroke="url(#an)" stroke-width=".097"/><rect x="67.132" y="54.931" width="2.819" height="1.075" rx=".146" fill="#181F29" stroke="url(#ao)" stroke-width=".097"/><rect x="76.368" y="54.931" width="2.819" height="1.075" rx=".146" fill="#181F29" stroke="url(#ap)" stroke-width=".097"/><rect x="85.604" y="54.931" width="2.819" height="1.075" rx=".146" fill="#181F29" stroke="url(#aq)" stroke-width=".097"/><rect x="94.841" y="54.931" width="2.819" height="1.075" rx=".146" fill="#181F29" stroke="url(#ar)" stroke-width=".097"/><rect x="104.076" y="54.931" width="2.819" height="1.075" rx=".146" fill="#181F29" stroke="url(#as)" stroke-width=".097"/><rect x="113.312" y="54.931" width="2.819" height="1.075" rx=".146" fill="#181F29" stroke="url(#at)" stroke-width=".097"/><rect x="122.549" y="54.931" width="2.819" height="1.075" rx=".146" fill="#181F29" stroke="url(#au)" stroke-width=".097"/><rect x="131.785" y="54.931" width="2.819" height="1.075" rx=".146" fill="#181F29" stroke="url(#av)" stroke-width=".097"/><rect x="1.216" y="8.056" width="19.25" height="2.637" rx=".535" fill="#181F29" stroke="url(#aw)" stroke-width=".097"/><rect x="1.216" y="89.502" width="19.25" height="2.637" rx=".535" fill="#181F29" stroke="url(#ax)" stroke-width=".097"/><rect x="1.216" y="11.377" width="19.25" height="2.637" rx=".535" fill="#181F29" stroke="url(#ay)" stroke-width=".097"/><rect x="1.216" y="92.822" width="19.25" height="2.637" rx=".535" fill="#181F29" stroke="url(#az)" stroke-width=".097"/><rect x="1.216" y="14.697" width="19.25" height="2.637" rx=".535" fill="#181F29" stroke="url(#aA)" stroke-width=".097"/><rect x="1.216" y="96.142" width="19.25" height="2.637" rx=".535" fill="#181F29" stroke="url(#aB)" stroke-width=".097"/><rect x="18.618" y="1.709" width="1.847" height="1.856" rx=".535" fill="#181F29" stroke="url(#aC)" stroke-width=".097"/><rect x="4.812" y="1.904" width="5.931" height="1.465" rx=".146" fill="#181F29" stroke="url(#aD)" stroke-width=".097"/><mask id="aG" fill="#fff"><path d="M30.042 46.97c0-.214.174-.388.389-.388h1.555c.215 0 .39.174.39.389v6.74h-2.334v-6.74Z"/></mask><path d="M30.042 46.97c0-.214.174-.388.389-.388h1.555c.215 0 .39.174.39.389v6.74h-2.334v-6.74Z" fill="url(#aE)"/><path d="M29.848 46.97c0-.321.26-.582.583-.582h1.555c.323 0 .584.26.584.583h-.39a.194.194 0 0 0-.194-.194h-1.555a.194.194 0 0 0-.195.194h-.389Zm2.527 6.74h-2.333 2.333Zm-2.527 0v-6.74c0-.321.26-.582.583-.582v.389a.194.194 0 0 0-.195.194v6.74h-.389Zm2.138-7.322c.323 0 .584.26.584.583v6.74h-.39v-6.74a.194.194 0 0 0-.194-.194v-.39Z" fill="url(#aF)" mask="url(#aG)"/><mask id="aJ" fill="#fff"><path d="M39.278 50.194c0-.215.174-.39.39-.39h1.555c.215 0 .389.175.389.39v3.517h-2.334v-3.517Z"/></mask><path d="M39.278 50.194c0-.215.174-.39.39-.39h1.555c.215 0 .389.175.389.39v3.517h-2.334v-3.517Z" fill="url(#aH)"/><path d="M39.084 50.194c0-.323.261-.584.583-.584h1.556c.322 0 .583.261.583.584h-.389a.194.194 0 0 0-.194-.195h-1.556a.194.194 0 0 0-.194.195h-.39Zm2.528 3.517h-2.334 2.334Zm-2.528 0v-3.517c0-.323.261-.584.583-.584V50a.194.194 0 0 0-.194.194v3.517h-.39Zm2.139-4.1c.322 0 .583.26.583.583v3.517h-.389v-3.517a.194.194 0 0 0-.194-.195v-.389Z" fill="url(#aI)" mask="url(#aJ)"/><mask id="aM" fill="#fff"><path d="M48.611 45.506c0-.215.174-.389.39-.389h1.555c.215 0 .389.174.389.39v8.204H48.61v-8.205Z"/></mask><path d="M48.611 45.506c0-.215.174-.389.39-.389h1.555c.215 0 .389.174.389.39v8.204H48.61v-8.205Z" fill="url(#aK)"/><path d="M48.417 45.506c0-.322.261-.583.583-.583h1.556c.322 0 .583.26.583.583h-.389a.194.194 0 0 0-.194-.194H49a.194.194 0 0 0-.194.194h-.39Zm2.528 8.205H48.61h2.334Zm-2.528 0v-8.205c0-.322.261-.583.583-.583v.389a.194.194 0 0 0-.194.194v8.205h-.39Zm2.139-8.788c.322 0 .583.26.583.583v8.205h-.389v-8.205a.194.194 0 0 0-.194-.194v-.39Z" fill="url(#aL)" mask="url(#aM)"/><mask id="aP" fill="#fff"><path d="M57.945 39.549c0-.215.174-.389.389-.389h1.555c.215 0 .39.174.39.389v14.162h-2.334V39.549Z"/></mask><path d="M57.945 39.549c0-.215.174-.389.389-.389h1.555c.215 0 .39.174.39.389v14.162h-2.334V39.549Z" fill="url(#aN)"/><path d="M57.75 39.549c0-.322.261-.583.584-.583h1.555c.322 0 .584.26.584.583h-.39a.194.194 0 0 0-.194-.194h-1.555a.194.194 0 0 0-.195.194h-.389Zm2.528 14.162h-2.333 2.333Zm-2.528 0V39.549c0-.322.261-.583.584-.583v.389a.194.194 0 0 0-.195.194v14.162h-.389Zm2.14-14.745c.321 0 .583.26.583.583v14.162h-.39V39.549a.194.194 0 0 0-.194-.194v-.39Z" fill="url(#aO)" mask="url(#aP)"/><mask id="aS" fill="#fff"><path d="M66.986 41.502c0-.215.174-.389.39-.389h1.555c.215 0 .389.174.389.39V53.71h-2.334V41.502Z"/></mask><path d="M66.986 41.502c0-.215.174-.389.39-.389h1.555c.215 0 .389.174.389.39V53.71h-2.334V41.502Z" fill="url(#aQ)"/><path d="M66.792 41.502c0-.322.261-.583.583-.583h1.556c.322 0 .583.261.583.583h-.389a.194.194 0 0 0-.194-.194h-1.556a.194.194 0 0 0-.194.194h-.39Zm2.528 12.209h-2.334 2.334Zm-2.528 0V41.502c0-.322.261-.583.583-.583v.389a.194.194 0 0 0-.194.194v12.209h-.39Zm2.139-12.792c.322 0 .583.261.583.583v12.209h-.389V41.502a.194.194 0 0 0-.194-.194v-.39Z" fill="url(#aR)" mask="url(#aS)"/><mask id="aV" fill="#fff"><path d="M76.806 36.131c0-.215.174-.389.389-.389h1.555c.215 0 .389.174.389.39V53.71h-2.333V36.13Z"/></mask><path d="M76.806 36.131c0-.215.174-.389.389-.389h1.555c.215 0 .389.174.389.39V53.71h-2.333V36.13Z" fill="url(#aT)"/><path d="M76.611 36.131c0-.322.261-.583.584-.583h1.555c.322 0 .583.26.583.583h-.388a.195.195 0 0 0-.195-.194h-1.555a.195.195 0 0 0-.195.194h-.389Zm2.528 17.58h-2.333 2.333Zm-2.528 0V36.13c0-.322.261-.583.584-.583v.389a.195.195 0 0 0-.195.194v17.58h-.389Zm2.14-18.163c.321 0 .582.26.582.583v17.58h-.388V36.13a.195.195 0 0 0-.195-.194v-.39Z" fill="url(#aU)" mask="url(#aV)"/><mask id="aY" fill="#fff"><path d="M85.848 40.623c0-.215.174-.389.389-.389h1.555c.215 0 .389.174.389.39V53.71h-2.333V40.623Z"/></mask><path d="M85.848 40.623c0-.215.174-.389.389-.389h1.555c.215 0 .389.174.389.39V53.71h-2.333V40.623Z" fill="url(#aW)"/><path d="M85.653 40.623c0-.322.261-.583.584-.583h1.555c.322 0 .583.261.583.583h-.388a.194.194 0 0 0-.195-.194h-1.555a.195.195 0 0 0-.195.194h-.389Zm2.528 13.088h-2.333 2.333Zm-2.528 0V40.623c0-.322.261-.583.584-.583v.389a.195.195 0 0 0-.195.194v13.088h-.389Zm2.14-13.671c.321 0 .582.261.582.583v13.088h-.388V40.623a.194.194 0 0 0-.195-.194v-.39Z" fill="url(#aX)" mask="url(#aY)"/><mask id="bb" fill="#fff"><path d="M94.792 32.518c0-.215.174-.39.389-.39h1.555c.215 0 .39.175.39.39V53.71h-2.334V32.518Z"/></mask><path d="M94.792 32.518c0-.215.174-.39.389-.39h1.555c.215 0 .39.175.39.39V53.71h-2.334V32.518Z" fill="url(#aZ)"/><path d="M94.597 32.518c0-.322.262-.584.584-.584h1.555c.323 0 .584.262.584.584h-.39a.194.194 0 0 0-.194-.195h-1.555a.194.194 0 0 0-.195.195h-.389Zm2.528 21.193h-2.333 2.333Zm-2.528 0V32.518c0-.322.262-.584.584-.584v.39a.194.194 0 0 0-.195.194V53.71h-.389Zm2.14-21.776c.322 0 .583.26.583.583V53.71h-.39V32.518a.194.194 0 0 0-.194-.195v-.389Z" fill="url(#ba)" mask="url(#bb)"/><mask id="be" fill="#fff"><path d="M104.223 36.131c0-.215.174-.389.389-.389h1.555c.215 0 .389.174.389.39V53.71h-2.333V36.13Z"/></mask><path d="M104.223 36.131c0-.215.174-.389.389-.389h1.555c.215 0 .389.174.389.39V53.71h-2.333V36.13Z" fill="url(#bc)"/><path d="M104.028 36.131c0-.322.261-.583.584-.583h1.555c.322 0 .583.26.583.583h-.388a.195.195 0 0 0-.195-.194h-1.555a.195.195 0 0 0-.195.194h-.389Zm2.528 17.58h-2.333 2.333Zm-2.528 0V36.13c0-.322.261-.583.584-.583v.389a.195.195 0 0 0-.195.194v17.58h-.389Zm2.139-18.163c.322 0 .583.26.583.583v17.58h-.388V36.13a.195.195 0 0 0-.195-.194v-.39Z" fill="url(#bd)" mask="url(#be)"/><mask id="bh" fill="#fff"><path d="M113.945 24.51c0-.214.174-.388.389-.388h1.555c.215 0 .389.174.389.389v29.2h-2.333v-29.2Z"/></mask><path d="M113.945 24.51c0-.214.174-.388.389-.388h1.555c.215 0 .389.174.389.389v29.2h-2.333v-29.2Z" fill="url(#bf)"/><path d="M113.75 24.51c0-.322.262-.583.584-.583h1.555c.322 0 .584.261.584.584h-.389a.195.195 0 0 0-.195-.195h-1.555a.195.195 0 0 0-.195.195h-.389Zm2.528 29.201h-2.333 2.333Zm-2.528 0v-29.2c0-.323.262-.584.584-.584v.389a.195.195 0 0 0-.195.195v29.2h-.389Zm2.139-29.784c.322 0 .584.261.584.584v29.2h-.389v-29.2a.195.195 0 0 0-.195-.195v-.389Z" fill="url(#bg)" mask="url(#bh)"/><mask id="bk" fill="#fff"><path d="M122.792 28.026c0-.215.174-.389.389-.389h1.555c.215 0 .389.174.389.39V53.71h-2.333V28.026Z"/></mask><path d="M122.792 28.026c0-.215.174-.389.389-.389h1.555c.215 0 .389.174.389.39V53.71h-2.333V28.026Z" fill="url(#bi)"/><path d="M122.598 28.026c0-.322.261-.583.583-.583h1.555c.323 0 .584.26.584.583h-.389a.194.194 0 0 0-.195-.194h-1.555a.194.194 0 0 0-.195.194h-.388Zm2.527 25.685h-2.333 2.333Zm-2.527 0V28.026c0-.322.261-.583.583-.583v.389a.194.194 0 0 0-.195.194v25.685h-.388Zm2.138-26.268c.323 0 .584.26.584.583v25.685h-.389V28.026a.194.194 0 0 0-.195-.194v-.39Z" fill="url(#bj)" mask="url(#bk)"/><mask id="bn" fill="#fff"><path d="M132.32 22.264c0-.215.174-.389.389-.389h1.555c.215 0 .389.174.389.389V53.71h-2.333V22.264Z"/></mask><path d="M132.32 22.264c0-.215.174-.389.389-.389h1.555c.215 0 .389.174.389.389V53.71h-2.333V22.264Z" fill="url(#bl)"/><path d="M132.125 22.264c0-.322.262-.583.584-.583h1.555c.322 0 .584.26.584.583h-.389a.195.195 0 0 0-.195-.195h-1.555a.195.195 0 0 0-.195.195h-.389Zm2.528 31.447h-2.333 2.333Zm-2.528 0V22.264c0-.322.262-.583.584-.583v.388a.195.195 0 0 0-.195.195V53.71h-.389Zm2.139-32.03c.322 0 .584.26.584.583V53.71h-.389V22.264a.195.195 0 0 0-.195-.195v-.388Z" fill="url(#bm)" mask="url(#bn)"/><defs><linearGradient id="d" x1="10.84" y1="0" x2="10.84" y2="100" gradientUnits="userSpaceOnUse"><stop stop-color="#0D141F" stop-opacity=".51"/><stop offset="1" stop-color="#142133"/></linearGradient><linearGradient id="e" x1="10.84" y1="0" x2="10.84" y2="100" gradientUnits="userSpaceOnUse"><stop stop-color="#FAFAFA" stop-opacity=".15"/><stop offset="1" stop-color="#DDDCDC" stop-opacity=".2"/></linearGradient><linearGradient id="i" x1="80.5" y1="2.344" x2="80.5" y2="57.227" gradientUnits="userSpaceOnUse"><stop stop-color="#0D141F" stop-opacity=".51"/><stop offset="1" stop-color="#142133"/></linearGradient><linearGradient id="j" x1="80.5" y1="2.344" x2="80.5" y2="57.227" gradientUnits="userSpaceOnUse"><stop stop-color="#FAFAFA" stop-opacity=".15"/><stop offset="1" stop-color="#DDDCDC" stop-opacity=".2"/></linearGradient><linearGradient id="m" x1="80.5" y1="59.57" x2="80.5" y2="98.242" gradientUnits="userSpaceOnUse"><stop stop-color="#0D141F" stop-opacity=".51"/><stop offset="1" stop-color="#142133"/></linearGradient><linearGradient id="n" x1="80.5" y1="59.57" x2="80.5" y2="98.242" gradientUnits="userSpaceOnUse"><stop stop-color="#FAFAFA" stop-opacity=".15"/><stop offset="1" stop-color="#DDDCDC" stop-opacity=".2"/></linearGradient><linearGradient id="o" x1="2.625" y1="1.172" x2="2.625" y2="4.102" gradientUnits="userSpaceOnUse"><stop stop-color="#FAFAFA" stop-opacity=".15"/><stop offset="1" stop-color="#DDDCDC" stop-opacity=".2"/></linearGradient><linearGradient id="p" x1="10.841" y1="4.688" x2="10.841" y2="7.422" gradientUnits="userSpaceOnUse"><stop stop-color="#FAFAFA" stop-opacity=".15"/><stop offset="1" stop-color="#DDDCDC" stop-opacity=".2"/></linearGradient><linearGradient id="q" x1="29.069" y1="3.516" x2="29.069" y2="4.688" gradientUnits="userSpaceOnUse"><stop stop-color="#FAFAFA" stop-opacity=".15"/><stop offset="1" stop-color="#DDDCDC" stop-opacity=".2"/></linearGradient><linearGradient id="r" x1="38.062" y1="5.078" x2="38.062" y2="11.035" gradientUnits="userSpaceOnUse"><stop stop-color="#FAFAFA" stop-opacity=".15"/><stop offset="1" stop-color="#DDDCDC" stop-opacity=".2"/></linearGradient><linearGradient id="s" x1="127.604" y1="7.031" x2="127.604" y2="11.23" gradientUnits="userSpaceOnUse"><stop stop-color="#FAFAFA" stop-opacity=".15"/><stop offset="1" stop-color="#DDDCDC" stop-opacity=".2"/></linearGradient><linearGradient id="t" x1="112.924" y1="7.031" x2="112.924" y2="11.23" gradientUnits="userSpaceOnUse"><stop stop-color="#FAFAFA" stop-opacity=".15"/><stop offset="1" stop-color="#DDDCDC" stop-opacity=".2"/></linearGradient><linearGradient id="u" x1="27.805" y1="12.598" x2="27.805" y2="13.77" gradientUnits="userSpaceOnUse"><stop stop-color="#FAFAFA" stop-opacity=".15"/><stop offset="1" stop-color="#DDDCDC" stop-opacity=".2"/></linearGradient><linearGradient id="v" x1="27.805" y1="20.586" x2="27.805" y2="21.758" gradientUnits="userSpaceOnUse"><stop stop-color="#FAFAFA" stop-opacity=".15"/><stop offset="1" stop-color="#DDDCDC" stop-opacity=".2"/></linearGradient><linearGradient id="w" x1="27.805" y1="28.574" x2="27.805" y2="29.746" gradientUnits="userSpaceOnUse"><stop stop-color="#FAFAFA" stop-opacity=".15"/><stop offset="1" stop-color="#DDDCDC" stop-opacity=".2"/></linearGradient><linearGradient id="x" x1="27.805" y1="36.563" x2="27.805" y2="37.734" gradientUnits="userSpaceOnUse"><stop stop-color="#FAFAFA" stop-opacity=".15"/><stop offset="1" stop-color="#DDDCDC" stop-opacity=".2"/></linearGradient><linearGradient id="y" x1="27.805" y1="44.551" x2="27.805" y2="45.723" gradientUnits="userSpaceOnUse"><stop stop-color="#FAFAFA" stop-opacity=".15"/><stop offset="1" stop-color="#DDDCDC" stop-opacity=".2"/></linearGradient><linearGradient id="z" x1="27.805" y1="52.539" x2="27.805" y2="53.711" gradientUnits="userSpaceOnUse"><stop stop-color="#FAFAFA" stop-opacity=".15"/><stop offset="1" stop-color="#DDDCDC" stop-opacity=".2"/></linearGradient><linearGradient id="A" x1="29.75" y1="63.672" x2="29.75" y2="64.844" gradientUnits="userSpaceOnUse"><stop stop-color="#FAFAFA" stop-opacity=".15"/><stop offset="1" stop-color="#DDDCDC" stop-opacity=".2"/></linearGradient><linearGradient id="B" x1="33.639" y1="60.742" x2="33.639" y2="62.109" gradientUnits="userSpaceOnUse"><stop stop-color="#FAFAFA" stop-opacity=".15"/><stop offset="1" stop-color="#DDDCDC" stop-opacity=".2"/></linearGradient><linearGradient id="C" x1="30.917" y1="66.016" x2="30.917" y2="69.238" gradientUnits="userSpaceOnUse"><stop stop-color="#FAFAFA" stop-opacity=".15"/><stop offset="1" stop-color="#DDDCDC" stop-opacity=".2"/></linearGradient><linearGradient id="D" x1="30.917" y1="71.582" x2="30.917" y2="74.805" gradientUnits="userSpaceOnUse"><stop stop-color="#FAFAFA" stop-opacity=".15"/><stop offset="1" stop-color="#DDDCDC" stop-opacity=".2"/></linearGradient><linearGradient id="E" x1="30.917" y1="77.148" x2="30.917" y2="80.371" gradientUnits="userSpaceOnUse"><stop stop-color="#FAFAFA" stop-opacity=".15"/><stop offset="1" stop-color="#DDDCDC" stop-opacity=".2"/></linearGradient><linearGradient id="F" x1="30.917" y1="82.715" x2="30.917" y2="85.938" gradientUnits="userSpaceOnUse"><stop stop-color="#FAFAFA" stop-opacity=".15"/><stop offset="1" stop-color="#DDDCDC" stop-opacity=".2"/></linearGradient><linearGradient id="G" x1="30.917" y1="88.281" x2="30.917" y2="91.504" gradientUnits="userSpaceOnUse"><stop stop-color="#FAFAFA" stop-opacity=".15"/><stop offset="1" stop-color="#DDDCDC" stop-opacity=".2"/></linearGradient><linearGradient id="H" x1="30.917" y1="93.848" x2="30.917" y2="97.07" gradientUnits="userSpaceOnUse"><stop stop-color="#FAFAFA" stop-opacity=".15"/><stop offset="1" stop-color="#DDDCDC" stop-opacity=".2"/></linearGradient><linearGradient id="I" x1="56.389" y1="66.016" x2="56.389" y2="69.238" gradientUnits="userSpaceOnUse"><stop stop-color="#FAFAFA" stop-opacity=".15"/><stop offset="1" stop-color="#DDDCDC" stop-opacity=".2"/></linearGradient><linearGradient id="J" x1="56.389" y1="71.582" x2="56.389" y2="74.805" gradientUnits="userSpaceOnUse"><stop stop-color="#FAFAFA" stop-opacity=".15"/><stop offset="1" stop-color="#DDDCDC" stop-opacity=".2"/></linearGradient><linearGradient id="K" x1="56.389" y1="77.148" x2="56.389" y2="80.371" gradientUnits="userSpaceOnUse"><stop stop-color="#FAFAFA" stop-opacity=".15"/><stop offset="1" stop-color="#DDDCDC" stop-opacity=".2"/></linearGradient><linearGradient id="L" x1="56.389" y1="82.715" x2="56.389" y2="85.938" gradientUnits="userSpaceOnUse"><stop stop-color="#FAFAFA" stop-opacity=".15"/><stop offset="1" stop-color="#DDDCDC" stop-opacity=".2"/></linearGradient><linearGradient id="M" x1="56.389" y1="88.281" x2="56.389" y2="91.504" gradientUnits="userSpaceOnUse"><stop stop-color="#FAFAFA" stop-opacity=".15"/><stop offset="1" stop-color="#DDDCDC" stop-opacity=".2"/></linearGradient><linearGradient id="N" x1="56.389" y1="93.848" x2="56.389" y2="97.07" gradientUnits="userSpaceOnUse"><stop stop-color="#FAFAFA" stop-opacity=".15"/><stop offset="1" stop-color="#DDDCDC" stop-opacity=".2"/></linearGradient><linearGradient id="O" x1="83.805" y1="66.016" x2="83.805" y2="69.238" gradientUnits="userSpaceOnUse"><stop stop-color="#FAFAFA" stop-opacity=".15"/><stop offset="1" stop-color="#DDDCDC" stop-opacity=".2"/></linearGradient><linearGradient id="P" x1="83.805" y1="71.582" x2="83.805" y2="74.805" gradientUnits="userSpaceOnUse"><stop stop-color="#FAFAFA" stop-opacity=".15"/><stop offset="1" stop-color="#DDDCDC" stop-opacity=".2"/></linearGradient><linearGradient id="Q" x1="83.805" y1="77.148" x2="83.805" y2="80.371" gradientUnits="userSpaceOnUse"><stop stop-color="#FAFAFA" stop-opacity=".15"/><stop offset="1" stop-color="#DDDCDC" stop-opacity=".2"/></linearGradient><linearGradient id="R" x1="83.805" y1="82.715" x2="83.805" y2="85.938" gradientUnits="userSpaceOnUse"><stop stop-color="#FAFAFA" stop-opacity=".15"/><stop offset="1" stop-color="#DDDCDC" stop-opacity=".2"/></linearGradient><linearGradient id="S" x1="83.805" y1="88.281" x2="83.805" y2="91.504" gradientUnits="userSpaceOnUse"><stop stop-color="#FAFAFA" stop-opacity=".15"/><stop offset="1" stop-color="#DDDCDC" stop-opacity=".2"/></linearGradient><linearGradient id="T" x1="83.805" y1="93.848" x2="83.805" y2="97.07" gradientUnits="userSpaceOnUse"><stop stop-color="#FAFAFA" stop-opacity=".15"/><stop offset="1" stop-color="#DDDCDC" stop-opacity=".2"/></linearGradient><linearGradient id="U" x1="109.18" y1="66.016" x2="109.18" y2="69.238" gradientUnits="userSpaceOnUse"><stop stop-color="#FAFAFA" stop-opacity=".15"/><stop offset="1" stop-color="#DDDCDC" stop-opacity=".2"/></linearGradient><linearGradient id="V" x1="109.18" y1="71.582" x2="109.18" y2="74.805" gradientUnits="userSpaceOnUse"><stop stop-color="#FAFAFA" stop-opacity=".15"/><stop offset="1" stop-color="#DDDCDC" stop-opacity=".2"/></linearGradient><linearGradient id="W" x1="109.18" y1="77.148" x2="109.18" y2="80.371" gradientUnits="userSpaceOnUse"><stop stop-color="#FAFAFA" stop-opacity=".15"/><stop offset="1" stop-color="#DDDCDC" stop-opacity=".2"/></linearGradient><linearGradient id="X" x1="109.18" y1="82.715" x2="109.18" y2="85.938" gradientUnits="userSpaceOnUse"><stop stop-color="#FAFAFA" stop-opacity=".15"/><stop offset="1" stop-color="#DDDCDC" stop-opacity=".2"/></linearGradient><linearGradient id="Y" x1="109.18" y1="88.281" x2="109.18" y2="91.504" gradientUnits="userSpaceOnUse"><stop stop-color="#FAFAFA" stop-opacity=".15"/><stop offset="1" stop-color="#DDDCDC" stop-opacity=".2"/></linearGradient><linearGradient id="Z" x1="109.18" y1="93.848" x2="109.18" y2="97.07" gradientUnits="userSpaceOnUse"><stop stop-color="#FAFAFA" stop-opacity=".15"/><stop offset="1" stop-color="#DDDCDC" stop-opacity=".2"/></linearGradient><linearGradient id="aa" x1="128.042" y1="66.016" x2="128.042" y2="69.238" gradientUnits="userSpaceOnUse"><stop stop-color="#FAFAFA" stop-opacity=".15"/><stop offset="1" stop-color="#DDDCDC" stop-opacity=".2"/></linearGradient><linearGradient id="ab" x1="128.042" y1="71.582" x2="128.042" y2="74.805" gradientUnits="userSpaceOnUse"><stop stop-color="#FAFAFA" stop-opacity=".15"/><stop offset="1" stop-color="#DDDCDC" stop-opacity=".2"/></linearGradient><linearGradient id="ac" x1="128.042" y1="77.148" x2="128.042" y2="80.371" gradientUnits="userSpaceOnUse"><stop stop-color="#FAFAFA" stop-opacity=".15"/><stop offset="1" stop-color="#DDDCDC" stop-opacity=".2"/></linearGradient><linearGradient id="ad" x1="128.042" y1="82.715" x2="128.042" y2="85.938" gradientUnits="userSpaceOnUse"><stop stop-color="#FAFAFA" stop-opacity=".15"/><stop offset="1" stop-color="#DDDCDC" stop-opacity=".2"/></linearGradient><linearGradient id="ae" x1="128.042" y1="88.281" x2="128.042" y2="91.504" gradientUnits="userSpaceOnUse"><stop stop-color="#FAFAFA" stop-opacity=".15"/><stop offset="1" stop-color="#DDDCDC" stop-opacity=".2"/></linearGradient><linearGradient id="af" x1="128.042" y1="93.848" x2="128.042" y2="97.07" gradientUnits="userSpaceOnUse"><stop stop-color="#FAFAFA" stop-opacity=".15"/><stop offset="1" stop-color="#DDDCDC" stop-opacity=".2"/></linearGradient><linearGradient id="ag" x1="55.222" y1="63.672" x2="55.222" y2="64.844" gradientUnits="userSpaceOnUse"><stop stop-color="#FAFAFA" stop-opacity=".15"/><stop offset="1" stop-color="#DDDCDC" stop-opacity=".2"/></linearGradient><linearGradient id="ah" x1="80.597" y1="63.672" x2="80.597" y2="64.844" gradientUnits="userSpaceOnUse"><stop stop-color="#FAFAFA" stop-opacity=".15"/><stop offset="1" stop-color="#DDDCDC" stop-opacity=".2"/></linearGradient><linearGradient id="ai" x1="105.972" y1="63.672" x2="105.972" y2="64.844" gradientUnits="userSpaceOnUse"><stop stop-color="#FAFAFA" stop-opacity=".15"/><stop offset="1" stop-color="#DDDCDC" stop-opacity=".2"/></linearGradient><linearGradient id="aj" x1="131.347" y1="63.672" x2="131.347" y2="64.844" gradientUnits="userSpaceOnUse"><stop stop-color="#FAFAFA" stop-opacity=".15"/><stop offset="1" stop-color="#DDDCDC" stop-opacity=".2"/></linearGradient><linearGradient id="ak" x1="31.597" y1="54.883" x2="31.597" y2="56.055" gradientUnits="userSpaceOnUse"><stop stop-color="#FAFAFA" stop-opacity=".15"/><stop offset="1" stop-color="#DDDCDC" stop-opacity=".2"/></linearGradient><linearGradient id="al" x1="40.833" y1="54.883" x2="40.833" y2="56.055" gradientUnits="userSpaceOnUse"><stop stop-color="#FAFAFA" stop-opacity=".15"/><stop offset="1" stop-color="#DDDCDC" stop-opacity=".2"/></linearGradient><linearGradient id="am" x1="50.07" y1="54.883" x2="50.07" y2="56.055" gradientUnits="userSpaceOnUse"><stop stop-color="#FAFAFA" stop-opacity=".15"/><stop offset="1" stop-color="#DDDCDC" stop-opacity=".2"/></linearGradient><linearGradient id="an" x1="59.306" y1="54.883" x2="59.306" y2="56.055" gradientUnits="userSpaceOnUse"><stop stop-color="#FAFAFA" stop-opacity=".15"/><stop offset="1" stop-color="#DDDCDC" stop-opacity=".2"/></linearGradient><linearGradient id="ao" x1="68.541" y1="54.883" x2="68.541" y2="56.055" gradientUnits="userSpaceOnUse"><stop stop-color="#FAFAFA" stop-opacity=".15"/><stop offset="1" stop-color="#DDDCDC" stop-opacity=".2"/></linearGradient><linearGradient id="ap" x1="77.778" y1="54.883" x2="77.778" y2="56.055" gradientUnits="userSpaceOnUse"><stop stop-color="#FAFAFA" stop-opacity=".15"/><stop offset="1" stop-color="#DDDCDC" stop-opacity=".2"/></linearGradient><linearGradient id="aq" x1="87.014" y1="54.883" x2="87.014" y2="56.055" gradientUnits="userSpaceOnUse"><stop stop-color="#FAFAFA" stop-opacity=".15"/><stop offset="1" stop-color="#DDDCDC" stop-opacity=".2"/></linearGradient><linearGradient id="ar" x1="96.25" y1="54.883" x2="96.25" y2="56.055" gradientUnits="userSpaceOnUse"><stop stop-color="#FAFAFA" stop-opacity=".15"/><stop offset="1" stop-color="#DDDCDC" stop-opacity=".2"/></linearGradient><linearGradient id="as" x1="105.486" y1="54.883" x2="105.486" y2="56.055" gradientUnits="userSpaceOnUse"><stop stop-color="#FAFAFA" stop-opacity=".15"/><stop offset="1" stop-color="#DDDCDC" stop-opacity=".2"/></linearGradient><linearGradient id="at" x1="114.722" y1="54.883" x2="114.722" y2="56.055" gradientUnits="userSpaceOnUse"><stop stop-color="#FAFAFA" stop-opacity=".15"/><stop offset="1" stop-color="#DDDCDC" stop-opacity=".2"/></linearGradient><linearGradient id="au" x1="123.958" y1="54.883" x2="123.958" y2="56.055" gradientUnits="userSpaceOnUse"><stop stop-color="#FAFAFA" stop-opacity=".15"/><stop offset="1" stop-color="#DDDCDC" stop-opacity=".2"/></linearGradient><linearGradient id="av" x1="133.195" y1="54.883" x2="133.195" y2="56.055" gradientUnits="userSpaceOnUse"><stop stop-color="#FAFAFA" stop-opacity=".15"/><stop offset="1" stop-color="#DDDCDC" stop-opacity=".2"/></linearGradient><linearGradient id="aw" x1="10.841" y1="8.008" x2="10.841" y2="10.742" gradientUnits="userSpaceOnUse"><stop stop-color="#FAFAFA" stop-opacity=".15"/><stop offset="1" stop-color="#DDDCDC" stop-opacity=".2"/></linearGradient><linearGradient id="ax" x1="10.841" y1="89.453" x2="10.841" y2="92.188" gradientUnits="userSpaceOnUse"><stop stop-color="#FAFAFA" stop-opacity=".15"/><stop offset="1" stop-color="#DDDCDC" stop-opacity=".2"/></linearGradient><linearGradient id="ay" x1="10.841" y1="11.328" x2="10.841" y2="14.063" gradientUnits="userSpaceOnUse"><stop stop-color="#FAFAFA" stop-opacity=".15"/><stop offset="1" stop-color="#DDDCDC" stop-opacity=".2"/></linearGradient><linearGradient id="az" x1="10.841" y1="92.773" x2="10.841" y2="95.508" gradientUnits="userSpaceOnUse"><stop stop-color="#FAFAFA" stop-opacity=".15"/><stop offset="1" stop-color="#DDDCDC" stop-opacity=".2"/></linearGradient><linearGradient id="aA" x1="10.841" y1="14.648" x2="10.841" y2="17.383" gradientUnits="userSpaceOnUse"><stop stop-color="#FAFAFA" stop-opacity=".15"/><stop offset="1" stop-color="#DDDCDC" stop-opacity=".2"/></linearGradient><linearGradient id="aB" x1="10.841" y1="96.094" x2="10.841" y2="98.828" gradientUnits="userSpaceOnUse"><stop stop-color="#FAFAFA" stop-opacity=".15"/><stop offset="1" stop-color="#DDDCDC" stop-opacity=".2"/></linearGradient><linearGradient id="aC" x1="19.542" y1="1.66" x2="19.542" y2="3.613" gradientUnits="userSpaceOnUse"><stop stop-color="#FAFAFA" stop-opacity=".15"/><stop offset="1" stop-color="#DDDCDC" stop-opacity=".2"/></linearGradient><linearGradient id="aD" x1="7.778" y1="1.855" x2="7.778" y2="3.418" gradientUnits="userSpaceOnUse"><stop stop-color="#FAFAFA" stop-opacity=".15"/><stop offset="1" stop-color="#DDDCDC" stop-opacity=".2"/></linearGradient><linearGradient id="aE" x1="31.209" y1="46.582" x2="31.209" y2="53.711" gradientUnits="userSpaceOnUse"><stop stop-color="#1DC538" stop-opacity=".4"/><stop offset="1" stop-color="#1DC538" stop-opacity="0"/></linearGradient><linearGradient id="aF" x1="31.209" y1="46.582" x2="31.209" y2="53.711" gradientUnits="userSpaceOnUse"><stop stop-color="#1DC538"/><stop offset="1" stop-color="#1DC538" stop-opacity="0"/></linearGradient><linearGradient id="aH" x1="40.445" y1="49.805" x2="40.445" y2="53.711" gradientUnits="userSpaceOnUse"><stop stop-color="#1DC538" stop-opacity=".4"/><stop offset="1" stop-color="#1DC538" stop-opacity="0"/></linearGradient><linearGradient id="aI" x1="40.445" y1="49.805" x2="40.445" y2="53.711" gradientUnits="userSpaceOnUse"><stop stop-color="#1DC538"/><stop offset="1" stop-color="#1DC538" stop-opacity="0"/></linearGradient><linearGradient id="aK" x1="49.778" y1="45.117" x2="49.778" y2="53.711" gradientUnits="userSpaceOnUse"><stop stop-color="#1DC538" stop-opacity=".4"/><stop offset="1" stop-color="#1DC538" stop-opacity="0"/></linearGradient><linearGradient id="aL" x1="49.778" y1="45.117" x2="49.778" y2="53.711" gradientUnits="userSpaceOnUse"><stop stop-color="#1DC538"/><stop offset="1" stop-color="#1DC538" stop-opacity="0"/></linearGradient><linearGradient id="aN" x1="59.111" y1="39.16" x2="59.111" y2="53.711" gradientUnits="userSpaceOnUse"><stop stop-color="#1DC538" stop-opacity=".4"/><stop offset="1" stop-color="#1DC538" stop-opacity="0"/></linearGradient><linearGradient id="aO" x1="59.111" y1="39.16" x2="59.111" y2="53.711" gradientUnits="userSpaceOnUse"><stop stop-color="#1DC538"/><stop offset="1" stop-color="#1DC538" stop-opacity="0"/></linearGradient><linearGradient id="aQ" x1="68.153" y1="41.113" x2="68.153" y2="53.711" gradientUnits="userSpaceOnUse"><stop stop-color="#1DC538" stop-opacity=".4"/><stop offset="1" stop-color="#1DC538" stop-opacity="0"/></linearGradient><linearGradient id="aR" x1="68.153" y1="41.113" x2="68.153" y2="53.711" gradientUnits="userSpaceOnUse"><stop stop-color="#1DC538"/><stop offset="1" stop-color="#1DC538" stop-opacity="0"/></linearGradient><linearGradient id="aT" x1="77.972" y1="35.742" x2="77.972" y2="53.711" gradientUnits="userSpaceOnUse"><stop stop-color="#1DC538" stop-opacity=".4"/><stop offset="1" stop-color="#1DC538" stop-opacity="0"/></linearGradient><linearGradient id="aU" x1="77.972" y1="35.742" x2="77.972" y2="53.711" gradientUnits="userSpaceOnUse"><stop stop-color="#1DC538"/><stop offset="1" stop-color="#1DC538" stop-opacity="0"/></linearGradient><linearGradient id="aW" x1="87.014" y1="40.234" x2="87.014" y2="53.711" gradientUnits="userSpaceOnUse"><stop stop-color="#1DC538" stop-opacity=".4"/><stop offset="1" stop-color="#1DC538" stop-opacity="0"/></linearGradient><linearGradient id="aX" x1="87.014" y1="40.234" x2="87.014" y2="53.711" gradientUnits="userSpaceOnUse"><stop stop-color="#1DC538"/><stop offset="1" stop-color="#1DC538" stop-opacity="0"/></linearGradient><linearGradient id="aZ" x1="95.959" y1="32.129" x2="95.959" y2="53.711" gradientUnits="userSpaceOnUse"><stop stop-color="#1DC538" stop-opacity=".4"/><stop offset="1" stop-color="#1DC538" stop-opacity="0"/></linearGradient><linearGradient id="ba" x1="95.959" y1="32.129" x2="95.959" y2="53.711" gradientUnits="userSpaceOnUse"><stop stop-color="#1DC538"/><stop offset="1" stop-color="#1DC538" stop-opacity="0"/></linearGradient><linearGradient id="bc" x1="105.389" y1="35.742" x2="105.389" y2="53.711" gradientUnits="userSpaceOnUse"><stop stop-color="#1DC538" stop-opacity=".4"/><stop offset="1" stop-color="#1DC538" stop-opacity="0"/></linearGradient><linearGradient id="bd" x1="105.389" y1="35.742" x2="105.389" y2="53.711" gradientUnits="userSpaceOnUse"><stop stop-color="#1DC538"/><stop offset="1" stop-color="#1DC538" stop-opacity="0"/></linearGradient><linearGradient id="bf" x1="115.111" y1="24.122" x2="115.111" y2="53.711" gradientUnits="userSpaceOnUse"><stop stop-color="#1DC538" stop-opacity=".4"/><stop offset="1" stop-color="#1DC538" stop-opacity="0"/></linearGradient><linearGradient id="bg" x1="115.111" y1="24.122" x2="115.111" y2="53.711" gradientUnits="userSpaceOnUse"><stop stop-color="#1DC538"/><stop offset="1" stop-color="#1DC538" stop-opacity="0"/></linearGradient><linearGradient id="bi" x1="123.959" y1="27.637" x2="123.959" y2="53.711" gradientUnits="userSpaceOnUse"><stop stop-color="#1DC538" stop-opacity=".4"/><stop offset="1" stop-color="#1DC538" stop-opacity="0"/></linearGradient><linearGradient id="bj" x1="123.959" y1="27.637" x2="123.959" y2="53.711" gradientUnits="userSpaceOnUse"><stop stop-color="#1DC538"/><stop offset="1" stop-color="#1DC538" stop-opacity="0"/></linearGradient><linearGradient id="bl" x1="133.486" y1="21.875" x2="133.486" y2="53.711" gradientUnits="userSpaceOnUse"><stop stop-color="#1DC538" stop-opacity=".4"/><stop offset="1" stop-color="#1DC538" stop-opacity="0"/></linearGradient><linearGradient id="bm" x1="133.486" y1="21.875" x2="133.486" y2="53.711" gradientUnits="userSpaceOnUse"><stop stop-color="#1DC538"/><stop offset="1" stop-color="#1DC538" stop-opacity="0"/></linearGradient><radialGradient id="a" cx="0" cy="0" r="1" gradientUnits="userSpaceOnUse" gradientTransform="rotate(35.633) scale(100.659 141.756)"><stop stop-color="#0E1724"/><stop offset="1" stop-color="#0B121C"/></radialGradient><radialGradient id="c" cx="0" cy="0" r="1" gradientUnits="userSpaceOnUse" gradientTransform="matrix(0 50 -10.8403 0 10.84 0)"><stop stop-color="#0E1724" stop-opacity=".8"/><stop offset="1" stop-color="#090F17" stop-opacity=".16"/></radialGradient><radialGradient id="h" cx="0" cy="0" r="1" gradientUnits="userSpaceOnUse" gradientTransform="matrix(0 27.4414 -55.3194 0 80.5 2.344)"><stop stop-color="#0E1724" stop-opacity=".8"/><stop offset="1" stop-color="#090F17" stop-opacity=".16"/></radialGradient><radialGradient id="l" cx="0" cy="0" r="1" gradientUnits="userSpaceOnUse" gradientTransform="matrix(0 19.3359 -55.3194 0 80.5 59.57)"><stop stop-color="#0E1724" stop-opacity=".8"/><stop offset="1" stop-color="#090F17" stop-opacity=".16"/></radialGradient><filter id="b" x="-1.556" y="-1.556" width="24.792" height="103.111" filterUnits="userSpaceOnUse" color-interpolation-filters="sRGB"><feFlood flood-opacity="0" result="BackgroundImageFix"/><feGaussianBlur in="BackgroundImageFix" stdDeviation=".778"/><feComposite in2="SourceAlpha" operator="in" result="effect1_backgroundBlur_287_17924"/><feBlend in="SourceGraphic" in2="effect1_backgroundBlur_287_17924" result="shape"/></filter><filter id="g" x="23.625" y=".788" width="113.75" height="57.994" filterUnits="userSpaceOnUse" color-interpolation-filters="sRGB"><feFlood flood-opacity="0" result="BackgroundImageFix"/><feGaussianBlur in="BackgroundImageFix" stdDeviation=".778"/><feComposite in2="SourceAlpha" operator="in" result="effect1_backgroundBlur_287_17924"/><feBlend in="SourceGraphic" in2="effect1_backgroundBlur_287_17924" result="shape"/></filter><filter id="k" x="23.625" y="58.015" width="113.75" height="41.783" filterUnits="userSpaceOnUse" color-interpolation-filters="sRGB"><feFlood flood-opacity="0" result="BackgroundImageFix"/><feGaussianBlur in="BackgroundImageFix" stdDeviation=".778"/><feComposite in2="SourceAlpha" operator="in" result="effect1_backgroundBlur_287_17924"/><feBlend in="SourceGraphic" in2="effect1_backgroundBlur_287_17924" result="shape"/></filter></defs></svg>