<svg width="44" height="44" viewBox="0 0 44 44" fill="none" xmlns="http://www.w3.org/2000/svg">
<g clip-path="url(#clip0_573_17380)">
<path d="M36.9604 0.786133H7.04042C3.58627 0.786133 0.786133 3.58627 0.786133 7.04042V36.9604C0.786133 40.4146 3.58627 43.2147 7.04042 43.2147H36.9604C40.4146 43.2147 43.2147 40.4146 43.2147 36.9604V7.04042C43.2147 3.58627 40.4146 0.786133 36.9604 0.786133Z" fill="#CECFD2" stroke="white" stroke-width="1.57143"/>
<path fill-rule="evenodd" clip-rule="evenodd" d="M23.8416 6.28613C24.1147 6.28613 24.336 6.50745 24.336 6.78046V12.7727C24.336 13.0187 24.517 13.2261 24.7591 13.2697C25.5406 13.4105 26.2957 13.6277 27.0162 13.9133C27.3537 14.0471 27.7332 13.8063 27.7332 13.4432V11.0279C27.7332 10.7549 27.9545 10.5335 28.2276 10.5335H30.6366C30.9096 10.5335 31.131 10.7549 31.131 11.0279V16.65L31.1311 19.6874C31.1311 20.1303 30.5818 20.3609 30.2416 20.0776C28.18 18.3611 25.529 17.3286 22.6366 17.3286C19.7446 17.3286 17.0936 18.361 15.0322 20.0773C14.6919 20.3606 14.1426 20.1299 14.1426 19.6871V16.6503L14.1432 11.0274C14.1432 10.7544 14.3645 10.5331 14.6375 10.5331H17.0466C17.3195 10.5331 17.5408 10.7544 17.5408 11.0274V13.4428C17.5408 13.8059 17.9203 14.0467 18.2578 13.9129C18.9783 13.6274 19.7334 13.4103 20.515 13.2695C20.7572 13.2259 20.9382 13.0185 20.9382 12.7725V6.78046C20.9382 6.50745 21.1595 6.28613 21.4326 6.28613H23.8416ZM22.6369 37.7147C27.3283 37.7147 31.1313 33.9115 31.1313 29.2203C31.1313 24.529 27.3283 20.726 22.6369 20.726C17.9458 20.726 14.1427 24.529 14.1427 29.2203C14.1427 33.9115 17.9458 37.7147 22.6369 37.7147Z" fill="#476AE6"/>
</g>
<defs>
<clipPath id="clip0_573_17380">
<rect width="44" height="44" fill="white"/>
</clipPath>
</defs>
</svg>
