<svg width="44" height="44" viewBox="0 0 44 44" fill="none" xmlns="http://www.w3.org/2000/svg">
<g clip-path="url(#clip0_573_17415)">
<mask id="mask0_573_17415" style="mask-type:luminance" maskUnits="userSpaceOnUse" x="0" y="0" width="44" height="45">
<path d="M44 0.000976562H0V44.001H44V0.000976562Z" fill="white"/>
</mask>
<g mask="url(#mask0_573_17415)">
<path fill-rule="evenodd" clip-rule="evenodd" d="M40.7022 33.5868C42.8553 30.1113 44 26.0994 44 22.001C44 16.1662 41.6821 10.5704 37.5564 6.44462C33.4305 2.31883 27.8348 0.000976562 22 0.000976562C17.6488 0.000976562 13.3953 1.29125 9.77746 3.70864C6.15958 6.12604 3.3398 9.56196 1.67466 13.582C0.00953254 17.6019 -0.426142 22.0254 0.422735 26.293C1.27161 30.5605 3.3669 34.4805 6.44367 37.5574C9.52041 40.6341 13.4404 42.7294 17.708 43.5784C21.9756 44.4271 26.3991 43.9915 30.419 42.3263C34.439 40.6612 37.875 37.8414 40.2923 34.2235C40.4296 34.0178 40.5634 33.8101 40.6936 33.6007L40.7 33.6016C40.7007 33.5965 40.7013 33.5917 40.7022 33.5868ZM22.3663 2.64443C19.5458 8.03986 17.5345 9.11481 16.0401 9.901C14.7047 10.6116 13.8247 11.0802 12.5069 16.7914C11.3172 21.9471 7.95524 25.7254 3.35333 27.2077C3.9013 29.1701 4.75856 31.0443 5.90275 32.7568C5.96688 32.8527 6.03181 32.9482 6.09754 33.0428C7.61317 29.5245 11.9442 26.4397 18.3128 24.4804C22.1606 23.2946 22.022 21.341 21.34 17.0356C21.0672 15.3086 20.7592 13.3484 20.9 11.3464C21.0364 9.4236 21.934 7.3864 23.3618 5.7606C24.2832 4.71027 25.3999 3.85505 26.6737 3.21357C25.2701 2.86441 23.8256 2.67204 22.3663 2.64443ZM11.2089 38.0746C10.1057 37.3341 9.08149 36.4816 8.15256 35.531C8.44906 31.6403 13.941 28.5871 19.0916 27.0016C25.2934 25.0942 24.5828 20.5842 23.9558 16.6242C23.6918 14.9588 23.419 13.2362 23.54 11.5356C23.833 7.3974 27.8065 5.21258 30.6273 4.66949C31.3595 5.034 32.0707 5.44589 32.7558 5.90373C32.8491 5.96606 32.9419 6.02915 33.0339 6.09302C30.9808 7.66837 27.9985 11.0325 28.16 17.1874C28.206 18.9637 28.7751 20.6499 29.3775 22.4348L29.3788 22.4388L29.379 22.4394C30.6636 26.254 31.9922 30.1984 28.7628 36.0986C27.2719 38.8305 25.9734 39.9066 24.0656 41.2505C23.1986 41.3436 22.328 41.3777 21.4604 41.3535C23.5699 39.4124 26.0335 36.5692 25.7664 34.0592C25.663 33.1022 25.1592 31.791 23.1902 30.9154C21.2212 30.0398 19.2896 30.0112 17.446 30.8296C14.32 32.22 12.2535 35.7983 11.2089 38.0746ZM30.8 17.1258C30.65 11.4655 33.6901 8.77882 35.1699 7.81058C36.6181 9.15482 37.8534 10.714 38.8311 12.4342C36.8993 13.4916 34.76 15.5647 34.76 18.921C34.76 21.2948 35.739 23.3936 36.696 25.4198C37.6812 27.5331 38.6192 29.5461 38.621 31.9283C37.807 33.2912 36.824 34.5559 35.6895 35.6905C33.9011 37.4789 31.7891 38.8906 29.4789 39.8582C30.012 39.1656 30.5393 38.3567 31.0772 37.3746C34.8509 30.4848 33.211 25.5819 31.8932 21.6417L31.8802 21.6028C31.3192 19.9418 30.8352 18.5074 30.8 17.1258ZM40.2695 28.4072C39.8541 27.0161 39.2616 25.7405 38.7017 24.5352L38.6804 24.4892C37.796 22.5972 36.96 20.8086 36.96 18.921C36.96 16.4594 38.5708 15.0921 39.8086 14.4073C39.8347 14.4688 39.8607 14.5304 39.8862 14.5922C41.3516 18.1298 41.7351 22.0225 40.988 25.7779C40.8098 26.6738 40.5693 27.552 40.2695 28.4072ZM13.5032 39.3968C13.86 39.5711 14.2228 39.7347 14.5913 39.8872C15.6621 40.3309 16.7654 40.6752 17.8877 40.9192C20.3046 39.0228 23.318 35.9411 23.1462 34.3386L23.146 34.3373C23.1284 34.1758 23.082 33.7523 22.1232 33.3266C20.8494 32.7612 19.6724 32.7326 18.524 33.243C16.2108 34.2688 14.4371 37.3059 13.5032 39.3968ZM2.81611 24.6062C6.41971 23.3538 8.97167 20.3733 9.93293 16.204C11.4399 9.6546 12.7599 8.658 14.7993 7.5778C15.9195 6.98595 17.2552 6.27054 19.2474 2.84052C15.1327 3.43562 11.2911 5.34357 8.31686 8.31781C4.68741 11.9473 2.64583 16.8682 2.64 22.001C2.64 22.8757 2.69927 23.746 2.81611 24.6062Z" fill="url(#paint0_linear_573_17415)"/>
</g>
</g>
<defs>
<linearGradient id="paint0_linear_573_17415" x1="47.5596" y1="34.7808" x2="25.7422" y2="1.17796" gradientUnits="userSpaceOnUse">
<stop stop-color="#019C85"/>
<stop offset="1" stop-color="#BEDC7C"/>
</linearGradient>
<clipPath id="clip0_573_17415">
<rect width="44" height="44" fill="white"/>
</clipPath>
</defs>
</svg>
