<svg width="44" height="44" viewBox="0 0 44 44" fill="none" xmlns="http://www.w3.org/2000/svg">
<g clip-path="url(#clip0_573_17407)">
<mask id="mask0_573_17407" style="mask-type:luminance" maskUnits="userSpaceOnUse" x="0" y="0" width="44" height="45">
<path d="M44 0.000976562H0V44.001H44V0.000976562Z" fill="white"/>
</mask>
<g mask="url(#mask0_573_17407)">
<path d="M14.3754 17.3127C13.7329 15.9778 13.4464 14.4994 13.5439 13.0211C13.6413 11.5428 14.1192 10.1147 14.9313 8.87563C15.7434 7.63652 16.8621 6.62844 18.1788 5.94921C19.4954 5.26998 20.9653 4.94269 22.4457 4.99912C23.9263 5.05555 25.3668 5.49379 26.6281 6.27127C27.8891 7.04875 28.9278 8.13907 29.6432 9.43639C30.3586 10.7337 30.7267 12.194 30.7113 13.6754C30.6959 15.1569 30.2977 16.6092 29.5554 17.8913L22.621 29.9209L24.7 33.5223L32.6816 19.6975C34.257 16.8993 34.6649 13.5926 33.817 10.4953C32.9692 7.39804 30.9339 4.76022 28.1529 3.15451C25.3719 1.54881 22.0699 1.10482 18.9636 1.91896C15.8573 2.7331 13.1974 4.73963 11.5616 7.50294C10.6928 8.98752 10.1518 10.6409 9.975 12.3518C9.79816 14.0628 9.98958 15.7919 10.5364 17.4227C11.0925 17.3531 11.6523 17.3179 12.2128 17.3171L14.3754 17.3127Z" fill="url(#paint0_linear_573_17407)"/>
<path d="M42.3484 24.3083C41.4865 22.7954 40.3071 21.4869 38.8914 20.4733C37.4754 19.4596 35.8569 18.7648 34.1468 18.4365C33.9297 18.9553 33.6807 19.4601 33.401 19.9479L32.3142 21.8289C33.7975 21.92 35.2317 22.3943 36.4769 23.2052C37.7221 24.0162 38.7358 25.1364 39.4189 26.456C40.102 27.7757 40.4311 29.2502 40.3742 30.7352C40.3172 32.22 39.8763 33.6649 39.0942 34.9284C38.3121 36.1921 37.2156 37.2311 35.9121 37.9446C34.6084 38.6578 33.1421 39.0208 31.6562 38.9982C30.1703 38.9755 28.7157 38.5678 27.4344 37.8152C26.1531 37.0624 25.089 35.9901 24.3458 34.7033L17.4224 22.7133H13.2666L21.2262 36.5029C21.4999 36.9735 21.8034 37.4263 22.1348 37.8581L22.2008 37.9439C23.3345 39.4032 24.7885 40.5819 26.4508 41.3891C28.1129 42.1965 29.9385 42.6103 31.7862 42.5991C33.9266 42.5989 36.0292 42.0353 37.8827 40.965C39.7362 39.8947 41.2755 38.3553 42.3456 36.5018C43.4159 34.6481 43.9793 32.5456 43.9793 30.4052C43.9795 28.2648 43.4161 26.162 42.3462 24.3083H42.3484Z" fill="url(#paint1_linear_573_17407)"/>
<path d="M19.3937 35.1256C18.5887 36.3512 17.4834 37.3503 16.1831 38.0279C14.8829 38.7052 13.4308 39.0388 11.9652 38.9965C10.4995 38.9541 9.06914 38.5374 7.81012 37.7859C6.55111 37.0343 5.50538 35.9733 4.77247 34.7032C4.01849 33.3969 3.62157 31.9152 3.62154 30.4066C3.62154 28.8983 4.01845 27.4166 4.77241 26.1102C5.52639 24.8037 6.61084 23.7188 7.91689 22.9642C9.22292 22.2096 10.7045 21.812 12.2129 21.8112H26.0882L28.1606 18.212H12.2129C10.5978 18.1903 8.99456 18.4897 7.49614 19.0928C5.99774 19.6958 4.63407 20.5905 3.48431 21.725C2.33454 22.8593 1.4216 24.211 0.798484 25.701C0.175367 27.1913 -0.145508 28.7903 -0.145508 30.4055C-0.145508 32.0208 0.175367 33.6199 0.798484 35.11C1.4216 36.6003 2.33454 37.9517 3.48431 39.0861C4.63407 40.2206 5.99774 41.1153 7.49614 41.7184C8.99456 42.3214 10.5978 42.6208 12.2129 42.599C13.9598 42.6094 15.688 42.2395 17.2778 41.5155C18.8676 40.7915 20.2809 39.7304 21.4199 38.4058C21.064 37.9462 20.7391 37.4633 20.4475 36.9604L19.3937 35.1256Z" fill="url(#paint2_linear_573_17407)"/>
</g>
</g>
<defs>
<linearGradient id="paint0_linear_573_17407" x1="14.2324" y1="3.30314" x2="32.037" y2="25.0853" gradientUnits="userSpaceOnUse">
<stop stop-color="#B03B83"/>
<stop offset="0.56" stop-color="#E72E6C"/>
<stop offset="1" stop-color="#FFC400"/>
</linearGradient>
<linearGradient id="paint1_linear_573_17407" x1="22.1436" y1="19.9523" x2="41.3386" y2="40.7577" gradientUnits="userSpaceOnUse">
<stop stop-color="#D83B83"/>
<stop offset="1" stop-color="#6F4A9E"/>
</linearGradient>
<linearGradient id="paint2_linear_573_17407" x1="2.00708" y1="34.932" x2="27.6678" y2="23.5514" gradientUnits="userSpaceOnUse">
<stop stop-color="#9C2383"/>
<stop offset="1" stop-color="#E72E6C"/>
</linearGradient>
<clipPath id="clip0_573_17407">
<rect width="44" height="44" fill="white"/>
</clipPath>
</defs>
</svg>
