<svg width="1027" height="352" fill="none" xmlns="http://www.w3.org/2000/svg"><rect x="1" y="1" width="1025" height="350" rx="11" stroke="url(#a)" stroke-opacity=".3" stroke-width="2"/><rect x="10" y="78" width="96" height="60" rx="6" fill="#000" fill-opacity=".08"/><rect x="11" y="79" width="94" height="58" rx="5" stroke="url(#b)" stroke-opacity=".3" stroke-width="2"/><rect x="10" y="146" width="114" height="60" rx="6" fill="#000" fill-opacity=".08"/><rect x="11" y="147" width="112" height="58" rx="5" stroke="url(#c)" stroke-opacity=".3" stroke-width="2"/><rect x="10" y="214" width="149" height="60" rx="6" fill="#000" fill-opacity=".08"/><rect x="11" y="215" width="147" height="58" rx="5" stroke="url(#d)" stroke-opacity=".3" stroke-width="2"/><rect x="10" y="282" width="62" height="60" rx="6" fill="#000" fill-opacity=".08"/><rect x="11" y="283" width="60" height="58" rx="5" stroke="url(#e)" stroke-opacity=".3" stroke-width="2"/><rect x="80" y="282" width="62" height="60" rx="6" fill="#000" fill-opacity=".08"/><rect x="81" y="283" width="60" height="58" rx="5" stroke="url(#f)" stroke-opacity=".3" stroke-width="2"/><rect x="290" y="10" width="62" height="60" rx="6" fill="#000" fill-opacity=".08"/><rect x="291" y="11" width="60" height="58" rx="5" stroke="url(#g)" stroke-opacity=".3" stroke-width="2"/><rect x="324" y="78" width="62" height="60" rx="6" fill="#000" fill-opacity=".08"/><rect x="325" y="79" width="60" height="58" rx="5" stroke="url(#h)" stroke-opacity=".3" stroke-width="2"/><rect x="342" y="146" width="62" height="60" rx="6" fill="#000" fill-opacity=".08"/><rect x="343" y="147" width="60" height="58" rx="5" stroke="url(#i)" stroke-opacity=".3" stroke-width="2"/><rect x="307" y="214" width="62" height="60" rx="6" fill="#000" fill-opacity=".08"/><rect x="308" y="215" width="60" height="58" rx="5" stroke="url(#j)" stroke-opacity=".3" stroke-width="2"/><rect x="150" y="10" width="62" height="60" rx="6" fill="#000" fill-opacity=".08"/><rect x="151" y="11" width="60" height="58" rx="5" stroke="url(#k)" stroke-opacity=".3" stroke-width="2"/><rect x="184" y="78" width="62" height="60" rx="6" fill="#000" fill-opacity=".08"/><rect x="185" y="79" width="60" height="58" rx="5" stroke="url(#l)" stroke-opacity=".3" stroke-width="2"/><rect x="202" y="146" width="62" height="60" rx="6" fill="#000" fill-opacity=".08"/><rect x="203" y="147" width="60" height="58" rx="5" stroke="url(#m)" stroke-opacity=".3" stroke-width="2"/><rect x="167" y="214" width="62" height="60" rx="6" fill="#000" fill-opacity=".08"/><rect x="168" y="215" width="60" height="58" rx="5" stroke="url(#n)" stroke-opacity=".3" stroke-width="2"/><rect x="430" y="10" width="62" height="60" rx="6" fill="#000" fill-opacity=".08"/><rect x="431" y="11" width="60" height="58" rx="5" stroke="url(#o)" stroke-opacity=".3" stroke-width="2"/><rect x="464" y="78" width="62" height="60" rx="6" fill="#000" fill-opacity=".08"/><rect x="465" y="79" width="60" height="58" rx="5" stroke="url(#p)" stroke-opacity=".3" stroke-width="2"/><rect x="482" y="146" width="62" height="60" rx="6" fill="#000" fill-opacity=".08"/><rect x="483" y="147" width="60" height="58" rx="5" stroke="url(#q)" stroke-opacity=".3" stroke-width="2"/><rect x="447" y="214" width="62" height="60" rx="6" fill="#000" fill-opacity=".08"/><rect x="448" y="215" width="60" height="58" rx="5" stroke="url(#r)" stroke-opacity=".3" stroke-width="2"/><rect x="710" y="10" width="62" height="60" rx="6" fill="#000" fill-opacity=".08"/><rect x="711" y="11" width="60" height="58" rx="5" stroke="url(#s)" stroke-opacity=".3" stroke-width="2"/><rect x="744" y="78" width="62" height="60" rx="6" fill="#000" fill-opacity=".08"/><rect x="745" y="79" width="60" height="58" rx="5" stroke="url(#t)" stroke-opacity=".3" stroke-width="2"/><rect x="762" y="146" width="62" height="60" rx="6" fill="#000" fill-opacity=".08"/><rect x="763" y="147" width="60" height="58" rx="5" stroke="url(#u)" stroke-opacity=".3" stroke-width="2"/><rect x="727" y="214" width="62" height="60" rx="6" fill="#000" fill-opacity=".08"/><rect x="728" y="215" width="60" height="58" rx="5" stroke="url(#v)" stroke-opacity=".3" stroke-width="2"/><rect x="80" y="10" width="62" height="60" rx="6" fill="#000" fill-opacity=".08"/><rect x="81" y="11" width="60" height="58" rx="5" stroke="url(#w)" stroke-opacity=".3" stroke-width="2"/><rect x="114" y="78" width="62" height="60" rx="6" fill="#000" fill-opacity=".08"/><rect x="115" y="79" width="60" height="58" rx="5" stroke="url(#x)" stroke-opacity=".3" stroke-width="2"/><rect x="132" y="146" width="62" height="60" rx="6" fill="#000" fill-opacity=".08"/><rect x="133" y="147" width="60" height="58" rx="5" stroke="url(#y)" stroke-opacity=".3" stroke-width="2"/><rect x="150" y="282" width="62" height="60" rx="6" fill="#000" fill-opacity=".08"/><rect x="151" y="283" width="60" height="58" rx="5" stroke="url(#z)" stroke-opacity=".3" stroke-width="2"/><rect x="220" y="282" width="79" height="60" rx="6" fill="#000" fill-opacity=".08"/><rect x="221" y="283" width="77" height="58" rx="5" stroke="url(#A)" stroke-opacity=".3" stroke-width="2"/><rect x="360" y="10" width="62" height="60" rx="6" fill="#000" fill-opacity=".08"/><rect x="361" y="11" width="60" height="58" rx="5" stroke="url(#B)" stroke-opacity=".3" stroke-width="2"/><rect x="394" y="78" width="62" height="60" rx="6" fill="#000" fill-opacity=".08"/><rect x="395" y="79" width="60" height="58" rx="5" stroke="url(#C)" stroke-opacity=".3" stroke-width="2"/><rect x="412" y="146" width="62" height="60" rx="6" fill="#000" fill-opacity=".08"/><rect x="413" y="147" width="60" height="58" rx="5" stroke="url(#D)" stroke-opacity=".3" stroke-width="2"/><rect x="377" y="214" width="62" height="60" rx="6" fill="#000" fill-opacity=".08"/><rect x="378" y="215" width="60" height="58" rx="5" stroke="url(#E)" stroke-opacity=".3" stroke-width="2"/><rect x="640" y="10" width="62" height="60" rx="6" fill="#000" fill-opacity=".08"/><rect x="641" y="11" width="60" height="58" rx="5" stroke="url(#F)" stroke-opacity=".3" stroke-width="2"/><rect x="674" y="78" width="62" height="60" rx="6" fill="#000" fill-opacity=".08"/><rect x="675" y="79" width="60" height="58" rx="5" stroke="url(#G)" stroke-opacity=".3" stroke-width="2"/><rect x="692" y="146" width="62" height="60" rx="6" fill="#000" fill-opacity=".08"/><rect x="693" y="147" width="60" height="58" rx="5" stroke="url(#H)" stroke-opacity=".3" stroke-width="2"/><rect x="10" y="10" width="62" height="60" rx="6" fill="#000" fill-opacity=".08"/><rect x="11" y="11" width="60" height="58" rx="5" stroke="url(#I)" stroke-opacity=".3" stroke-width="2"/><rect x="657" y="214" width="62" height="60" rx="6" fill="#000" fill-opacity=".08"/><rect x="658" y="215" width="60" height="58" rx="5" stroke="url(#J)" stroke-opacity=".3" stroke-width="2"/><rect x="220" y="10" width="62" height="60" rx="6" fill="#000" fill-opacity=".08"/><rect x="221" y="11" width="60" height="58" rx="5" stroke="url(#K)" stroke-opacity=".3" stroke-width="2"/><rect x="254" y="78" width="62" height="60" rx="6" fill="#000" fill-opacity=".08"/><rect x="255" y="79" width="60" height="58" rx="5" stroke="url(#L)" stroke-opacity=".3" stroke-width="2"/><rect x="272" y="146" width="62" height="60" rx="6" fill="#000" fill-opacity=".08"/><rect x="273" y="147" width="60" height="58" rx="5" stroke="url(#M)" stroke-opacity=".3" stroke-width="2"/><rect x="237" y="214" width="62" height="60" rx="6" fill="#000" fill-opacity=".08"/><rect x="238" y="215" width="60" height="58" rx="5" stroke="url(#N)" stroke-opacity=".3" stroke-width="2"/><rect x="570" y="10" width="62" height="60" rx="6" fill="#000" fill-opacity=".08"/><rect x="571" y="11" width="60" height="58" rx="5" stroke="url(#O)" stroke-opacity=".3" stroke-width="2"/><rect x="604" y="78" width="62" height="60" rx="6" fill="#000" fill-opacity=".08"/><rect x="605" y="79" width="60" height="58" rx="5" stroke="url(#P)" stroke-opacity=".3" stroke-width="2"/><rect x="622" y="146" width="62" height="60" rx="6" fill="#000" fill-opacity=".08"/><rect x="623" y="147" width="60" height="58" rx="5" stroke="url(#Q)" stroke-opacity=".3" stroke-width="2"/><rect x="587" y="214" width="62" height="60" rx="6" fill="#000" fill-opacity=".08"/><rect x="588" y="215" width="60" height="58" rx="5" stroke="url(#R)" stroke-opacity=".3" stroke-width="2"/><rect x="850" y="10" width="62" height="60" rx="6" fill="#000" fill-opacity=".08"/><rect x="851" y="11" width="60" height="58" rx="5" stroke="url(#S)" stroke-opacity=".3" stroke-width="2"/><rect x="884" y="78" width="62" height="60" rx="6" fill="#000" fill-opacity=".08"/><rect x="885" y="79" width="60" height="58" rx="5" stroke="url(#T)" stroke-opacity=".3" stroke-width="2"/><rect x="884" y="282" width="62" height="60" rx="6" fill="#000" fill-opacity=".08"/><rect x="885" y="283" width="60" height="58" rx="5" stroke="url(#U)" stroke-opacity=".3" stroke-width="2"/><path d="M884 288a6 6 0 0 1 6-6h50a6 6 0 0 1 6 6v25h-62v-25Z" fill="#000" fill-opacity=".08"/><path d="M890 283h50a5 5 0 0 1 5 5v24h-60v-24a5 5 0 0 1 5-5Z" stroke="url(#V)" stroke-opacity=".3" stroke-width="2"/><rect x="902" y="146" width="115" height="60" rx="6" fill="#000" fill-opacity=".08"/><rect x="903" y="147" width="113" height="58" rx="5" stroke="url(#W)" stroke-opacity=".3" stroke-width="2"/><rect x="867" y="214" width="150" height="60" rx="6" fill="#000" fill-opacity=".08"/><rect x="868" y="215" width="148" height="58" rx="5" stroke="url(#X)" stroke-opacity=".3" stroke-width="2"/><rect x="954" y="78" width="63" height="60" rx="6" fill="#000" fill-opacity=".08"/><rect x="955" y="79" width="61" height="58" rx="5" stroke="url(#Y)" stroke-opacity=".3" stroke-width="2"/><rect x="954" y="313" width="63" height="29" rx="6" fill="#000" fill-opacity=".08"/><rect x="955" y="314" width="61" height="27" rx="5" stroke="url(#Z)" stroke-opacity=".3" stroke-width="2"/><rect x="920" y="10" width="97" height="60" rx="6" fill="#000" fill-opacity=".08"/><rect x="921" y="11" width="95" height="58" rx="5" stroke="url(#aa)" stroke-opacity=".3" stroke-width="2"/><rect x="500" y="10" width="62" height="60" rx="6" fill="#000" fill-opacity=".08"/><rect x="501" y="11" width="60" height="58" rx="5" stroke="url(#ab)" stroke-opacity=".3" stroke-width="2"/><rect x="534" y="78" width="62" height="60" rx="6" fill="#000" fill-opacity=".08"/><rect x="535" y="79" width="60" height="58" rx="5" stroke="url(#ac)" stroke-opacity=".3" stroke-width="2"/><rect x="552" y="146" width="62" height="60" rx="6" fill="#000" fill-opacity=".08"/><rect x="553" y="147" width="60" height="58" rx="5" stroke="url(#ad)" stroke-opacity=".3" stroke-width="2"/><rect x="517" y="214" width="62" height="60" rx="6" fill="#000" fill-opacity=".08"/><rect x="518" y="215" width="60" height="58" rx="5" stroke="url(#ae)" stroke-opacity=".3" stroke-width="2"/><rect x="780" y="10" width="62" height="60" rx="6" fill="#000" fill-opacity=".08"/><rect x="781" y="11" width="60" height="58" rx="5" stroke="url(#af)" stroke-opacity=".3" stroke-width="2"/><rect x="814" y="78" width="62" height="60" rx="6" fill="#000" fill-opacity=".08"/><rect x="815" y="79" width="60" height="58" rx="5" stroke="url(#ag)" stroke-opacity=".3" stroke-width="2"/><rect x="814" y="313" width="62" height="29" rx="6" fill="#000" fill-opacity=".08"/><rect x="815" y="314" width="60" height="27" rx="5" stroke="url(#ah)" stroke-opacity=".3" stroke-width="2"/><rect x="832" y="146" width="62" height="60" rx="6" fill="#000" fill-opacity=".08"/><rect x="833" y="147" width="60" height="58" rx="5" stroke="url(#ai)" stroke-opacity=".3" stroke-width="2"/><rect x="797" y="214" width="62" height="60" rx="6" fill="#000" fill-opacity=".08"/><rect x="798" y="215" width="60" height="58" rx="5" stroke="url(#aj)" stroke-opacity=".3" stroke-width="2"/><rect x="744" y="282" width="62" height="60" rx="6" fill="#000" fill-opacity=".08"/><rect x="745" y="283" width="60" height="58" rx="5" stroke="url(#ak)" stroke-opacity=".3" stroke-width="2"/><rect x="657" y="282" width="79" height="60" rx="6" fill="#000" fill-opacity=".08"/><rect x="658" y="283" width="77" height="58" rx="5" stroke="url(#al)" stroke-opacity=".3" stroke-width="2"/><rect x="307" y="282" width="342" height="60" rx="6" fill="#000" fill-opacity=".08"/><rect x="308" y="283" width="340" height="58" rx="5" stroke="url(#am)" stroke-opacity=".3" stroke-width="2"/><path d="M22.497 117.815h-.97v.985h.963v4.19c0 1.415.349 2.072 2.051 2.072.246 0 .492-.028.595-.048v-.944c-.096.014-.185.014-.301.014-.882 0-1.169-.219-1.169-1.08V118.8h1.422v-.985h-1.422v-1.791h-1.169v1.791Zm8.265 6.289h.034V125h1.128v-4.956c0-1.511-1.114-2.345-2.646-2.345-1.736 0-2.59.916-2.666 2.174h1.108c.068-.718.595-1.189 1.517-1.189.971 0 1.518.519 1.518 1.462v.732H28.86c-1.647.007-2.522.8-2.522 2.058 0 1.319.957 2.18 2.345 2.18 1.06 0 1.715-.43 2.078-1.012Zm-1.764.035c-.752 0-1.456-.397-1.456-1.244 0-.65.424-1.115 1.408-1.115h1.805v.834c0 .896-.752 1.525-1.757 1.525Zm8.285.977c1.73 0 2.864-1.285 2.864-3.363v-.697c0-2.16-1.175-3.35-2.85-3.35-.91 0-1.743.472-2.112 1.094h-.035v-3.623h-1.175V125h1.127v-1.08h.035c.423.738 1.12 1.196 2.146 1.196Zm-.143-1.025c-1.258 0-2.003-.855-2.003-2.413v-.554c0-1.559.752-2.393 2.003-2.393 1.073 0 1.825.841 1.825 2.393v.567c0 1.538-.745 2.4-1.825 2.4ZM21.759 189.732c0 1.914 1.073 3.384 2.98 3.384 1.648 0 2.55-.861 2.79-2.092h-1.156c-.13.575-.656 1.053-1.552 1.053-1.148 0-1.886-.93-1.886-2.338v-.67c0-1.449.69-2.331 1.88-2.331.779 0 1.346.554 1.503 1.162h1.156c-.062-1.1-1.074-2.201-2.735-2.201-1.873 0-2.98 1.388-2.98 3.322v.711Zm11.409 2.372h.034V193h1.128v-4.956c0-1.511-1.114-2.345-2.645-2.345-1.737 0-2.591.916-2.666 2.174h1.107c.068-.718.595-1.189 1.518-1.189.97 0 1.517.519 1.517 1.462v.732h-1.893c-1.648.007-2.523.8-2.523 2.058 0 1.319.957 2.18 2.345 2.18 1.06 0 1.716-.43 2.078-1.012Zm-1.764.035c-.752 0-1.456-.397-1.456-1.244 0-.65.424-1.115 1.408-1.115h1.805v.834c0 .896-.752 1.525-1.757 1.525Zm8.21.977c1.689 0 2.864-1.278 2.864-3.377v-.663c0-2.126-1.196-3.37-2.816-3.37-.964 0-1.702.465-2.119 1.142h-.034v-1.033H36.38v9.571h1.176v-3.343h.034c.403.636 1.107 1.073 2.023 1.073Zm-.116-1.025c-1.224 0-1.962-.971-1.962-2.441v-.54c0-1.428.732-2.392 1.928-2.392 1.162 0 1.832.888 1.832 2.399v.533c0 1.579-.725 2.441-1.798 2.441Zm4.498-4.218c0 1.299 1.1 1.709 2.44 1.982 1.005.199 1.805.356 1.805 1.169 0 .609-.499 1.128-1.6 1.128-.956 0-1.517-.43-1.62-1.087h-1.148c0 1.292 1.1 2.051 2.68 2.051 1.688 0 2.844-.806 2.844-2.235 0-1.402-1.135-1.764-2.482-2.003-.82-.15-1.77-.321-1.77-1.128 0-.711.615-1.087 1.47-1.087 1.12 0 1.462.643 1.503 1.19h1.094c0-1.19-.868-2.154-2.557-2.154-1.38 0-2.659.656-2.659 2.174ZM53.922 193h1.169v-9.823h-1.17V193Zm6.118-7.301c-2.01 0-3.09 1.456-3.09 3.377v.643c0 1.948 1.073 3.397 3.09 3.397s3.076-1.449 3.076-3.397v-.643c0-1.921-1.066-3.377-3.076-3.377Zm0 1.005c1.23 0 1.9.943 1.9 2.413v.561c0 1.469-.67 2.42-1.9 2.42-1.237 0-1.914-.957-1.914-2.42v-.561c0-1.47.677-2.413 1.914-2.413Zm4.607 3.028c0 1.914 1.074 3.384 2.98 3.384 1.648 0 2.55-.861 2.79-2.092h-1.155c-.13.575-.656 1.053-1.552 1.053-1.148 0-1.887-.93-1.887-2.338v-.67c0-1.449.69-2.331 1.88-2.331.78 0 1.347.554 1.504 1.162h1.155c-.061-1.1-1.073-2.201-2.734-2.201-1.873 0-2.98 1.388-2.98 3.322v.711Zm8.607.677.663-.724 2.44 3.315H77.8l-3.015-4.061 2.837-3.124h-1.456l-2.864 3.179h-.048v-5.817h-1.176V193h1.176v-2.591Z" fill="#000"/><circle cx="23.5" cy="160.5" r="2.5" fill="#000"/><path d="M21.752 255.873c0 1.299 1.1 1.709 2.44 1.982 1.005.199 1.805.356 1.805 1.169 0 .609-.499 1.128-1.6 1.128-.957 0-1.517-.43-1.62-1.087H21.63c0 1.292 1.1 2.051 2.68 2.051 1.688 0 2.843-.806 2.843-2.235 0-1.402-1.134-1.764-2.481-2.003-.82-.15-1.77-.321-1.77-1.128 0-.711.615-1.087 1.47-1.087 1.12 0 1.462.643 1.503 1.19h1.094c0-1.19-.868-2.154-2.557-2.154-1.38 0-2.659.656-2.659 2.174ZM28.848 261h1.175v-4.375c0-.984.534-1.859 1.77-1.859 1.054 0 1.758.615 1.758 1.825V261h1.176v-4.607c0-1.75-1.094-2.694-2.578-2.694-1.162 0-1.825.609-2.091 1.067h-.035v-3.589h-1.175V261Zm7.772-8.914c0 .417.335.745.752.745a.75.75 0 0 0 .759-.745.751.751 0 0 0-.759-.752.745.745 0 0 0-.752.752Zm.164 8.914h1.176v-7.185h-1.176V261Zm3.801 0h1.176v-6.2h1.408v-.985h-1.415v-.622c0-.875.376-1.128 1.155-1.128.178 0 .267.014.37.028v-.964a3.025 3.025 0 0 0-.527-.041c-1.477 0-2.167.636-2.167 2.01v.717h-.97v.985h.97v6.2Zm4.826-7.185h-.97v.985h.963v4.19c0 1.415.349 2.072 2.051 2.072.246 0 .492-.028.595-.048v-.944c-.096.014-.185.014-.301.014-.882 0-1.169-.219-1.169-1.08V254.8h1.422v-.985H46.58v-1.791h-1.169v1.791ZM22.497 329h1.176v-6.2h1.408v-.985h-1.415v-.622c0-.875.376-1.128 1.155-1.128.178 0 .267.014.37.028v-.964a3.025 3.025 0 0 0-.527-.041c-1.477 0-2.167.636-2.167 2.01v.717h-.97v.985h.97v6.2Zm4.375 0h1.176v-4.375c0-.984.533-1.859 1.77-1.859 1.046 0 1.757.615 1.757 1.825V329h1.176v-4.607c0-1.75-1.1-2.694-2.577-2.694-1.17 0-1.832.609-2.099 1.067h-.034v-.951h-1.169V329ZM90.446 325.732c0 1.914 1.073 3.384 2.98 3.384 1.648 0 2.55-.861 2.79-2.092H95.06c-.13.575-.657 1.053-1.552 1.053-1.149 0-1.887-.93-1.887-2.338v-.67c0-1.449.69-2.331 1.88-2.331.78 0 1.347.554 1.504 1.162h1.155c-.061-1.1-1.073-2.201-2.734-2.201-1.873 0-2.98 1.388-2.98 3.322v.711Zm10.213-4.033c-2.01 0-3.09 1.456-3.09 3.377v.643c0 1.948 1.074 3.397 3.09 3.397 2.017 0 3.076-1.449 3.076-3.397v-.643c0-1.921-1.066-3.377-3.076-3.377Zm0 1.005c1.231 0 1.901.943 1.901 2.413v.561c0 1.469-.67 2.42-1.901 2.42-1.237 0-1.914-.957-1.914-2.42v-.561c0-1.47.677-2.413 1.914-2.413Zm4.895 6.296h1.175v-4.375c0-.984.534-1.859 1.771-1.859 1.046 0 1.757.615 1.757 1.825V329h1.176v-4.607c0-1.75-1.101-2.694-2.578-2.694-1.168 0-1.832.609-2.098 1.067h-.034v-.951h-1.169V329Zm8.299-7.185h-.971v.985h.964v4.19c0 1.415.348 2.072 2.05 2.072.247 0 .493-.028.595-.048v-.944c-.095.014-.184.014-.301.014-.881 0-1.169-.219-1.169-1.08V322.8h1.422v-.985h-1.422v-1.791h-1.168v1.791Zm4.402 7.185h1.183v-4.45c0-.971.396-1.764 1.667-1.764.219 0 .452.007.575.027v-1.073a3.246 3.246 0 0 0-.445-.034c-1.018 0-1.558.561-1.77.991h-.034v-.882h-1.176V329Zm7.533-7.301c-2.01 0-3.09 1.456-3.09 3.377v.643c0 1.948 1.073 3.397 3.09 3.397s3.076-1.449 3.076-3.397v-.643c0-1.921-1.066-3.377-3.076-3.377Zm0 1.005c1.231 0 1.9.943 1.9 2.413v.561c0 1.469-.669 2.42-1.9 2.42-1.237 0-1.914-.957-1.914-2.42v-.561c0-1.47.677-2.413 1.914-2.413ZM130.73 329h1.169v-9.823h-1.169V329ZM667.759 325.732c0 1.914 1.073 3.384 2.98 3.384 1.648 0 2.55-.861 2.789-2.092h-1.155c-.13.575-.656 1.053-1.552 1.053-1.148 0-1.886-.93-1.886-2.338v-.67c0-1.449.69-2.331 1.879-2.331.78 0 1.347.554 1.504 1.162h1.156c-.062-1.1-1.074-2.201-2.735-2.201-1.873 0-2.98 1.388-2.98 3.322v.711Zm10.213-4.033c-2.01 0-3.09 1.456-3.09 3.377v.643c0 1.948 1.073 3.397 3.09 3.397 2.016 0 3.076-1.449 3.076-3.397v-.643c0-1.921-1.067-3.377-3.076-3.377Zm0 1.005c1.23 0 1.9.943 1.9 2.413v.561c0 1.469-.67 2.42-1.9 2.42-1.238 0-1.914-.957-1.914-2.42v-.561c0-1.47.676-2.413 1.914-2.413Zm4.894 6.296h1.176v-4.553c0-1.087.69-1.688 1.572-1.688.978 0 1.566.601 1.566 1.702V329h1.169v-4.539c0-.998.567-1.702 1.586-1.702 1.025 0 1.551.677 1.551 1.593V329h1.169v-4.888c0-1.476-.895-2.413-2.413-2.413-1.169 0-1.928.54-2.201 1.155h-.055c-.28-.704-.95-1.155-2.071-1.155-.95 0-1.586.506-1.818.998h-.062v-.882h-1.169V329Zm11.854 0h1.176v-4.553c0-1.087.69-1.688 1.572-1.688.977 0 1.565.601 1.565 1.702V329h1.169v-4.539c0-.998.568-1.702 1.586-1.702 1.025 0 1.552.677 1.552 1.593V329h1.169v-4.888c0-1.476-.896-2.413-2.413-2.413-1.169 0-1.928.54-2.201 1.155h-.055c-.28-.704-.95-1.155-2.071-1.155-.951 0-1.586.506-1.819.998h-.061v-.882h-1.169V329Zm15.866-.896h.034V329h1.128v-4.956c0-1.511-1.114-2.345-2.645-2.345-1.737 0-2.591.916-2.666 2.174h1.107c.068-.718.595-1.189 1.518-1.189.97 0 1.517.519 1.517 1.462v.732h-1.893c-1.648.007-2.523.8-2.523 2.058 0 1.319.957 2.18 2.345 2.18 1.059 0 1.716-.43 2.078-1.012Zm-1.764.035c-.752 0-1.456-.397-1.456-1.244 0-.65.424-1.115 1.408-1.115h1.805v.834c0 .896-.752 1.525-1.757 1.525Zm4.956.861h1.176v-4.375c0-.984.533-1.859 1.771-1.859 1.046 0 1.756.615 1.756 1.825V329h1.176v-4.607c0-1.75-1.1-2.694-2.577-2.694-1.169 0-1.832.609-2.099 1.067h-.034v-.951h-1.169V329Zm10.446-7.294c-1.812 0-2.871 1.422-2.871 3.377v.649c0 2.003.998 3.377 2.871 3.377.964 0 1.715-.451 2.119-1.189h.027V329h1.128v-9.823h-1.176v3.636h-.034c-.362-.635-1.114-1.107-2.064-1.107Zm.164 1.025c1.21 0 1.955.944 1.955 2.393v.574c0 1.525-.732 2.386-1.935 2.386-1.087 0-1.873-.793-1.873-2.393v-.567c0-1.6.786-2.393 1.853-2.393ZM758.849 321.699c-2.01 0-3.09 1.456-3.09 3.377v.643c0 1.948 1.073 3.397 3.09 3.397 2.016 0 3.076-1.449 3.076-3.397v-.643c0-1.921-1.067-3.377-3.076-3.377Zm0 1.005c1.23 0 1.9.943 1.9 2.413v.561c0 1.469-.67 2.42-1.9 2.42-1.238 0-1.914-.957-1.914-2.42v-.561c0-1.47.676-2.413 1.914-2.413Zm8.148 6.412c1.689 0 2.864-1.278 2.864-3.377v-.663c0-2.126-1.196-3.37-2.816-3.37-.964 0-1.702.465-2.119 1.142h-.034v-1.033h-1.128v9.571h1.175v-3.343h.035c.403.636 1.107 1.073 2.023 1.073Zm-.116-1.025c-1.224 0-1.962-.971-1.962-2.441v-.54c0-1.428.731-2.392 1.928-2.392 1.162 0 1.832.888 1.832 2.399v.533c0 1.579-.725 2.441-1.798 2.441Zm5.243-6.276h-.971v.985h.964v4.19c0 1.415.349 2.072 2.051 2.072.246 0 .492-.028.595-.048v-.944a2.027 2.027 0 0 1-.301.014c-.882 0-1.169-.219-1.169-1.08V322.8h1.422v-.985h-1.422v-1.791h-1.169v1.791Zm4.307-1.729c0 .417.335.745.752.745a.75.75 0 1 0 0-1.497.745.745 0 0 0-.752.752Zm.164 8.914h1.176v-7.185h-1.176V329Zm6.152-7.301c-2.01 0-3.09 1.456-3.09 3.377v.643c0 1.948 1.073 3.397 3.09 3.397s3.076-1.449 3.076-3.397v-.643c0-1.921-1.066-3.377-3.076-3.377Zm0 1.005c1.231 0 1.9.943 1.9 2.413v.561c0 1.469-.669 2.42-1.9 2.42-1.237 0-1.914-.957-1.914-2.42v-.561c0-1.47.677-2.413 1.914-2.413Zm4.895 6.296h1.175v-4.375c0-.984.534-1.859 1.771-1.859 1.046 0 1.757.615 1.757 1.825V329h1.176v-4.607c0-1.75-1.101-2.694-2.578-2.694-1.169 0-1.832.609-2.098 1.067h-.034v-.951h-1.169V329ZM919 300h-7l3.5-8 3.5 8ZM911 324h7l-3.5 8-3.5-8ZM849 324v7l-8-3.5 8-3.5ZM982 331v-7l8 3.5-8 3.5ZM167.392 321.699c-2.01 0-3.09 1.456-3.09 3.377v.643c0 1.948 1.073 3.397 3.09 3.397 2.016 0 3.076-1.449 3.076-3.397v-.643c0-1.921-1.067-3.377-3.076-3.377Zm0 1.005c1.23 0 1.9.943 1.9 2.413v.561c0 1.469-.67 2.42-1.9 2.42-1.238 0-1.914-.957-1.914-2.42v-.561c0-1.47.676-2.413 1.914-2.413Zm8.148 6.412c1.689 0 2.864-1.278 2.864-3.377v-.663c0-2.126-1.196-3.37-2.816-3.37-.964 0-1.702.465-2.119 1.142h-.034v-1.033h-1.128v9.571h1.175v-3.343h.035c.403.636 1.107 1.073 2.023 1.073Zm-.116-1.025c-1.224 0-1.962-.971-1.962-2.441v-.54c0-1.428.731-2.392 1.928-2.392 1.162 0 1.832.888 1.832 2.399v.533c0 1.579-.725 2.441-1.798 2.441Zm5.243-6.276h-.971v.985h.964v4.19c0 1.415.349 2.072 2.051 2.072.246 0 .492-.028.595-.048v-.944c-.096.014-.185.014-.301.014-.882 0-1.169-.219-1.169-1.08V322.8h1.422v-.985h-1.422v-1.791h-1.169v1.791Zm4.307-1.729c0 .417.335.745.752.745a.75.75 0 1 0 0-1.497.745.745 0 0 0-.752.752Zm.164 8.914h1.175v-7.185h-1.175V329Zm6.152-7.301c-2.01 0-3.09 1.456-3.09 3.377v.643c0 1.948 1.073 3.397 3.09 3.397s3.076-1.449 3.076-3.397v-.643c0-1.921-1.066-3.377-3.076-3.377Zm0 1.005c1.231 0 1.9.943 1.9 2.413v.561c0 1.469-.669 2.42-1.9 2.42-1.237 0-1.914-.957-1.914-2.42v-.561c0-1.47.677-2.413 1.914-2.413Zm4.895 6.296h1.175v-4.375c0-.984.534-1.859 1.771-1.859 1.046 0 1.757.615 1.757 1.825V329h1.175v-4.607c0-1.75-1.1-2.694-2.577-2.694-1.169 0-1.832.609-2.098 1.067h-.034v-.951h-1.169V329ZM229.194 325.732c0 1.914 1.074 3.384 2.981 3.384 1.647 0 2.55-.861 2.789-2.092h-1.155c-.13.575-.657 1.053-1.552 1.053-1.149 0-1.887-.93-1.887-2.338v-.67c0-1.449.691-2.331 1.88-2.331.779 0 1.347.554 1.504 1.162h1.155c-.061-1.1-1.073-2.201-2.734-2.201-1.873 0-2.981 1.388-2.981 3.322v.711Zm10.213-4.033c-2.01 0-3.09 1.456-3.09 3.377v.643c0 1.948 1.074 3.397 3.09 3.397 2.017 0 3.076-1.449 3.076-3.397v-.643c0-1.921-1.066-3.377-3.076-3.377Zm0 1.005c1.231 0 1.901.943 1.901 2.413v.561c0 1.469-.67 2.42-1.901 2.42-1.237 0-1.914-.957-1.914-2.42v-.561c0-1.47.677-2.413 1.914-2.413Zm4.895 6.296h1.176v-4.553c0-1.087.69-1.688 1.572-1.688.977 0 1.565.601 1.565 1.702V329h1.169v-4.539c0-.998.568-1.702 1.586-1.702 1.026 0 1.552.677 1.552 1.593V329h1.169v-4.888c0-1.476-.896-2.413-2.413-2.413-1.169 0-1.928.54-2.201 1.155h-.055c-.28-.704-.95-1.155-2.071-1.155-.951 0-1.586.506-1.819.998h-.061v-.882h-1.169V329Zm11.853 0h1.176v-4.553c0-1.087.69-1.688 1.572-1.688.978 0 1.566.601 1.566 1.702V329h1.169v-4.539c0-.998.567-1.702 1.586-1.702 1.025 0 1.551.677 1.551 1.593V329h1.169v-4.888c0-1.476-.895-2.413-2.413-2.413-1.169 0-1.927.54-2.201 1.155h-.055c-.28-.704-.95-1.155-2.071-1.155-.95 0-1.586.506-1.818.998h-.062v-.882h-1.169V329Zm15.866-.896h.035V329h1.128v-4.956c0-1.511-1.115-2.345-2.646-2.345-1.736 0-2.591.916-2.666 2.174h1.107c.069-.718.595-1.189 1.518-1.189.971 0 1.518.519 1.518 1.462v.732h-1.894c-1.647.007-2.522.8-2.522 2.058 0 1.319.957 2.18 2.344 2.18 1.06 0 1.716-.43 2.078-1.012Zm-1.763.035c-.752 0-1.456-.397-1.456-1.244 0-.65.424-1.115 1.408-1.115h1.805v.834c0 .896-.752 1.525-1.757 1.525Zm4.956.861h1.176v-4.375c0-.984.533-1.859 1.77-1.859 1.046 0 1.757.615 1.757 1.825V329h1.176v-4.607c0-1.75-1.101-2.694-2.577-2.694-1.169 0-1.832.609-2.099 1.067h-.034v-.951h-1.169V329Zm10.445-7.294c-1.811 0-2.871 1.422-2.871 3.377v.649c0 2.003.998 3.377 2.871 3.377.964 0 1.716-.451 2.119-1.189h.028V329h1.128v-9.823h-1.176v3.636h-.034c-.363-.635-1.115-1.107-2.065-1.107Zm.164 1.025c1.21 0 1.955.944 1.955 2.393v.574c0 1.525-.731 2.386-1.934 2.386-1.087 0-1.873-.793-1.873-2.393v-.567c0-1.6.786-2.393 1.852-2.393ZM971.362 49.706c-1.811 0-2.871 1.422-2.871 3.377v.65c0 2.002.998 3.376 2.871 3.376.964 0 1.716-.45 2.119-1.19h.028V57h1.128v-9.823h-1.176v3.636h-.034c-.363-.635-1.115-1.107-2.065-1.107Zm.164 1.025c1.21 0 1.955.944 1.955 2.393v.574c0 1.525-.731 2.386-1.934 2.386-1.087 0-1.873-.793-1.873-2.393v-.567c0-1.6.786-2.393 1.852-2.393Zm7.951 6.385c1.585 0 2.536-.882 2.809-2.071h-1.169c-.232.67-.779 1.087-1.613 1.087-1.169 0-1.866-.937-1.866-2.304v-.13h4.744v-.67c0-1.975-1.08-3.329-2.96-3.329-1.887 0-2.96 1.354-2.96 3.247v.807c0 2.044 1.142 3.363 3.015 3.363Zm-1.839-4.368v-.02c0-1.135.697-2.044 1.791-2.044 1.073 0 1.777.902 1.777 2.044v.02h-3.568ZM984.207 57h1.169v-9.823h-1.169V57Zm6.043.116c1.586 0 2.536-.882 2.81-2.071h-1.169c-.233.67-.78 1.087-1.614 1.087-1.169 0-1.866-.937-1.866-2.304v-.13h4.744v-.67c0-1.975-1.08-3.329-2.96-3.329-1.886 0-2.96 1.354-2.96 3.247v.807c0 2.044 1.142 3.363 3.015 3.363Zm-1.839-4.368v-.02c0-1.135.697-2.044 1.791-2.044 1.073 0 1.777.902 1.777 2.044v.02h-3.568Zm6.973-2.933h-.971v.985h.964v4.19c0 1.415.349 2.072 2.051 2.072.246 0 .492-.028.594-.048v-.944c-.095.014-.184.014-.3.014-.882 0-1.169-.219-1.169-1.08V50.8h1.422v-.985h-1.422v-1.79h-1.169v1.79Zm6.976 7.301c1.59 0 2.54-.882 2.81-2.071H1004c-.23.67-.78 1.087-1.61 1.087-1.17 0-1.87-.937-1.87-2.304v-.13h4.75v-.67c0-1.975-1.08-3.329-2.96-3.329-1.89 0-2.961 1.354-2.961 3.247v.807c0 2.044 1.141 3.363 3.011 3.363Zm-1.84-4.368v-.02c0-1.135.7-2.044 1.8-2.044 1.07 0 1.77.902 1.77 2.044v.02h-3.57ZM969.503 193h1.183v-4.45c0-.971.396-1.764 1.668-1.764.218 0 .451.007.574.027v-1.073a3.246 3.246 0 0 0-.445-.034c-1.018 0-1.558.561-1.77.991h-.034v-.882h-1.176V193Zm7.458.116c1.586 0 2.536-.882 2.81-2.071h-1.169c-.233.67-.78 1.087-1.614 1.087-1.169 0-1.866-.937-1.866-2.304v-.13h4.744v-.67c0-1.975-1.08-3.329-2.96-3.329-1.886 0-2.96 1.354-2.96 3.247v.807c0 2.044 1.142 3.363 3.015 3.363Zm-1.839-4.368v-.02c0-1.135.697-2.044 1.791-2.044 1.073 0 1.777.902 1.777 2.044v.02h-3.568Zm6.973-2.933h-.971v.985h.964v4.19c0 1.415.349 2.072 2.051 2.072.246 0 .492-.028.594-.048v-.944c-.095.014-.184.014-.3.014-.882 0-1.169-.219-1.169-1.08V186.8h1.422v-.985h-1.422v-1.791h-1.169v1.791Zm9.994 0h-1.183v4.451c0 1.141-.724 1.791-1.757 1.791-.943 0-1.715-.431-1.715-1.771v-4.471h-1.183v4.806c0 1.648 1.06 2.495 2.543 2.495 1.148 0 1.825-.492 2.078-1.059h.048V193h1.169v-7.185Zm2.092 7.185h1.182v-4.45c0-.971.397-1.764 1.668-1.764.219 0 .451.007.574.027v-1.073a3.22 3.22 0 0 0-.444-.034c-1.018 0-1.558.561-1.77.991h-.035v-.882h-1.175V193Zm5.004 0h1.175v-4.375c0-.984.53-1.859 1.77-1.859 1.05 0 1.76.615 1.76 1.825V193h1.17v-4.607c0-1.75-1.1-2.694-2.57-2.694-1.17 0-1.84.609-2.1 1.067h-.04v-.951h-1.165V193ZM979.121 255.873c0 1.299 1.101 1.709 2.441 1.982 1.004.199 1.804.356 1.804 1.169 0 .609-.499 1.128-1.599 1.128-.957 0-1.518-.43-1.621-1.087h-1.148c0 1.292 1.101 2.051 2.68 2.051 1.688 0 2.843-.806 2.843-2.235 0-1.402-1.134-1.764-2.481-2.003-.82-.15-1.77-.321-1.77-1.128 0-.711.615-1.087 1.469-1.087 1.121 0 1.463.643 1.504 1.19h1.094c0-1.19-.868-2.154-2.557-2.154-1.381 0-2.659.656-2.659 2.174Zm7.096 5.127h1.176v-4.375c0-.984.533-1.859 1.77-1.859 1.053 0 1.757.615 1.757 1.825V261h1.176v-4.607c0-1.75-1.094-2.694-2.577-2.694-1.163 0-1.826.609-2.092 1.067h-.034v-3.589h-1.176V261Zm7.772-8.914c0 .417.335.745.752.745a.75.75 0 0 0 .759-.745.751.751 0 0 0-.759-.752.745.745 0 0 0-.752.752Zm.164 8.914h1.176v-7.185h-1.176V261Zm3.801 0h1.176v-6.2h1.41v-.985h-1.417v-.622c0-.875.376-1.128 1.157-1.128.18 0 .26.014.37.028v-.964a3.133 3.133 0 0 0-.53-.041c-1.475 0-2.166.636-2.166 2.01v.717h-.971v.985h.971v6.2Zm4.826-7.185h-.97v.985h.96v4.19c0 1.415.35 2.072 2.05 2.072.25 0 .5-.028.6-.048v-.944c-.1.014-.19.014-.3.014-.88 0-1.17-.219-1.17-1.08V254.8h1.42v-.985h-1.42v-1.791h-1.17v1.791ZM670.879 298.251v2.167h-.923c-1.032 0-1.873.807-1.873 1.846 0 1.039.841 1.88 1.873 1.88a1.878 1.878 0 0 0 1.873-1.88v-.916h2.126v.916c0 1.039.841 1.88 1.873 1.88a1.878 1.878 0 0 0 1.873-1.88c0-1.039-.841-1.846-1.873-1.846h-.93v-2.167h.93c1.032 0 1.873-.807 1.873-1.846 0-1.039-.841-1.88-1.873-1.88a1.878 1.878 0 0 0-1.873 1.88v.923h-2.126v-.923c0-1.039-.841-1.88-1.873-1.88a1.878 1.878 0 0 0-1.873 1.88c0 1.039.841 1.846 1.873 1.846h.923Zm-.916-.916a.93.93 0 0 1-.007-1.859.93.93 0 0 1 .923.936v.923h-.916Zm5.858 0h-.923v-.923c0-.519.424-.936.93-.936a.93.93 0 0 1-.007 1.859Zm-3.992 3.09v-2.181h2.126v2.181h-2.126Zm-1.866.902h.916v.93a.93.93 0 0 1-.923.93.93.93 0 0 1 .007-1.86Zm5.858 0a.93.93 0 0 1 .007 1.86.935.935 0 0 1-.93-.93v-.93h.923ZM759.578 294.689h-2.406a.569.569 0 0 0-.581.561c0 .314.26.554.581.554h2.14a.37.37 0 0 1 .362.232l3.24 7.26c.212.472.54.683 1.046.683h2.413a.572.572 0 0 0 .581-.56.567.567 0 0 0-.581-.554h-2.126c-.198 0-.314-.075-.39-.232l-3.226-7.253a1.118 1.118 0 0 0-1.053-.691Zm6.795 0h-3.11c-.328 0-.575.24-.575.554 0 .315.247.554.575.554h3.11c.328 0 .581-.239.581-.554 0-.314-.253-.554-.581-.554ZM194.578 294.689h-2.406a.569.569 0 0 0-.581.561c0 .314.26.554.581.554h2.14a.37.37 0 0 1 .362.232l3.24 7.26c.212.472.54.683 1.046.683h2.413a.572.572 0 0 0 .581-.56.567.567 0 0 0-.581-.554h-2.126c-.198 0-.314-.075-.39-.232l-3.226-7.253a1.118 1.118 0 0 0-1.053-.691Zm6.795 0h-3.11c-.328 0-.575.24-.575.554 0 .315.247.554.575.554h3.11c.328 0 .581-.239.581-.554 0-.314-.253-.554-.581-.554ZM122.801 298.695a.557.557 0 0 0-.171.404c0 .328.253.574.574.574a.586.586 0 0 0 .41-.164l3.555-3.575 3.548 3.575a.599.599 0 0 0 .41.164.56.56 0 0 0 .574-.574.58.58 0 0 0-.164-.404l-3.951-3.971a.55.55 0 0 0-.417-.185.576.576 0 0 0-.424.185l-3.944 3.971ZM281.879 298.251v2.167h-.923c-1.032 0-1.873.807-1.873 1.846 0 1.039.841 1.88 1.873 1.88a1.878 1.878 0 0 0 1.873-1.88v-.916h2.126v.916c0 1.039.841 1.88 1.873 1.88a1.878 1.878 0 0 0 1.873-1.88c0-1.039-.841-1.846-1.873-1.846h-.93v-2.167h.93c1.032 0 1.873-.807 1.873-1.846 0-1.039-.841-1.88-1.873-1.88a1.878 1.878 0 0 0-1.873 1.88v.923h-2.126v-.923c0-1.039-.841-1.88-1.873-1.88a1.878 1.878 0 0 0-1.873 1.88c0 1.039.841 1.846 1.873 1.846h.923Zm-.916-.916a.93.93 0 0 1-.007-1.859.93.93 0 0 1 .923.936v.923h-.916Zm5.858 0h-.923v-.923c0-.519.424-.936.93-.936a.93.93 0 0 1-.007 1.859Zm-3.992 3.09v-2.181h2.126v2.181h-2.126Zm-1.866.902h.916v.93a.93.93 0 0 1-.923.93.93.93 0 0 1 .007-1.86Zm5.858 0a.93.93 0 0 1 .007 1.86.935.935 0 0 1-.93-.93v-.93h.923ZM110.639 20.003l.193 8.429h1.327l.194-8.43h-1.714Zm-.159 11.17c0 .555.458.994 1.011.994a.998.998 0 1 0 0-1.995c-.553 0-1.011.44-1.011 1.002ZM185.104 30.831c1.731 0 3.032-1.547 3.032-3.964v-.448c0-3.041-2.241-5.906-6.39-5.906h-.07c-3.823 0-6.697 2.619-6.697 6.74v.52c0 4.394 2.988 6.591 6.644 6.591h.07c1.433 0 2.382-.193 2.874-.422v-1.116c-.632.273-1.52.448-2.865.448h-.07c-2.944 0-5.423-1.819-5.423-5.554v-.413c0-3.534 2.382-5.704 5.467-5.704h.07c3.331 0 5.186 2.293 5.186 4.851v.316c0 2.075-.783 3.006-1.661 3.006-.616 0-1.082-.351-1.082-1.054v-4.29h-1.239v.994h-.07c-.158-.492-.73-1.116-1.732-1.116-1.529 0-2.373 1.177-2.373 2.847v.791c0 1.714.827 2.883 2.294 2.883 1.046 0 1.776-.668 1.925-1.213h.088c.114.572.756 1.213 2.022 1.213Zm-5.037-3.05v-.553c0-1.284.624-1.873 1.415-1.873.809 0 1.442.625 1.442 1.793v.704c0 1.318-.598 1.854-1.424 1.854-.844 0-1.433-.554-1.433-1.925ZM256.36 24.494l.238-1.16h-2.004l.677-3.331h-1.205l-.676 3.331h-2.795l.685-3.331h-1.23l-.668 3.331h-1.881l-.229 1.16h1.873l-.589 2.91h-1.899l-.246 1.177h1.881L247.606 32h1.213l.703-3.419h2.787L251.614 32h1.213l.686-3.419h1.986l.237-1.178h-1.986l.606-2.909h2.004Zm-6.011-.017h2.821l-.615 2.953h-2.822l.616-2.953ZM317.466 28.862c.149 1.723 1.529 2.945 3.63 3.103v1.257h1.054v-1.257c2.294-.185 3.718-1.485 3.718-3.41 0-1.644-.958-2.593-2.988-3.13l-.73-.193v-3.928c1.134.114 1.899.738 2.092 1.67h1.486c-.167-1.653-1.556-2.84-3.578-2.971v-1.248h-1.054v1.274c-1.96.238-3.305 1.52-3.305 3.261 0 1.503.976 2.566 2.689 3.015l.616.167v4.166c-1.16-.176-1.96-.827-2.154-1.776h-1.476Zm3.428-3.964c-1.055-.272-1.618-.852-1.618-1.67 0-.975.712-1.696 1.82-1.89v3.613l-.202-.053Zm1.608 1.934c1.301.334 1.872.888 1.872 1.828 0 1.134-.835 1.89-2.224 2.004v-3.92l.352.088ZM386.646 22.701c0 1.652.809 2.786 2.277 2.786 1.52 0 2.303-1.23 2.303-2.786v-.378c0-1.66-.809-2.777-2.277-2.777-1.459 0-2.303 1.125-2.303 2.777v.378ZM388.659 32l4.553-5.977 4.597-6.02h-1.459l-4.536 5.959L387.2 32h1.459Zm-.589-9.668c0-1.107.352-1.643.862-1.643.518 0 .87.536.87 1.643v.36c0 1.108-.352 1.653-.87 1.653-.51 0-.862-.545-.862-1.653v-.36Zm5.704 6.987c0 1.653.818 2.787 2.277 2.787 1.529 0 2.303-1.222 2.303-2.787v-.369c0-1.66-.8-2.777-2.268-2.777-1.468 0-2.312 1.125-2.312 2.777v.37Zm1.424-.36c0-1.116.352-1.644.87-1.644.519 0 .87.528.87 1.644v.352c0 1.116-.351 1.652-.87 1.652-.518 0-.87-.536-.87-1.652v-.352ZM464.409 25.013l-2.18-5.01h-1.45l-2.197 5.01h1.283l1.609-3.78h.044l1.599 3.78h1.292ZM534.911 32h1.899l-2.075-2.206c.677-1.037.976-2.47.976-4.263v-.369h-1.406v.36c0 1.433-.159 2.532-.554 3.27l-2.909-3.173c1.397-.738 2.549-1.564 2.549-3.04 0-1.583-1.319-2.681-3.033-2.681-1.793 0-3.032 1.186-3.032 2.654 0 1.107.712 1.95 1.477 2.76-.15.07-.299.149-.44.22-1.362.746-2.346 1.73-2.346 3.313 0 2.118 1.784 3.383 4.007 3.383 1.143 0 2.602-.334 3.806-1.397L534.911 32Zm-4.887-7.225c-.958-.966-1.256-1.511-1.256-2.135 0-.906.641-1.565 1.599-1.565.923 0 1.6.615 1.6 1.547 0 1.028-.818 1.573-1.943 2.153Zm-.791 1.635c.115-.07.246-.132.387-.202l3.331 3.674c-.747.782-1.898 1.098-2.795 1.098-1.353 0-2.645-.72-2.645-2.24 0-1.1.685-1.767 1.722-2.33ZM602.019 25.443l-.115-2.127 1.784 1.178.528-.923-1.881-.949 1.881-.967-.528-.923-1.784 1.196.123-2.145h-1.046l.115 2.153-1.784-1.204-.528.932 1.872.958-1.872.95.528.922 1.784-1.178-.106 2.127h1.029Z" fill="#000"/><path opacity=".9" d="M672.336 19.37c-1.705 2.048-2.47 4.421-2.47 7.532 0 3.103.897 5.915 2.391 7.814h1.309c-1.476-2.61-2.197-4.984-2.197-7.831 0-2.953.967-6.074 2.224-7.515h-1.257ZM738.398 19.37c1.257 1.441 2.224 4.562 2.224 7.515 0 2.847-.712 5.22-2.197 7.83h1.318c1.494-1.898 2.391-4.71 2.391-7.813 0-3.111-.774-5.484-2.479-7.532h-1.257ZM816.501 27.755V26.4h-10.002v1.354h10.002ZM843.805 94.77c.984-.096 1.494-.711 1.494-1.942v-2.417c0-1.274.501-1.854 1.933-1.854h.361V87.37h-.501c-2.013 0-3.199.756-3.199 2.865v2.075c0 1.221-.29 1.775-1.495 1.775v1.59c1.205 0 1.495.546 1.495 1.767v2.33c0 2.109 1.186 2.944 3.199 2.944h.501v-1.195h-.361c-1.432 0-1.933-.581-1.933-1.855v-2.725c0-1.221-.51-1.88-1.494-1.968v-.203ZM861.523 160.204l1.152-4.201h-1.591l-.738 4.201h1.177Zm2.98 0 1.151-4.201h-1.591l-.738 4.201h1.178ZM792.454 160.898c0 .563.457 1.02 1.02 1.02.553 0 1.01-.457 1.01-1.02 0-.553-.457-1.01-1.01-1.01-.563 0-1.02.457-1.02 1.01Zm0 6.258c0 .554.457 1.011 1.02 1.011.553 0 1.01-.457 1.01-1.011 0-.562-.457-1.019-1.01-1.019a1.02 1.02 0 0 0-1.02 1.019ZM684.738 232.133l7.515 4.21v-1.6l-5.924-3.243v-.088l5.924-3.436v-1.609l-7.515 4.527v1.239ZM762.262 230.894l-7.524-4.527v1.609l5.942 3.436v.088l-5.942 3.243v1.6l7.524-4.21v-1.239ZM824.914 227.149h1.45c0-1.204.695-2.135 2.118-2.135 1.055 0 2.039.509 2.039 1.793 0 .922-.518 1.344-1.335 2.004-.853.685-1.688 1.415-1.679 2.663l.009.764h1.476v-.536c0-1.019.369-1.318 1.38-2.127.826-.668 1.696-1.397 1.696-2.856 0-2.039-1.722-2.997-3.524-2.997-1.661 0-3.639.808-3.63 3.427Zm2.364 8.025c0 .554.457.993 1.011.993a.998.998 0 1 0 0-1.995c-.554 0-1.011.439-1.011 1.002ZM916.195 94.973c-.975.088-1.494.747-1.494 1.968v2.725c0 1.274-.501 1.855-1.942 1.855h-.361v1.195h.51c2.004 0 3.191-.835 3.199-2.944v-2.33c0-1.221.29-1.766 1.486-1.766v-1.591c-1.196 0-1.486-.554-1.486-1.775v-2.075c0-2.109-1.195-2.865-3.199-2.865h-.51v1.187h.361c1.441 0 1.942.58 1.942 1.854v2.417c0 1.23.519 1.846 1.494 1.942v.203ZM986.659 102.716V87.37h-1.318v15.346h1.318ZM843.682 112.37v15.346h3.911v-1.195h-2.47v-12.956h2.47v-1.195h-3.911ZM863.482 179.003l-1.151 4.201h1.591l.738-4.201h-1.178ZM792.454 185.898c0 .563.457 1.02 1.011 1.02a1.02 1.02 0 0 0 1.019-1.02c0-.553-.457-1.01-1.019-1.01-.554 0-1.011.457-1.011 1.01Zm.545 9.598 1.143-4.21h-1.582l-.739 4.21h1.178ZM687.71 261.496l1.204-4.21h-1.591l-.773 4.21h1.16ZM757.498 258.156c0 .554.457 1.011 1.011 1.011.562 0 1.019-.457 1.019-1.011a1.02 1.02 0 0 0-1.019-1.019c-.554 0-1.011.457-1.011 1.019ZM826.532 261.716l4.324-15.346h-1.397l-4.324 15.346h1.397ZM912.398 112.37v1.195h2.488v12.956h-2.488v1.195h3.92V112.37h-3.92ZM987.459 127.716h1.397l-4.324-15.346h-1.397l4.324 15.346ZM882.115 27.852h3.604v-1.248h-3.604v-3.71h-1.239v3.71h-3.586v1.248h3.586v3.92h1.239v-3.92Z" fill="#000"/><path d="M42.82 27.667c1.634 0 2.416-1.389 2.407-2.865h-1.335c-.044.835-.405 1.547-1.125 1.547-1.187 0-1.644-1.925-3.595-1.925-1.67 0-2.435 1.406-2.426 2.865h1.336c.035-.835.413-1.538 1.134-1.538 1.186 0 1.696 1.916 3.603 1.916ZM42.563 45.408l-1.797-2.666h-1.71l2.217 2.666h1.29ZM113.012 57V43.67h-1.582c-1.035.557-2.276 1.289-3.282 2.012v1.738a44.078 44.078 0 0 1 3.145-1.943h.029V57h1.69ZM140.624 109.748c0 4.157 2.31 6.564 5.855 6.564.945 0 1.815-.194 2.556-.516l1.354 1.858h2.105l-2.019-2.803c1.192-1.107 1.89-2.847 1.89-5.103V107.6c0-4.158-2.331-6.575-5.886-6.575-3.545 0-5.855 2.417-5.855 6.575v2.148Zm1.858-2.138c0-3.287 1.741-4.898 3.997-4.898 2.277 0 4.017 1.611 4.017 4.898v2.127c0 1.612-.419 2.804-1.106 3.61l-1.279-1.708h-2.105l1.987 2.717a3.837 3.837 0 0 1-1.514.301c-2.256-.011-3.997-1.611-3.997-4.92v-2.127ZM211.885 116l3.083-11.505h.064L218.115 116h1.665l4.05-14.663h-2.084l-2.836 11.473h-.064l-2.89-11.473h-1.912l-2.911 11.473h-.054l-2.836-11.473h-2.073L210.198 116h1.687ZM289.662 114.324h-6.929v-4.995h6.542v-1.633h-6.542v-4.683h6.929v-1.676h-8.798V116h8.798v-1.676ZM355.537 101.337h-5.296V116h1.869v-5.833h3.556l2.707 5.833h2.138l-2.987-6.209c1.289-.462 2.729-1.676 2.729-4.082 0-2.299-1.45-4.372-4.716-4.372Zm-3.427 7.186v-5.532h3.191c1.826 0 3.018.956 3.018 2.825 0 1.73-1.052 2.707-3.104 2.707h-3.105ZM425.924 116v-12.987h4.458v-1.676h-10.775v1.676h4.458V116h1.859ZM495.924 116v-6.327l4.909-8.336h-2.127l-3.674 6.51h-.064l-3.663-6.51h-2.149l4.909 8.347V116h1.859ZM561.794 101.337h-1.858v9.786c0 3.029 2.073 5.189 5.553 5.189 3.491 0 5.565-2.16 5.565-5.189v-9.786h-1.859v9.539c0 2.277-1.45 3.749-3.706 3.749-2.245 0-3.695-1.461-3.695-3.749v-9.539ZM635.945 116v-14.663h-1.88V116h1.88ZM699.624 109.823c0 4.147 2.299 6.489 5.855 6.489 3.566 0 5.897-2.342 5.897-6.489v-2.159c0-4.168-2.299-6.639-5.855-6.639-3.555 0-5.897 2.471-5.897 6.639v2.159Zm1.88-2.17c0-3.276 1.74-4.941 3.996-4.941 2.267 0 3.996 1.665 3.996 4.941v2.17c0 3.287-1.729 4.802-3.996 4.802-2.256 0-3.996-1.515-3.996-4.802v-2.17ZM658.44 169.337h-2.212l-6.381 7.09h-.076v-7.09h-1.879V184h1.879v-5.156l1.805-1.966 4.77 7.122h2.384l-5.757-8.422 5.467-6.241ZM520.075 184v-14.663h-1.88v6.241h-7.38v-6.241h-1.879V184h1.879v-6.757h7.38V184h1.88ZM372.109 184v-6.327h6.22v-1.676h-6.22v-4.984h6.779v-1.676h-8.659V184h1.88ZM227.946 180.047c.054 1.901 1.397 4.265 5.285 4.265 3.051 0 5.468-1.504 5.468-4.394 0-2.353-1.557-3.395-3.813-3.985l-2.535-.677c-1.408-.355-2.063-1.128-2.063-2.17 0-1.568 1.321-2.439 3.137-2.439 2.052 0 3.126 1.107 3.255 2.514h1.858c-.064-2.847-2.578-4.168-5.07-4.168-2.632 0-5.081 1.472-5.081 4.222 0 2.288 1.686 3.394 3.426 3.846l2.579.676c1.632.419 2.395 1.107 2.395 2.321 0 1.6-1.31 2.588-3.351 2.588-2.256 0-3.47-1.181-3.61-2.599h-1.88ZM274.473 237.337h-2.16l-3.663 5.811h-.096l-3.696-5.811h-2.255l4.726 7.272-4.802 7.391h2.127l3.696-5.801h.096l3.663 5.801h2.256l-4.759-7.262 4.867-7.401ZM409.456 252l5.285-14.663h-2.127l-4.071 12.246h-.064l-4.093-12.246h-2.138L407.522 252h1.934ZM545.74 252v-11.462h.043L553.238 252h1.805v-14.663h-1.794v11.451h-.043l-7.455-11.451h-1.805V252h1.794ZM612.994 252v-10.656h.054l4.146 9.431h1.59l4.147-9.431h.064V252h1.697v-14.663h-1.826l-4.845 11.333h-.042l-4.856-11.333h-1.826V252h1.697ZM159.278 184l1.483-4.404h5.457L167.7 184h1.977l-5.221-14.663h-1.912L157.323 184h1.955Zm4.243-12.45 2.192 6.531h-4.447l2.202-6.531h.053ZM193.236 252h10.356v-1.665h-7.982v-.054l7.799-11.644v-1.3h-9.893v1.665h7.573v.054l-7.853 11.623V252ZM334.348 243.75c0-3.223 1.396-5.038 3.899-5.038 2.063 0 3.481 1.343 3.534 3.298h1.848v-.032c0-2.879-2.267-4.953-5.393-4.953-3.631 0-5.757 2.514-5.757 6.725v1.923c0 4.168 2.126 6.639 5.757 6.639 3.105 0 5.393-1.988 5.393-4.695v-.043h-1.848c-.053 1.816-1.471 3.051-3.534 3.051-2.503 0-3.899-1.783-3.899-4.952v-1.923ZM473.198 252h5.285c3.159 0 5.124-1.547 5.124-4.104 0-2.051-1.213-3.362-3.179-3.63v-.076c1.493-.472 2.342-1.589 2.342-3.244 0-2.213-1.58-3.609-4.072-3.609h-5.5V252Zm1.869-13.02h3.33c1.569 0 2.482.838 2.482 2.289 0 1.632-1.107 2.384-3.567 2.384h-2.245v-4.673Zm0 6.285h3.535c1.955 0 3.083.966 3.083 2.642 0 1.73-1.171 2.449-4.072 2.449h-2.546v-5.091ZM771.085 101.337V116h1.869v-5.543h3.47c2.793 0 4.662-1.805 4.662-4.555 0-2.728-1.869-4.565-4.662-4.565h-5.339Zm1.869 1.665h3.33c1.826 0 2.879 1.063 2.879 2.9 0 2.407-1.472 2.901-3.985 2.901h-2.224v-5.801ZM727.57 182.313h-6.746v-12.976h-1.88V184h8.626v-1.687ZM579.569 180.638c0 2.148 1.633 3.674 4.115 3.674 2.739 0 4.286-1.666 4.286-4.673v-10.302h-1.88v10.302c0 1.987-.774 2.965-2.406 2.965-1.461 0-2.224-.828-2.278-1.966h-1.837ZM449.618 173.806c-.193-2.847-2.331-4.781-5.457-4.781-3.641 0-5.822 2.45-5.822 6.446v2.17c0 4.254 2.052 6.671 5.865 6.671 3.18 0 5.446-2.127 5.446-4.931v-3.019h-5.607v1.633h3.781v1.418c0 1.901-1.461 3.212-3.609 3.212-2.611 0-4.007-1.805-4.007-4.984v-2.17c0-2.997 1.461-4.759 3.953-4.759 2.03 0 3.362 1.16 3.599 3.094h1.858ZM298.822 169.337V184h4.705c4.254 0 6.446-2.535 6.446-7.337 0-4.812-2.181-7.326-6.446-7.326h-4.705Zm1.88 1.676h2.718c3.115 0 4.608 1.912 4.608 5.65 0 3.846-1.568 5.661-4.608 5.661h-2.718v-11.311ZM178.883 47.352v-.059c0-1.299.928-2.432 2.5-2.432 1.396 0 2.441.88 2.441 2.295 0 1.211-.781 2.139-1.533 2.998l-4.98 5.772V57h8.496v-1.494h-6.114v-.03l3.594-4.218c1.299-1.514 2.266-2.608 2.266-4.219 0-2.1-1.631-3.652-4.121-3.652-2.705 0-4.209 1.855-4.209 3.906v.059h1.66ZM249.467 50.867h1.357c1.856 0 2.949.967 2.969 2.422.019 1.465-1.055 2.53-2.959 2.53-1.787 0-2.637-1.016-2.813-2.266h-1.601c.078 2.04 1.494 3.74 4.355 3.74 2.774 0 4.795-1.709 4.746-3.994-.048-2.168-1.777-3.135-2.91-3.233v-.029c1.035-.166 2.471-1.357 2.422-3.252-.058-1.914-1.699-3.398-4.199-3.398-2.695 0-4.043 1.865-4.082 3.613h1.631c.088-.996.771-2.148 2.451-2.148 1.504 0 2.461.908 2.471 2.216.009 1.358-1.045 2.315-2.559 2.315h-1.279v1.484ZM321.859 43.67c-1.992 2.95-3.974 6.084-5.644 9.102v1.464h6.474V57h1.631v-2.764h1.739v-1.504h-1.739V43.67h-2.461Zm-3.935 9.062v-.02a114.98 114.98 0 0 1 4.736-7.558h.029v7.578h-4.765ZM387.537 53.65c.137 1.934 1.641 3.633 4.395 3.633 2.714 0 4.795-1.885 4.795-4.629 0-2.676-2.012-4.472-4.405-4.472-1.426 0-2.539.683-2.871 1.142h-.029l.439-4.18h5.869V43.65h-7.304l-.733 7.754h1.446c.39-.869 1.279-1.777 2.929-1.777 1.612 0 2.94 1.172 2.94 3.076 0 2.031-1.602 3.106-2.969 3.106-1.533 0-2.646-.752-2.861-2.159h-1.641ZM465.385 46.766c-.137-1.612-1.573-3.35-4.033-3.35-2.891 0-5 2.412-5 7.432 0 2.187.488 3.799 1.328 4.853.849 1.055 2.05 1.572 3.476 1.572 2.549 0 4.59-1.689 4.59-4.57 0-2.822-2.187-4.375-4.365-4.375-1.709 0-2.949.986-3.34 1.973h-.029c.107-3.828 1.562-5.42 3.271-5.42 1.553 0 2.324 1.123 2.393 1.885h1.709Zm-7.129 6.044c0-1.962 1.367-3.017 2.91-3.017 1.445 0 2.9.967 2.9 3.008 0 2.06-1.416 2.998-2.88 2.998-1.524 0-2.93-1.016-2.93-2.989ZM527.174 43.67v1.494H534v.03L528.385 57h1.787l5.459-11.768V43.67h-8.457ZM600.961 57.283c2.734 0 4.736-1.611 4.736-3.926 0-2.07-1.562-3.105-2.685-3.379v-.019c.869-.283 2.177-1.22 2.177-3.008 0-2.07-1.767-3.564-4.189-3.564-2.412 0-4.18 1.494-4.18 3.564 0 1.748 1.241 2.705 2.168 3.008v.02c-1.113.273-2.695 1.289-2.695 3.388 0 2.324 1.934 3.916 4.668 3.916Zm.039-7.94c-1.455 0-2.529-.937-2.529-2.275 0-1.337 1.074-2.236 2.529-2.236 1.475 0 2.529.898 2.529 2.236s-1.054 2.276-2.529 2.276Zm0 6.514c-1.729 0-3.037-1.044-3.037-2.548 0-1.524 1.308-2.569 3.037-2.569 1.738 0 3.037 1.045 3.037 2.569 0 1.504-1.299 2.548-3.037 2.548Z" fill="#000"/><path opacity=".9" d="M666.508 53.738c.117 1.602 1.484 3.516 4.258 3.516 3.144 0 5-2.666 5-7.178 0-4.834-1.954-6.67-4.883-6.67-2.315 0-4.492 1.68-4.492 4.522 0 2.9 2.06 4.424 4.189 4.424 1.865 0 3.076-.938 3.457-1.973h.068c-.009 3.29-1.152 5.41-3.261 5.41-1.66 0-2.52-1.123-2.627-2.05h-1.709Zm7.383-5.79c0 1.737-1.397 2.949-2.959 2.949-1.504 0-2.862-.957-2.862-2.999 0-2.06 1.455-3.027 2.92-3.027 1.582 0 2.901.996 2.901 3.076ZM736.303 50.867c0 3.916 1.66 6.416 4.697 6.416 3.057 0 4.688-2.52 4.688-6.416v-1.035c0-3.935-1.641-6.445-4.678-6.445s-4.707 2.52-4.707 6.445v1.035Zm1.689-1.025c0-3.154 1.143-4.961 3.008-4.961 1.855 0 2.998 1.806 2.998 4.96v1.007c0 3.154-1.143 4.941-2.998 4.941-1.865 0-3.008-1.787-3.008-4.941v-1.006ZM814.076 52.283V50.78h-6.152v1.504h6.152ZM885.082 50.565v-1.368h-8.164v1.367h8.164Zm0 3.574V52.79h-8.164v1.348h8.164Z" fill="#000"/><defs><linearGradient id="a" x1="513.5" y1="0" x2="513.5" y2="352" gradientUnits="userSpaceOnUse"><stop/><stop offset="1" stop-opacity="0"/></linearGradient><linearGradient id="b" x1="58" y1="78" x2="58" y2="138" gradientUnits="userSpaceOnUse"><stop/><stop offset="1" stop-opacity="0"/></linearGradient><linearGradient id="c" x1="67" y1="146" x2="67" y2="206" gradientUnits="userSpaceOnUse"><stop/><stop offset="1" stop-opacity="0"/></linearGradient><linearGradient id="d" x1="84.5" y1="214" x2="84.5" y2="274" gradientUnits="userSpaceOnUse"><stop/><stop offset="1" stop-opacity="0"/></linearGradient><linearGradient id="e" x1="41" y1="282" x2="41" y2="342" gradientUnits="userSpaceOnUse"><stop/><stop offset="1" stop-opacity="0"/></linearGradient><linearGradient id="f" x1="111" y1="282" x2="111" y2="342" gradientUnits="userSpaceOnUse"><stop/><stop offset="1" stop-opacity="0"/></linearGradient><linearGradient id="g" x1="321" y1="10" x2="321" y2="70" gradientUnits="userSpaceOnUse"><stop/><stop offset="1" stop-opacity="0"/></linearGradient><linearGradient id="h" x1="355" y1="78" x2="355" y2="138" gradientUnits="userSpaceOnUse"><stop/><stop offset="1" stop-opacity="0"/></linearGradient><linearGradient id="i" x1="373" y1="146" x2="373" y2="206" gradientUnits="userSpaceOnUse"><stop/><stop offset="1" stop-opacity="0"/></linearGradient><linearGradient id="j" x1="338" y1="214" x2="338" y2="274" gradientUnits="userSpaceOnUse"><stop/><stop offset="1" stop-opacity="0"/></linearGradient><linearGradient id="k" x1="181" y1="10" x2="181" y2="70" gradientUnits="userSpaceOnUse"><stop/><stop offset="1" stop-opacity="0"/></linearGradient><linearGradient id="l" x1="215" y1="78" x2="215" y2="138" gradientUnits="userSpaceOnUse"><stop/><stop offset="1" stop-opacity="0"/></linearGradient><linearGradient id="m" x1="233" y1="146" x2="233" y2="206" gradientUnits="userSpaceOnUse"><stop/><stop offset="1" stop-opacity="0"/></linearGradient><linearGradient id="n" x1="198" y1="214" x2="198" y2="274" gradientUnits="userSpaceOnUse"><stop/><stop offset="1" stop-opacity="0"/></linearGradient><linearGradient id="o" x1="461" y1="10" x2="461" y2="70" gradientUnits="userSpaceOnUse"><stop/><stop offset="1" stop-opacity="0"/></linearGradient><linearGradient id="p" x1="495" y1="78" x2="495" y2="138" gradientUnits="userSpaceOnUse"><stop/><stop offset="1" stop-opacity="0"/></linearGradient><linearGradient id="q" x1="513" y1="146" x2="513" y2="206" gradientUnits="userSpaceOnUse"><stop/><stop offset="1" stop-opacity="0"/></linearGradient><linearGradient id="r" x1="478" y1="214" x2="478" y2="274" gradientUnits="userSpaceOnUse"><stop/><stop offset="1" stop-opacity="0"/></linearGradient><linearGradient id="s" x1="741" y1="10" x2="741" y2="70" gradientUnits="userSpaceOnUse"><stop/><stop offset="1" stop-opacity="0"/></linearGradient><linearGradient id="t" x1="775" y1="78" x2="775" y2="138" gradientUnits="userSpaceOnUse"><stop/><stop offset="1" stop-opacity="0"/></linearGradient><linearGradient id="u" x1="793" y1="146" x2="793" y2="206" gradientUnits="userSpaceOnUse"><stop/><stop offset="1" stop-opacity="0"/></linearGradient><linearGradient id="v" x1="758" y1="214" x2="758" y2="274" gradientUnits="userSpaceOnUse"><stop/><stop offset="1" stop-opacity="0"/></linearGradient><linearGradient id="w" x1="111" y1="10" x2="111" y2="70" gradientUnits="userSpaceOnUse"><stop/><stop offset="1" stop-opacity="0"/></linearGradient><linearGradient id="x" x1="145" y1="78" x2="145" y2="138" gradientUnits="userSpaceOnUse"><stop/><stop offset="1" stop-opacity="0"/></linearGradient><linearGradient id="y" x1="163" y1="146" x2="163" y2="206" gradientUnits="userSpaceOnUse"><stop/><stop offset="1" stop-opacity="0"/></linearGradient><linearGradient id="z" x1="181" y1="282" x2="181" y2="342" gradientUnits="userSpaceOnUse"><stop/><stop offset="1" stop-opacity="0"/></linearGradient><linearGradient id="A" x1="259.5" y1="282" x2="259.5" y2="342" gradientUnits="userSpaceOnUse"><stop/><stop offset="1" stop-opacity="0"/></linearGradient><linearGradient id="B" x1="391" y1="10" x2="391" y2="70" gradientUnits="userSpaceOnUse"><stop/><stop offset="1" stop-opacity="0"/></linearGradient><linearGradient id="C" x1="425" y1="78" x2="425" y2="138" gradientUnits="userSpaceOnUse"><stop/><stop offset="1" stop-opacity="0"/></linearGradient><linearGradient id="D" x1="443" y1="146" x2="443" y2="206" gradientUnits="userSpaceOnUse"><stop/><stop offset="1" stop-opacity="0"/></linearGradient><linearGradient id="E" x1="408" y1="214" x2="408" y2="274" gradientUnits="userSpaceOnUse"><stop/><stop offset="1" stop-opacity="0"/></linearGradient><linearGradient id="F" x1="671" y1="10" x2="671" y2="70" gradientUnits="userSpaceOnUse"><stop/><stop offset="1" stop-opacity="0"/></linearGradient><linearGradient id="G" x1="705" y1="78" x2="705" y2="138" gradientUnits="userSpaceOnUse"><stop/><stop offset="1" stop-opacity="0"/></linearGradient><linearGradient id="H" x1="723" y1="146" x2="723" y2="206" gradientUnits="userSpaceOnUse"><stop/><stop offset="1" stop-opacity="0"/></linearGradient><linearGradient id="I" x1="41" y1="10" x2="41" y2="70" gradientUnits="userSpaceOnUse"><stop/><stop offset="1" stop-opacity="0"/></linearGradient><linearGradient id="J" x1="688" y1="214" x2="688" y2="274" gradientUnits="userSpaceOnUse"><stop/><stop offset="1" stop-opacity="0"/></linearGradient><linearGradient id="K" x1="251" y1="10" x2="251" y2="70" gradientUnits="userSpaceOnUse"><stop/><stop offset="1" stop-opacity="0"/></linearGradient><linearGradient id="L" x1="285" y1="78" x2="285" y2="138" gradientUnits="userSpaceOnUse"><stop/><stop offset="1" stop-opacity="0"/></linearGradient><linearGradient id="M" x1="303" y1="146" x2="303" y2="206" gradientUnits="userSpaceOnUse"><stop/><stop offset="1" stop-opacity="0"/></linearGradient><linearGradient id="N" x1="268" y1="214" x2="268" y2="274" gradientUnits="userSpaceOnUse"><stop/><stop offset="1" stop-opacity="0"/></linearGradient><linearGradient id="O" x1="601" y1="10" x2="601" y2="70" gradientUnits="userSpaceOnUse"><stop/><stop offset="1" stop-opacity="0"/></linearGradient><linearGradient id="P" x1="635" y1="78" x2="635" y2="138" gradientUnits="userSpaceOnUse"><stop/><stop offset="1" stop-opacity="0"/></linearGradient><linearGradient id="Q" x1="653" y1="146" x2="653" y2="206" gradientUnits="userSpaceOnUse"><stop/><stop offset="1" stop-opacity="0"/></linearGradient><linearGradient id="R" x1="618" y1="214" x2="618" y2="274" gradientUnits="userSpaceOnUse"><stop/><stop offset="1" stop-opacity="0"/></linearGradient><linearGradient id="S" x1="881" y1="10" x2="881" y2="70" gradientUnits="userSpaceOnUse"><stop/><stop offset="1" stop-opacity="0"/></linearGradient><linearGradient id="T" x1="915" y1="78" x2="915" y2="138" gradientUnits="userSpaceOnUse"><stop/><stop offset="1" stop-opacity="0"/></linearGradient><linearGradient id="U" x1="915" y1="282" x2="915" y2="342" gradientUnits="userSpaceOnUse"><stop/><stop offset="1" stop-opacity="0"/></linearGradient><linearGradient id="V" x1="915" y1="282" x2="915" y2="313" gradientUnits="userSpaceOnUse"><stop/><stop offset="1" stop-opacity="0"/></linearGradient><linearGradient id="W" x1="959.5" y1="146" x2="959.5" y2="206" gradientUnits="userSpaceOnUse"><stop/><stop offset="1" stop-opacity="0"/></linearGradient><linearGradient id="X" x1="942" y1="214" x2="942" y2="274" gradientUnits="userSpaceOnUse"><stop/><stop offset="1" stop-opacity="0"/></linearGradient><linearGradient id="Y" x1="985.5" y1="78" x2="985.5" y2="138" gradientUnits="userSpaceOnUse"><stop/><stop offset="1" stop-opacity="0"/></linearGradient><linearGradient id="Z" x1="985.5" y1="313" x2="985.5" y2="342" gradientUnits="userSpaceOnUse"><stop/><stop offset="1" stop-opacity="0"/></linearGradient><linearGradient id="aa" x1="968.5" y1="10" x2="968.5" y2="70" gradientUnits="userSpaceOnUse"><stop/><stop offset="1" stop-opacity="0"/></linearGradient><linearGradient id="ab" x1="531" y1="10" x2="531" y2="70" gradientUnits="userSpaceOnUse"><stop/><stop offset="1" stop-opacity="0"/></linearGradient><linearGradient id="ac" x1="565" y1="78" x2="565" y2="138" gradientUnits="userSpaceOnUse"><stop/><stop offset="1" stop-opacity="0"/></linearGradient><linearGradient id="ad" x1="583" y1="146" x2="583" y2="206" gradientUnits="userSpaceOnUse"><stop/><stop offset="1" stop-opacity="0"/></linearGradient><linearGradient id="ae" x1="548" y1="214" x2="548" y2="274" gradientUnits="userSpaceOnUse"><stop/><stop offset="1" stop-opacity="0"/></linearGradient><linearGradient id="af" x1="811" y1="10" x2="811" y2="70" gradientUnits="userSpaceOnUse"><stop/><stop offset="1" stop-opacity="0"/></linearGradient><linearGradient id="ag" x1="845" y1="78" x2="845" y2="138" gradientUnits="userSpaceOnUse"><stop/><stop offset="1" stop-opacity="0"/></linearGradient><linearGradient id="ah" x1="845" y1="313" x2="845" y2="342" gradientUnits="userSpaceOnUse"><stop/><stop offset="1" stop-opacity="0"/></linearGradient><linearGradient id="ai" x1="863" y1="146" x2="863" y2="206" gradientUnits="userSpaceOnUse"><stop/><stop offset="1" stop-opacity="0"/></linearGradient><linearGradient id="aj" x1="828" y1="214" x2="828" y2="274" gradientUnits="userSpaceOnUse"><stop/><stop offset="1" stop-opacity="0"/></linearGradient><linearGradient id="ak" x1="775" y1="282" x2="775" y2="342" gradientUnits="userSpaceOnUse"><stop/><stop offset="1" stop-opacity="0"/></linearGradient><linearGradient id="al" x1="696.5" y1="282" x2="696.5" y2="342" gradientUnits="userSpaceOnUse"><stop/><stop offset="1" stop-opacity="0"/></linearGradient><linearGradient id="am" x1="478" y1="282" x2="478" y2="342" gradientUnits="userSpaceOnUse"><stop/><stop offset="1" stop-opacity="0"/></linearGradient></defs></svg>