<svg width="64" height="64" fill="none" xmlns="http://www.w3.org/2000/svg"><g clip-path="url(#a)"><mask id="b" style="mask-type:luminance" maskUnits="userSpaceOnUse" x="0" y="0" width="64" height="64"><path d="M64 0H0v64h64V0Z" fill="#fff"/></mask><g mask="url(#b)"><path d="M41.22 0h14.46v14.46a12.42 12.42 0 0 1-12.419 12.42h-14.46V12.42A12.42 12.42 0 0 1 41.218 0Z" fill="url(#c)"/><path d="M26.88 26.88H15.862A9.463 9.463 0 0 1 6.4 17.418V6.4h11.018a9.462 9.462 0 0 1 9.462 9.462V26.88Z" fill="url(#d)"/><path d="M12.42 28.8h14.46v14.46a12.42 12.42 0 0 1-12.42 12.42H0V41.219a12.42 12.42 0 0 1 12.42-12.42Z" fill="url(#e)"/><path d="M64 64H45.063A16.262 16.262 0 0 1 28.8 47.737V28.8h18.938A16.262 16.262 0 0 1 64 45.062V64Z" fill="url(#f)"/></g></g><defs><linearGradient id="c" x1="31.459" y1="26.378" x2="53.543" y2="-.122" gradientUnits="userSpaceOnUse"><stop stop-color="#019C85"/><stop offset="1" stop-color="#BEDC7C"/></linearGradient><linearGradient id="d" x1="26.403" y1="26.105" x2="8.633" y2="8.88" gradientUnits="userSpaceOnUse"><stop stop-color="#01C185"/><stop offset="1" stop-color="#E5DC7C"/></linearGradient><linearGradient id="e" x1="23.539" y1="32.592" x2="2.077" y2="53.094" gradientUnits="userSpaceOnUse"><stop stop-color="#01B485"/><stop offset="1" stop-color="#BEDC7C"/></linearGradient><linearGradient id="f" x1="29.021" y1="29.017" x2="60.96" y2="60.96" gradientUnits="userSpaceOnUse"><stop stop-color="#019C85"/><stop offset="1" stop-color="#BEDC7C"/></linearGradient><clipPath id="a"><path fill="#fff" d="M0 0h64v64H0z"/></clipPath></defs></svg>