<svg width="32" height="20" viewBox="0 0 32 20" fill="none" xmlns="http://www.w3.org/2000/svg">
<path d="M11.6738 2.11499H20.3261V17.6617H11.6738V2.11499Z" fill="#FF5F00"/>
<path d="M12.2232 9.8884C12.2232 6.72965 13.7064 3.92788 15.9862 2.11497C14.3108 0.796537 12.1958 0 9.88852 0C4.42224 0 0 4.42224 0 9.8884C0 15.3544 4.42224 19.7768 9.8884 19.7768C12.1957 19.7768 14.3106 18.9803 15.9862 17.6617C13.7064 15.8763 12.2232 13.0471 12.2232 9.8884Z" fill="#EB001B"/>
<path d="M31.9998 9.8884C31.9998 15.3544 27.5776 19.7768 22.1114 19.7768C19.8042 19.7768 17.6892 18.9803 16.0137 17.6617C18.321 15.8489 19.7768 13.0471 19.7768 9.8884C19.7768 6.72965 18.2934 3.92788 16.0137 2.11497C17.6891 0.796537 19.8042 0 22.1114 0C27.5776 0 31.9998 4.44977 31.9998 9.8884Z" fill="#F79E1B"/>
</svg>
