<svg width="64" height="64" fill="none" xmlns="http://www.w3.org/2000/svg"><g clip-path="url(#a)"><mask id="b" style="mask-type:luminance" maskUnits="userSpaceOnUse" x="0" y="0" width="64" height="64"><path d="M64 64V0H0v64h64Z" fill="#fff"/></mask><g mask="url(#b)"><path d="M0 0a31.993 31.993 0 0 0 9.368 22.627c6 6.002 14.139 9.376 22.627 9.378V0H0Zm31.995 32.005H64V0a32.01 32.01 0 0 0-22.635 9.373 31.993 31.993 0 0 0-9.37 22.632Zm0 0V64H64a31.987 31.987 0 0 0-19.757-29.56 32.007 32.007 0 0 0-12.248-2.435Zm0 0H0V64a32.005 32.005 0 0 0 22.625-9.373c6-6 9.37-14.137 9.37-22.622Z" fill="url(#c)"/></g></g><defs><linearGradient id="c" x1="-8.64" y1="59.2" x2="72.64" y2="4.8" gradientUnits="userSpaceOnUse"><stop stop-color="#DD37E0"/><stop offset="1" stop-color="#0BA7FF"/></linearGradient><clipPath id="a"><path fill="#fff" d="M0 0h64v64H0z"/></clipPath></defs></svg>