<svg width="140" height="100" fill="none" xmlns="http://www.w3.org/2000/svg"><g clip-path="url(#a)"><path d="M0 1.556C0 .696.696 0 1.556 0h136.888c.86 0 1.556.696 1.556 1.556V100H0V1.556Z" fill="url(#b)"/><g filter="url(#c)"><rect x="25.181" y="2.344" width="110.639" height="54.883" rx=".583" fill="url(#d)"/><rect x="25.181" y="2.344" width="110.639" height="54.883" rx=".583" fill="url(#e)" fill-opacity=".2"/><rect x="25.229" y="2.392" width="110.542" height="54.786" rx=".535" stroke="url(#f)" stroke-width=".097"/></g><g filter="url(#g)"><rect x="25.181" y="59.57" width="110.639" height="38.672" rx=".583" fill="url(#h)"/><rect x="25.181" y="59.57" width="110.639" height="38.672" rx=".583" fill="url(#i)" fill-opacity=".2"/><rect x="25.229" y="59.619" width="110.542" height="38.575" rx=".535" stroke="url(#j)" stroke-width=".097"/></g><rect x="120.604" y="7.08" width="14" height="4.102" rx=".535" fill="#181F29" stroke="url(#k)" stroke-width=".097"/><rect x="105.924" y="7.08" width="14" height="4.102" rx=".535" fill="#181F29" stroke="url(#l)" stroke-width=".097"/><rect x="77.243" y="66.064" width="13.125" height="3.125" rx=".146" fill="#181F29" stroke="url(#m)" stroke-width=".097"/><rect x="77.243" y="71.631" width="13.125" height="3.125" rx=".146" fill="#181F29" stroke="url(#n)" stroke-width=".097"/><rect x="77.243" y="77.197" width="13.125" height="3.125" rx=".146" fill="#181F29" stroke="url(#o)" stroke-width=".097"/><rect x="77.243" y="82.763" width="13.125" height="3.125" rx=".146" fill="#181F29" stroke="url(#p)" stroke-width=".097"/><rect x="77.243" y="88.33" width="13.125" height="3.125" rx=".146" fill="#181F29" stroke="url(#q)" stroke-width=".097"/><rect x="77.243" y="93.896" width="13.125" height="3.125" rx=".146" fill="#181F29" stroke="url(#r)" stroke-width=".097"/><rect x="102.618" y="66.064" width="13.125" height="3.125" rx=".146" fill="#181F29" stroke="url(#s)" stroke-width=".097"/><rect x="102.618" y="71.631" width="13.125" height="3.125" rx=".146" fill="#181F29" stroke="url(#t)" stroke-width=".097"/><rect x="102.618" y="77.197" width="13.125" height="3.125" rx=".146" fill="#181F29" stroke="url(#u)" stroke-width=".097"/><rect x="102.618" y="82.763" width="13.125" height="3.125" rx=".146" fill="#181F29" stroke="url(#v)" stroke-width=".097"/><rect x="102.618" y="88.33" width="13.125" height="3.125" rx=".146" fill="#181F29" stroke="url(#w)" stroke-width=".097"/><rect x="102.618" y="93.896" width="13.125" height="3.125" rx=".146" fill="#181F29" stroke="url(#x)" stroke-width=".097"/><rect x="121.479" y="66.064" width="13.125" height="3.125" rx=".146" fill="#181F29" stroke="url(#y)" stroke-width=".097"/><rect x="121.479" y="71.631" width="13.125" height="3.125" rx=".146" fill="#181F29" stroke="url(#z)" stroke-width=".097"/><rect x="121.479" y="77.197" width="13.125" height="3.125" rx=".146" fill="#181F29" stroke="url(#A)" stroke-width=".097"/><rect x="121.479" y="82.763" width="13.125" height="3.125" rx=".146" fill="#181F29" stroke="url(#B)" stroke-width=".097"/><rect x="121.479" y="88.33" width="13.125" height="3.125" rx=".146" fill="#181F29" stroke="url(#C)" stroke-width=".097"/><rect x="121.479" y="93.896" width="13.125" height="3.125" rx=".146" fill="#181F29" stroke="url(#D)" stroke-width=".097"/><rect x="77.243" y="63.721" width="6.708" height="1.075" rx=".146" fill="#181F29" stroke="url(#E)" stroke-width=".097"/><rect x="102.618" y="63.721" width="6.708" height="1.075" rx=".146" fill="#181F29" stroke="url(#F)" stroke-width=".097"/><rect x="127.993" y="63.721" width="6.708" height="1.075" rx=".146" fill="#181F29" stroke="url(#G)" stroke-width=".097"/><rect x="76.368" y="54.931" width="2.819" height="1.075" rx=".146" fill="#181F29" stroke="url(#H)" stroke-width=".097"/><rect x="85.604" y="54.931" width="2.819" height="1.075" rx=".146" fill="#181F29" stroke="url(#I)" stroke-width=".097"/><rect x="94.841" y="54.931" width="2.819" height="1.075" rx=".146" fill="#181F29" stroke="url(#J)" stroke-width=".097"/><rect x="104.076" y="54.931" width="2.819" height="1.075" rx=".146" fill="#181F29" stroke="url(#K)" stroke-width=".097"/><rect x="113.312" y="54.931" width="2.819" height="1.075" rx=".146" fill="#181F29" stroke="url(#L)" stroke-width=".097"/><rect x="122.549" y="54.931" width="2.819" height="1.075" rx=".146" fill="#181F29" stroke="url(#M)" stroke-width=".097"/><rect x="131.785" y="54.931" width="2.819" height="1.075" rx=".146" fill="#181F29" stroke="url(#N)" stroke-width=".097"/><g clip-path="url(#O)"><mask id="P" style="mask-type:alpha" maskUnits="userSpaceOnUse" x="29" y="21" width="106" height="33"><path fill="#D9D9D9" d="M29.847 21.972h104.806V53.71H29.847z"/></mask><g mask="url(#P)"><path d="M40.132 50.037c-3.1 0-10.43-3.282-10.43-3.282v6.906h104.951V22.167c-4.133 0-7.479 5.73-10.038 5.73-2.558 0-5.707-3.477-9.398-3.477-3.69 0-6.937 11.608-9.693 11.608-2.755 0-4.428-3.722-7.134-3.722-2.707 0-7.725 8.375-10.53 8.375-2.805 0-6.642-4.653-9.546-4.653-2.902 0-7.38 5.486-10.185 5.486-2.804 0-5.117-2.106-8.66-2.106-3.542 0-8.118 4.31-8.118 4.31s-8.119 6.319-11.219 6.319Z" fill="url(#Q)"/><path fill-rule="evenodd" clip-rule="evenodd" d="M126.798 27.163c-.742.54-1.475.933-2.182.933-.682 0-1.39-.23-2.112-.561-.59-.27-1.205-.614-1.836-.967l-.423-.236c-1.571-.871-3.239-1.715-5.027-1.715-.408 0-.823.16-1.249.463-.427.303-.854.741-1.281 1.278-.855 1.074-1.686 2.512-2.495 3.965-.118.21-.235.421-.351.632-.683 1.232-1.351 2.437-1.997 3.375-.378.55-.756 1.019-1.134 1.352-.374.33-.772.548-1.186.548-1.457 0-2.616-.98-3.698-1.896l-.024-.02c-.55-.465-1.084-.916-1.646-1.254-.561-.338-1.138-.554-1.767-.554-.29 0-.629.113-1.016.334-.386.22-.804.538-1.246.926-.871.765-1.816 1.783-2.774 2.815l-.047.051c-.97 1.046-1.953 2.102-2.87 2.895-.458.398-.906.734-1.334.973-.425.237-.845.385-1.242.385-.752 0-1.553-.31-2.361-.752-.796-.434-1.622-1.008-2.44-1.578l-.048-.033c-.838-.583-1.668-1.158-2.469-1.588-.802-.431-1.551-.704-2.228-.704-.67 0-1.456.32-2.321.83-.861.508-1.772 1.187-2.69 1.874l-.052.04c-.897.67-1.8 1.347-2.654 1.858-.865.518-1.71.886-2.468.886-1.359 0-2.603-.48-3.876-.972l-.248-.095c-1.37-.526-2.804-1.04-4.536-1.04-1.706 0-3.692 1.045-5.277 2.122a25.115 25.115 0 0 0-2.676 2.108l-.018.016-.01.01-.002.002-.007.006-.007.006-.121-.154.12.154-.005.005-.018.013-.069.054-.264.201a73.796 73.796 0 0 1-4.103 2.897c-1.212.792-2.525 1.587-3.732 2.184-1.197.593-2.322 1.008-3.148 1.008-.802 0-1.863-.211-2.99-.52a43.243 43.243 0 0 1-3.456-1.133 74.554 74.554 0 0 1-4.044-1.637l-.02-.01h-.001l.08-.179.081-.178.005.002.016.007.061.027c.054.024.134.06.237.104a73.953 73.953 0 0 0 3.722 1.496c1.107.41 2.308.818 3.424 1.123 1.12.307 2.138.506 2.885.506.725 0 1.777-.375 2.973-.967 1.187-.587 2.485-1.373 3.69-2.161a73.34 73.34 0 0 0 4.343-3.08l.069-.053.016-.013.007-.006a7.737 7.737 0 0 1 .193-.176 25.474 25.474 0 0 1 2.548-1.987c1.589-1.079 3.662-2.19 5.498-2.19 1.811 0 3.305.54 4.678 1.067l.23.089c1.29.497 2.47.952 3.752.952.645 0 1.41-.319 2.265-.83.836-.5 1.726-1.166 2.63-1.843l.042-.032c.915-.684 1.843-1.377 2.726-1.898.878-.518 1.741-.885 2.522-.885.775 0 1.594.31 2.415.75.824.444 1.673 1.032 2.507 1.613l.039.026c.826.575 1.636 1.139 2.413 1.563.79.431 1.52.703 2.172.703.303 0 .654-.114 1.05-.335.395-.22.82-.538 1.268-.926.898-.777 1.865-1.816 2.839-2.866l.056-.06c.951-1.025 1.907-2.055 2.794-2.834.452-.397.892-.734 1.31-.972.416-.237.825-.386 1.212-.386.724 0 1.371.25 1.971.61.589.354 1.143.823 1.684 1.28l.021.019c1.115.942 2.166 1.815 3.459 1.815.274 0 .581-.145.925-.45.342-.302.699-.74 1.07-1.28.635-.92 1.291-2.105 1.975-3.34l.353-.635c.808-1.45 1.654-2.916 2.532-4.019.439-.552.892-1.02 1.36-1.353.469-.333.963-.535 1.478-.535 1.902 0 3.653.896 5.219 1.764l.429.24c.63.351 1.228.686 1.803.949.703.322 1.349.525 1.947.525.572 0 1.216-.323 1.95-.858.554-.403 1.136-.908 1.753-1.445l.596-.516c.838-.717 1.736-1.444 2.687-1.991.953-.548 1.971-.922 3.051-.922v.392c-.987 0-1.937.342-2.854.87-.918.527-1.792 1.233-2.627 1.949-.196.168-.391.337-.584.505-.621.54-1.22 1.06-1.79 1.475Z" fill="#1DC538"/></g></g></g><g clip-path="url(#R)"><path d="M0 1.556C0 .696.696 0 1.556 0h136.888c.86 0 1.556.696 1.556 1.556V100H0V1.556Z" fill="url(#S)"/><g filter="url(#T)"><mask id="X" fill="#fff"><path d="M0 1.556C0 .696.696 0 1.556 0H21.68v100H0V1.556Z"/></mask><path d="M0 1.556C0 .696.696 0 1.556 0H21.68v100H0V1.556Z" fill="url(#U)"/><path d="M0 1.556C0 .696.696 0 1.556 0H21.68v100H0V1.556Z" fill="url(#V)" fill-opacity=".2"/><path d="M0 0h21.68H0Zm21.68 100H0h21.68ZM0 100V0v100ZM21.778 0v100h-.195V0h.195Z" fill="url(#W)" mask="url(#X)"/></g><g filter="url(#Y)"><rect x="25.181" y="2.343" width="110.639" height="54.883" rx=".583" fill="url(#Z)"/><rect x="25.181" y="2.343" width="110.639" height="54.883" rx=".583" fill="url(#aa)" fill-opacity=".2"/><rect x="25.229" y="2.392" width="110.542" height="54.786" rx=".535" stroke="url(#ab)" stroke-width=".097"/></g><g filter="url(#ac)"><rect x="25.181" y="59.57" width="110.639" height="38.672" rx=".583" fill="url(#ad)"/><rect x="25.181" y="59.57" width="110.639" height="38.672" rx=".583" fill="url(#ae)" fill-opacity=".2"/><rect x="25.229" y="59.619" width="110.542" height="38.575" rx=".535" stroke="url(#af)" stroke-width=".097"/></g><rect x="1.215" y="1.221" width="2.819" height="2.832" rx=".535" fill="#A1A2A3" stroke="url(#ag)" stroke-width=".097"/><rect x="1.215" y="4.737" width="19.25" height="2.637" rx=".535" fill="#A1A2A3" stroke="url(#ah)" stroke-width=".097"/><rect x="26.396" y="3.564" width="5.347" height="1.075" rx=".146" fill="#A1A2A3" stroke="url(#ai)" stroke-width=".097"/><rect x="26.396" y="5.127" width="23.333" height="5.86" rx=".535" fill="#A1A2A3" stroke="url(#aj)" stroke-width=".097"/><rect x="26.396" y="12.647" width="2.819" height="1.075" rx=".146" fill="#A1A2A3" stroke="url(#ak)" stroke-width=".097"/><rect x="26.396" y="20.634" width="2.819" height="1.075" rx=".146" fill="#A1A2A3" stroke="url(#al)" stroke-width=".097"/><rect x="26.396" y="28.623" width="2.819" height="1.075" rx=".146" fill="#A1A2A3" stroke="url(#am)" stroke-width=".097"/><rect x="26.396" y="36.612" width="2.819" height="1.075" rx=".146" fill="#A1A2A3" stroke="url(#an)" stroke-width=".097"/><rect x="26.396" y="44.599" width="2.819" height="1.075" rx=".146" fill="#A1A2A3" stroke="url(#ao)" stroke-width=".097"/><rect x="26.396" y="52.588" width="2.819" height="1.075" rx=".146" fill="#A1A2A3" stroke="url(#ap)" stroke-width=".097"/><rect x="26.396" y="63.721" width="6.708" height="1.075" rx=".146" fill="#A1A2A3" stroke="url(#aq)" stroke-width=".097"/><rect x="26.396" y="60.791" width="14.486" height="1.27" rx=".146" fill="#A1A2A3" stroke="url(#ar)" stroke-width=".097"/><rect x="26.396" y="66.065" width="9.042" height="3.125" rx=".146" fill="#A1A2A3" stroke="url(#as)" stroke-width=".097"/><rect x="26.396" y="71.631" width="9.042" height="3.125" rx=".146" fill="#A1A2A3" stroke="url(#at)" stroke-width=".097"/><rect x="26.396" y="77.197" width="9.042" height="3.125" rx=".146" fill="#A1A2A3" stroke="url(#au)" stroke-width=".097"/><rect x="26.396" y="82.764" width="9.042" height="3.125" rx=".146" fill="#A1A2A3" stroke="url(#av)" stroke-width=".097"/><rect x="26.396" y="88.33" width="9.042" height="3.125" rx=".146" fill="#A1A2A3" stroke="url(#aw)" stroke-width=".097"/><rect x="26.396" y="93.896" width="9.042" height="3.125" rx=".146" fill="#A1A2A3" stroke="url(#ax)" stroke-width=".097"/><rect x="51.868" y="66.065" width="9.042" height="3.125" rx=".146" fill="#A1A2A3" stroke="url(#ay)" stroke-width=".097"/><rect x="51.868" y="71.631" width="9.042" height="3.125" rx=".146" fill="#A1A2A3" stroke="url(#az)" stroke-width=".097"/><rect x="51.868" y="77.197" width="9.042" height="3.125" rx=".146" fill="#A1A2A3" stroke="url(#aA)" stroke-width=".097"/><rect x="51.868" y="82.764" width="9.042" height="3.125" rx=".146" fill="#A1A2A3" stroke="url(#aB)" stroke-width=".097"/><rect x="51.868" y="88.33" width="9.042" height="3.125" rx=".146" fill="#A1A2A3" stroke="url(#aC)" stroke-width=".097"/><rect x="51.868" y="93.896" width="9.042" height="3.125" rx=".146" fill="#A1A2A3" stroke="url(#aD)" stroke-width=".097"/><rect x="51.868" y="63.721" width="6.708" height="1.075" rx=".146" fill="#A1A2A3" stroke="url(#aE)" stroke-width=".097"/><rect x="30.187" y="54.931" width="2.819" height="1.075" rx=".146" fill="#A1A2A3" stroke="url(#aF)" stroke-width=".097"/><rect x="39.424" y="54.931" width="2.819" height="1.075" rx=".146" fill="#A1A2A3" stroke="url(#aG)" stroke-width=".097"/><rect x="48.66" y="54.931" width="2.819" height="1.075" rx=".146" fill="#A1A2A3" stroke="url(#aH)" stroke-width=".097"/><rect x="57.896" y="54.931" width="2.819" height="1.075" rx=".146" fill="#A1A2A3" stroke="url(#aI)" stroke-width=".097"/><rect x="67.132" y="54.931" width="2.819" height="1.075" rx=".146" fill="#A1A2A3" stroke="url(#aJ)" stroke-width=".097"/><rect x="1.215" y="8.057" width="19.25" height="2.637" rx=".535" fill="#A1A2A3" stroke="url(#aK)" stroke-width=".097"/><rect x="1.215" y="89.502" width="19.25" height="2.637" rx=".535" fill="#A1A2A3" stroke="url(#aL)" stroke-width=".097"/><rect x="1.215" y="11.376" width="19.25" height="2.637" rx=".535" fill="#A1A2A3" stroke="url(#aM)" stroke-width=".097"/><rect x="1.215" y="92.822" width="19.25" height="2.637" rx=".535" fill="#A1A2A3" stroke="url(#aN)" stroke-width=".097"/><rect x="1.215" y="14.697" width="19.25" height="2.637" rx=".535" fill="#A1A2A3" stroke="url(#aO)" stroke-width=".097"/><rect x="1.215" y="96.143" width="19.25" height="2.637" rx=".535" fill="#A1A2A3" stroke="url(#aP)" stroke-width=".097"/><rect x="18.618" y="1.708" width="1.847" height="1.856" rx=".535" fill="#A1A2A3" stroke="url(#aQ)" stroke-width=".097"/><rect x="4.812" y="1.905" width="5.931" height="1.465" rx=".146" fill="#A1A2A3" stroke="url(#aR)" stroke-width=".097"/><g clip-path="url(#aS)"><mask id="aT" style="mask-type:alpha" maskUnits="userSpaceOnUse" x="30" y="21" width="105" height="33"><path fill="#D9D9D9" d="M30.042 21.973h104.806v31.738H30.042z"/></mask><g mask="url(#aT)"><path d="M40.327 50.038c-3.1 0-10.431-3.282-10.431-3.282v6.906h104.952V22.168c-4.133 0-7.479 5.73-10.038 5.73s-5.708-3.477-9.398-3.477c-3.69 0-6.938 11.608-9.693 11.608s-4.428-3.722-7.134-3.722c-2.707 0-7.725 8.375-10.53 8.375-2.805 0-6.643-4.653-9.546-4.653-2.903 0-7.38 5.486-10.185 5.486-2.805 0-5.117-2.106-8.66-2.106-3.542 0-8.118 4.31-8.118 4.31s-8.119 6.319-11.219 6.319Z" fill="url(#aU)"/><path fill-rule="evenodd" clip-rule="evenodd" d="M126.993 27.164c-.743.54-1.476.933-2.183.933-.682 0-1.389-.23-2.111-.561-.591-.27-1.206-.614-1.837-.967l-.422-.236c-1.572-.871-3.24-1.714-5.028-1.714-.408 0-.823.16-1.249.462-.426.303-.853.741-1.281 1.278-.855 1.074-1.685 2.512-2.495 3.965l-.351.632c-.683 1.232-1.35 2.437-1.997 3.375-.378.55-.756 1.019-1.133 1.352-.375.33-.772.548-1.187.548-1.456 0-2.615-.98-3.698-1.896l-.023-.02c-.551-.465-1.085-.916-1.646-1.254-.562-.338-1.139-.554-1.767-.554-.29 0-.63.113-1.017.334-.386.22-.803.538-1.246.926-.871.765-1.816 1.783-2.773 2.815l-.048.051c-.97 1.046-1.952 2.101-2.87 2.895-.458.398-.906.734-1.333.973-.426.237-.845.385-1.243.385-.752 0-1.553-.31-2.361-.752-.795-.434-1.621-1.008-2.44-1.578l-.048-.033c-.838-.583-1.668-1.158-2.468-1.588-.802-.431-1.552-.704-2.228-.704-.67 0-1.457.32-2.322.83-.86.508-1.771 1.187-2.69 1.874l-.052.04c-.897.67-1.8 1.347-2.654 1.858-.865.518-1.71.886-2.468.886-1.358 0-2.602-.48-3.876-.972l-.248-.095c-1.37-.526-2.804-1.04-4.535-1.04-1.707 0-3.693 1.045-5.277 2.121a25.066 25.066 0 0 0-2.656 2.09l-.02.019a2.75 2.75 0 0 0-.018.016l-.01.01-.003.002-.006.006-.008.006-.121-.154.121.154-.006.005-.018.013a19.868 19.868 0 0 1-.333.255 73.777 73.777 0 0 1-4.103 2.897c-1.211.792-2.524 1.587-3.731 2.184-1.198.593-2.323 1.008-3.148 1.008-.803 0-1.863-.211-2.99-.52a43.241 43.241 0 0 1-3.457-1.133 74.424 74.424 0 0 1-4.044-1.637l-.02-.01h-.001l.08-.179.081-.178.005.002.016.007.061.027c.054.024.134.06.237.104a74.117 74.117 0 0 0 3.722 1.496c1.107.41 2.309.818 3.424 1.123 1.12.307 2.138.506 2.886.506.724 0 1.776-.375 2.973-.967 1.187-.588 2.485-1.373 3.69-2.161a73.422 73.422 0 0 0 4.343-3.08l.068-.053.016-.013.007-.006a8.126 8.126 0 0 1 .193-.176 25.494 25.494 0 0 1 2.548-1.987c1.589-1.079 3.662-2.19 5.499-2.19 1.81 0 3.304.54 4.677 1.067l.23.089c1.291.497 2.47.952 3.752.952.645 0 1.411-.319 2.265-.83.836-.5 1.726-1.166 2.63-1.843l.043-.032c.914-.684 1.843-1.377 2.725-1.898.879-.518 1.741-.885 2.523-.885.774 0 1.593.31 2.415.75.823.443 1.672 1.032 2.507 1.613l.038.026c.826.575 1.637 1.139 2.413 1.563.79.431 1.521.703 2.172.703.303 0 .654-.114 1.05-.335.395-.22.82-.538 1.269-.926.897-.777 1.864-1.816 2.838-2.866l.056-.06c.951-1.025 1.907-2.056 2.794-2.834.452-.397.892-.734 1.31-.972.416-.237.826-.386 1.213-.386.724 0 1.37.25 1.97.61.589.354 1.144.823 1.685 1.28l.021.019c1.115.943 2.166 1.815 3.458 1.815.274 0 .581-.145.926-.45.342-.302.698-.74 1.07-1.28.634-.92 1.291-2.105 1.975-3.34.117-.21.234-.423.353-.635.808-1.45 1.653-2.916 2.531-4.019.439-.552.893-1.02 1.361-1.353.468-.333.962-.535 1.477-.535 1.902 0 3.654.896 5.219 1.764l.43.24c.63.351 1.228.686 1.802.949.704.322 1.349.525 1.947.525.572 0 1.216-.323 1.95-.858.555-.403 1.136-.908 1.753-1.445.195-.17.394-.342.597-.516.838-.717 1.735-1.444 2.687-1.991.952-.548 1.971-.922 3.05-.922v.392c-.987 0-1.936.342-2.853.87-.918.527-1.792 1.233-2.627 1.949-.197.168-.392.337-.585.505-.62.54-1.22 1.06-1.789 1.475Z" fill="#1DC538"/></g></g></g><defs><linearGradient id="e" x1="80.5" y1="2.344" x2="80.5" y2="57.227" gradientUnits="userSpaceOnUse"><stop stop-color="#0D141F" stop-opacity=".51"/><stop offset="1" stop-color="#142133"/></linearGradient><linearGradient id="f" x1="80.5" y1="2.344" x2="80.5" y2="57.227" gradientUnits="userSpaceOnUse"><stop stop-color="#FAFAFA" stop-opacity=".15"/><stop offset="1" stop-color="#DDDCDC" stop-opacity=".2"/></linearGradient><linearGradient id="i" x1="80.5" y1="59.57" x2="80.5" y2="98.242" gradientUnits="userSpaceOnUse"><stop stop-color="#0D141F" stop-opacity=".51"/><stop offset="1" stop-color="#142133"/></linearGradient><linearGradient id="j" x1="80.5" y1="59.57" x2="80.5" y2="98.242" gradientUnits="userSpaceOnUse"><stop stop-color="#FAFAFA" stop-opacity=".15"/><stop offset="1" stop-color="#DDDCDC" stop-opacity=".2"/></linearGradient><linearGradient id="k" x1="127.604" y1="7.031" x2="127.604" y2="11.23" gradientUnits="userSpaceOnUse"><stop stop-color="#FAFAFA" stop-opacity=".15"/><stop offset="1" stop-color="#DDDCDC" stop-opacity=".2"/></linearGradient><linearGradient id="l" x1="112.924" y1="7.031" x2="112.924" y2="11.23" gradientUnits="userSpaceOnUse"><stop stop-color="#FAFAFA" stop-opacity=".15"/><stop offset="1" stop-color="#DDDCDC" stop-opacity=".2"/></linearGradient><linearGradient id="m" x1="83.805" y1="66.016" x2="83.805" y2="69.238" gradientUnits="userSpaceOnUse"><stop stop-color="#FAFAFA" stop-opacity=".15"/><stop offset="1" stop-color="#DDDCDC" stop-opacity=".2"/></linearGradient><linearGradient id="n" x1="83.805" y1="71.582" x2="83.805" y2="74.805" gradientUnits="userSpaceOnUse"><stop stop-color="#FAFAFA" stop-opacity=".15"/><stop offset="1" stop-color="#DDDCDC" stop-opacity=".2"/></linearGradient><linearGradient id="o" x1="83.805" y1="77.148" x2="83.805" y2="80.371" gradientUnits="userSpaceOnUse"><stop stop-color="#FAFAFA" stop-opacity=".15"/><stop offset="1" stop-color="#DDDCDC" stop-opacity=".2"/></linearGradient><linearGradient id="p" x1="83.805" y1="82.715" x2="83.805" y2="85.938" gradientUnits="userSpaceOnUse"><stop stop-color="#FAFAFA" stop-opacity=".15"/><stop offset="1" stop-color="#DDDCDC" stop-opacity=".2"/></linearGradient><linearGradient id="q" x1="83.805" y1="88.281" x2="83.805" y2="91.504" gradientUnits="userSpaceOnUse"><stop stop-color="#FAFAFA" stop-opacity=".15"/><stop offset="1" stop-color="#DDDCDC" stop-opacity=".2"/></linearGradient><linearGradient id="r" x1="83.805" y1="93.848" x2="83.805" y2="97.07" gradientUnits="userSpaceOnUse"><stop stop-color="#FAFAFA" stop-opacity=".15"/><stop offset="1" stop-color="#DDDCDC" stop-opacity=".2"/></linearGradient><linearGradient id="s" x1="109.18" y1="66.016" x2="109.18" y2="69.238" gradientUnits="userSpaceOnUse"><stop stop-color="#FAFAFA" stop-opacity=".15"/><stop offset="1" stop-color="#DDDCDC" stop-opacity=".2"/></linearGradient><linearGradient id="t" x1="109.18" y1="71.582" x2="109.18" y2="74.805" gradientUnits="userSpaceOnUse"><stop stop-color="#FAFAFA" stop-opacity=".15"/><stop offset="1" stop-color="#DDDCDC" stop-opacity=".2"/></linearGradient><linearGradient id="u" x1="109.18" y1="77.148" x2="109.18" y2="80.371" gradientUnits="userSpaceOnUse"><stop stop-color="#FAFAFA" stop-opacity=".15"/><stop offset="1" stop-color="#DDDCDC" stop-opacity=".2"/></linearGradient><linearGradient id="v" x1="109.18" y1="82.715" x2="109.18" y2="85.938" gradientUnits="userSpaceOnUse"><stop stop-color="#FAFAFA" stop-opacity=".15"/><stop offset="1" stop-color="#DDDCDC" stop-opacity=".2"/></linearGradient><linearGradient id="w" x1="109.18" y1="88.281" x2="109.18" y2="91.504" gradientUnits="userSpaceOnUse"><stop stop-color="#FAFAFA" stop-opacity=".15"/><stop offset="1" stop-color="#DDDCDC" stop-opacity=".2"/></linearGradient><linearGradient id="x" x1="109.18" y1="93.848" x2="109.18" y2="97.07" gradientUnits="userSpaceOnUse"><stop stop-color="#FAFAFA" stop-opacity=".15"/><stop offset="1" stop-color="#DDDCDC" stop-opacity=".2"/></linearGradient><linearGradient id="y" x1="128.042" y1="66.016" x2="128.042" y2="69.238" gradientUnits="userSpaceOnUse"><stop stop-color="#FAFAFA" stop-opacity=".15"/><stop offset="1" stop-color="#DDDCDC" stop-opacity=".2"/></linearGradient><linearGradient id="z" x1="128.042" y1="71.582" x2="128.042" y2="74.805" gradientUnits="userSpaceOnUse"><stop stop-color="#FAFAFA" stop-opacity=".15"/><stop offset="1" stop-color="#DDDCDC" stop-opacity=".2"/></linearGradient><linearGradient id="A" x1="128.042" y1="77.148" x2="128.042" y2="80.371" gradientUnits="userSpaceOnUse"><stop stop-color="#FAFAFA" stop-opacity=".15"/><stop offset="1" stop-color="#DDDCDC" stop-opacity=".2"/></linearGradient><linearGradient id="B" x1="128.042" y1="82.715" x2="128.042" y2="85.938" gradientUnits="userSpaceOnUse"><stop stop-color="#FAFAFA" stop-opacity=".15"/><stop offset="1" stop-color="#DDDCDC" stop-opacity=".2"/></linearGradient><linearGradient id="C" x1="128.042" y1="88.281" x2="128.042" y2="91.504" gradientUnits="userSpaceOnUse"><stop stop-color="#FAFAFA" stop-opacity=".15"/><stop offset="1" stop-color="#DDDCDC" stop-opacity=".2"/></linearGradient><linearGradient id="D" x1="128.042" y1="93.848" x2="128.042" y2="97.07" gradientUnits="userSpaceOnUse"><stop stop-color="#FAFAFA" stop-opacity=".15"/><stop offset="1" stop-color="#DDDCDC" stop-opacity=".2"/></linearGradient><linearGradient id="E" x1="80.597" y1="63.672" x2="80.597" y2="64.844" gradientUnits="userSpaceOnUse"><stop stop-color="#FAFAFA" stop-opacity=".15"/><stop offset="1" stop-color="#DDDCDC" stop-opacity=".2"/></linearGradient><linearGradient id="F" x1="105.972" y1="63.672" x2="105.972" y2="64.844" gradientUnits="userSpaceOnUse"><stop stop-color="#FAFAFA" stop-opacity=".15"/><stop offset="1" stop-color="#DDDCDC" stop-opacity=".2"/></linearGradient><linearGradient id="G" x1="131.347" y1="63.672" x2="131.347" y2="64.844" gradientUnits="userSpaceOnUse"><stop stop-color="#FAFAFA" stop-opacity=".15"/><stop offset="1" stop-color="#DDDCDC" stop-opacity=".2"/></linearGradient><linearGradient id="H" x1="77.778" y1="54.883" x2="77.778" y2="56.055" gradientUnits="userSpaceOnUse"><stop stop-color="#FAFAFA" stop-opacity=".15"/><stop offset="1" stop-color="#DDDCDC" stop-opacity=".2"/></linearGradient><linearGradient id="I" x1="87.014" y1="54.883" x2="87.014" y2="56.055" gradientUnits="userSpaceOnUse"><stop stop-color="#FAFAFA" stop-opacity=".15"/><stop offset="1" stop-color="#DDDCDC" stop-opacity=".2"/></linearGradient><linearGradient id="J" x1="96.25" y1="54.883" x2="96.25" y2="56.055" gradientUnits="userSpaceOnUse"><stop stop-color="#FAFAFA" stop-opacity=".15"/><stop offset="1" stop-color="#DDDCDC" stop-opacity=".2"/></linearGradient><linearGradient id="K" x1="105.486" y1="54.883" x2="105.486" y2="56.055" gradientUnits="userSpaceOnUse"><stop stop-color="#FAFAFA" stop-opacity=".15"/><stop offset="1" stop-color="#DDDCDC" stop-opacity=".2"/></linearGradient><linearGradient id="L" x1="114.722" y1="54.883" x2="114.722" y2="56.055" gradientUnits="userSpaceOnUse"><stop stop-color="#FAFAFA" stop-opacity=".15"/><stop offset="1" stop-color="#DDDCDC" stop-opacity=".2"/></linearGradient><linearGradient id="M" x1="123.958" y1="54.883" x2="123.958" y2="56.055" gradientUnits="userSpaceOnUse"><stop stop-color="#FAFAFA" stop-opacity=".15"/><stop offset="1" stop-color="#DDDCDC" stop-opacity=".2"/></linearGradient><linearGradient id="N" x1="133.195" y1="54.883" x2="133.195" y2="56.055" gradientUnits="userSpaceOnUse"><stop stop-color="#FAFAFA" stop-opacity=".15"/><stop offset="1" stop-color="#DDDCDC" stop-opacity=".2"/></linearGradient><linearGradient id="Q" x1="82.177" y1="22.167" x2="82.177" y2="53.661" gradientUnits="userSpaceOnUse"><stop stop-color="#1DC538" stop-opacity=".39"/><stop offset="1" stop-color="#0E1721" stop-opacity="0"/></linearGradient><linearGradient id="V" x1="10.84" y1="0" x2="10.84" y2="100" gradientUnits="userSpaceOnUse"><stop stop-color="#CBCDCF" stop-opacity=".51"/><stop offset="1" stop-color="#D5D6D8"/></linearGradient><linearGradient id="W" x1="10.84" y1="0" x2="10.84" y2="50" gradientUnits="userSpaceOnUse"><stop stop-color="#050505" stop-opacity=".15"/><stop offset="1" stop-color="#212121" stop-opacity=".2"/></linearGradient><linearGradient id="aa" x1="80.5" y1="2.343" x2="80.5" y2="57.226" gradientUnits="userSpaceOnUse"><stop stop-color="#CBCDCF" stop-opacity=".51"/><stop offset="1" stop-color="#D5D6D8"/></linearGradient><linearGradient id="ab" x1="80.5" y1="2.343" x2="80.5" y2="29.785" gradientUnits="userSpaceOnUse"><stop stop-color="#050505" stop-opacity=".15"/><stop offset="1" stop-color="#212121" stop-opacity=".2"/></linearGradient><linearGradient id="ae" x1="80.5" y1="59.57" x2="80.5" y2="98.242" gradientUnits="userSpaceOnUse"><stop stop-color="#CBCDCF" stop-opacity=".51"/><stop offset="1" stop-color="#D5D6D8"/></linearGradient><linearGradient id="af" x1="80.5" y1="59.57" x2="80.5" y2="78.906" gradientUnits="userSpaceOnUse"><stop stop-color="#050505" stop-opacity=".15"/><stop offset="1" stop-color="#212121" stop-opacity=".2"/></linearGradient><linearGradient id="ag" x1="2.625" y1="1.172" x2="2.625" y2="2.637" gradientUnits="userSpaceOnUse"><stop stop-color="#050505" stop-opacity=".15"/><stop offset="1" stop-color="#212121" stop-opacity=".2"/></linearGradient><linearGradient id="ah" x1="10.84" y1="4.688" x2="10.84" y2="6.055" gradientUnits="userSpaceOnUse"><stop stop-color="#050505" stop-opacity=".15"/><stop offset="1" stop-color="#212121" stop-opacity=".2"/></linearGradient><linearGradient id="ai" x1="29.069" y1="3.516" x2="29.069" y2="4.102" gradientUnits="userSpaceOnUse"><stop stop-color="#050505" stop-opacity=".15"/><stop offset="1" stop-color="#212121" stop-opacity=".2"/></linearGradient><linearGradient id="aj" x1="38.062" y1="5.078" x2="38.062" y2="8.057" gradientUnits="userSpaceOnUse"><stop stop-color="#050505" stop-opacity=".15"/><stop offset="1" stop-color="#212121" stop-opacity=".2"/></linearGradient><linearGradient id="ak" x1="27.805" y1="12.598" x2="27.805" y2="13.184" gradientUnits="userSpaceOnUse"><stop stop-color="#050505" stop-opacity=".15"/><stop offset="1" stop-color="#212121" stop-opacity=".2"/></linearGradient><linearGradient id="al" x1="27.805" y1="20.585" x2="27.805" y2="21.171" gradientUnits="userSpaceOnUse"><stop stop-color="#050505" stop-opacity=".15"/><stop offset="1" stop-color="#212121" stop-opacity=".2"/></linearGradient><linearGradient id="am" x1="27.805" y1="28.574" x2="27.805" y2="29.16" gradientUnits="userSpaceOnUse"><stop stop-color="#050505" stop-opacity=".15"/><stop offset="1" stop-color="#212121" stop-opacity=".2"/></linearGradient><linearGradient id="an" x1="27.805" y1="36.563" x2="27.805" y2="37.149" gradientUnits="userSpaceOnUse"><stop stop-color="#050505" stop-opacity=".15"/><stop offset="1" stop-color="#212121" stop-opacity=".2"/></linearGradient><linearGradient id="ao" x1="27.805" y1="44.551" x2="27.805" y2="45.137" gradientUnits="userSpaceOnUse"><stop stop-color="#050505" stop-opacity=".15"/><stop offset="1" stop-color="#212121" stop-opacity=".2"/></linearGradient><linearGradient id="ap" x1="27.805" y1="52.539" x2="27.805" y2="53.125" gradientUnits="userSpaceOnUse"><stop stop-color="#050505" stop-opacity=".15"/><stop offset="1" stop-color="#212121" stop-opacity=".2"/></linearGradient><linearGradient id="aq" x1="29.75" y1="63.672" x2="29.75" y2="64.258" gradientUnits="userSpaceOnUse"><stop stop-color="#050505" stop-opacity=".15"/><stop offset="1" stop-color="#212121" stop-opacity=".2"/></linearGradient><linearGradient id="ar" x1="33.639" y1="60.743" x2="33.639" y2="61.426" gradientUnits="userSpaceOnUse"><stop stop-color="#050505" stop-opacity=".15"/><stop offset="1" stop-color="#212121" stop-opacity=".2"/></linearGradient><linearGradient id="as" x1="30.917" y1="66.016" x2="30.917" y2="67.627" gradientUnits="userSpaceOnUse"><stop stop-color="#050505" stop-opacity=".15"/><stop offset="1" stop-color="#212121" stop-opacity=".2"/></linearGradient><linearGradient id="at" x1="30.917" y1="71.582" x2="30.917" y2="73.193" gradientUnits="userSpaceOnUse"><stop stop-color="#050505" stop-opacity=".15"/><stop offset="1" stop-color="#212121" stop-opacity=".2"/></linearGradient><linearGradient id="au" x1="30.917" y1="77.148" x2="30.917" y2="78.76" gradientUnits="userSpaceOnUse"><stop stop-color="#050505" stop-opacity=".15"/><stop offset="1" stop-color="#212121" stop-opacity=".2"/></linearGradient><linearGradient id="av" x1="30.917" y1="82.715" x2="30.917" y2="84.327" gradientUnits="userSpaceOnUse"><stop stop-color="#050505" stop-opacity=".15"/><stop offset="1" stop-color="#212121" stop-opacity=".2"/></linearGradient><linearGradient id="aw" x1="30.917" y1="88.281" x2="30.917" y2="89.893" gradientUnits="userSpaceOnUse"><stop stop-color="#050505" stop-opacity=".15"/><stop offset="1" stop-color="#212121" stop-opacity=".2"/></linearGradient><linearGradient id="ax" x1="30.917" y1="93.848" x2="30.917" y2="95.459" gradientUnits="userSpaceOnUse"><stop stop-color="#050505" stop-opacity=".15"/><stop offset="1" stop-color="#212121" stop-opacity=".2"/></linearGradient><linearGradient id="ay" x1="56.389" y1="66.016" x2="56.389" y2="67.627" gradientUnits="userSpaceOnUse"><stop stop-color="#050505" stop-opacity=".15"/><stop offset="1" stop-color="#212121" stop-opacity=".2"/></linearGradient><linearGradient id="az" x1="56.389" y1="71.582" x2="56.389" y2="73.193" gradientUnits="userSpaceOnUse"><stop stop-color="#050505" stop-opacity=".15"/><stop offset="1" stop-color="#212121" stop-opacity=".2"/></linearGradient><linearGradient id="aA" x1="56.389" y1="77.148" x2="56.389" y2="78.76" gradientUnits="userSpaceOnUse"><stop stop-color="#050505" stop-opacity=".15"/><stop offset="1" stop-color="#212121" stop-opacity=".2"/></linearGradient><linearGradient id="aB" x1="56.389" y1="82.715" x2="56.389" y2="84.327" gradientUnits="userSpaceOnUse"><stop stop-color="#050505" stop-opacity=".15"/><stop offset="1" stop-color="#212121" stop-opacity=".2"/></linearGradient><linearGradient id="aC" x1="56.389" y1="88.281" x2="56.389" y2="89.893" gradientUnits="userSpaceOnUse"><stop stop-color="#050505" stop-opacity=".15"/><stop offset="1" stop-color="#212121" stop-opacity=".2"/></linearGradient><linearGradient id="aD" x1="56.389" y1="93.848" x2="56.389" y2="95.459" gradientUnits="userSpaceOnUse"><stop stop-color="#050505" stop-opacity=".15"/><stop offset="1" stop-color="#212121" stop-opacity=".2"/></linearGradient><linearGradient id="aE" x1="55.222" y1="63.672" x2="55.222" y2="64.258" gradientUnits="userSpaceOnUse"><stop stop-color="#050505" stop-opacity=".15"/><stop offset="1" stop-color="#212121" stop-opacity=".2"/></linearGradient><linearGradient id="aF" x1="31.597" y1="54.883" x2="31.597" y2="55.469" gradientUnits="userSpaceOnUse"><stop stop-color="#050505" stop-opacity=".15"/><stop offset="1" stop-color="#212121" stop-opacity=".2"/></linearGradient><linearGradient id="aG" x1="40.833" y1="54.883" x2="40.833" y2="55.469" gradientUnits="userSpaceOnUse"><stop stop-color="#050505" stop-opacity=".15"/><stop offset="1" stop-color="#212121" stop-opacity=".2"/></linearGradient><linearGradient id="aH" x1="50.07" y1="54.883" x2="50.07" y2="55.469" gradientUnits="userSpaceOnUse"><stop stop-color="#050505" stop-opacity=".15"/><stop offset="1" stop-color="#212121" stop-opacity=".2"/></linearGradient><linearGradient id="aI" x1="59.306" y1="54.883" x2="59.306" y2="55.469" gradientUnits="userSpaceOnUse"><stop stop-color="#050505" stop-opacity=".15"/><stop offset="1" stop-color="#212121" stop-opacity=".2"/></linearGradient><linearGradient id="aJ" x1="68.542" y1="54.883" x2="68.542" y2="55.469" gradientUnits="userSpaceOnUse"><stop stop-color="#050505" stop-opacity=".15"/><stop offset="1" stop-color="#212121" stop-opacity=".2"/></linearGradient><linearGradient id="aK" x1="10.84" y1="8.008" x2="10.84" y2="9.375" gradientUnits="userSpaceOnUse"><stop stop-color="#050505" stop-opacity=".15"/><stop offset="1" stop-color="#212121" stop-opacity=".2"/></linearGradient><linearGradient id="aL" x1="10.84" y1="89.453" x2="10.84" y2="90.82" gradientUnits="userSpaceOnUse"><stop stop-color="#050505" stop-opacity=".15"/><stop offset="1" stop-color="#212121" stop-opacity=".2"/></linearGradient><linearGradient id="aM" x1="10.84" y1="11.328" x2="10.84" y2="12.695" gradientUnits="userSpaceOnUse"><stop stop-color="#050505" stop-opacity=".15"/><stop offset="1" stop-color="#212121" stop-opacity=".2"/></linearGradient><linearGradient id="aN" x1="10.84" y1="92.773" x2="10.84" y2="94.141" gradientUnits="userSpaceOnUse"><stop stop-color="#050505" stop-opacity=".15"/><stop offset="1" stop-color="#212121" stop-opacity=".2"/></linearGradient><linearGradient id="aO" x1="10.84" y1="14.648" x2="10.84" y2="16.015" gradientUnits="userSpaceOnUse"><stop stop-color="#050505" stop-opacity=".15"/><stop offset="1" stop-color="#212121" stop-opacity=".2"/></linearGradient><linearGradient id="aP" x1="10.84" y1="96.094" x2="10.84" y2="97.461" gradientUnits="userSpaceOnUse"><stop stop-color="#050505" stop-opacity=".15"/><stop offset="1" stop-color="#212121" stop-opacity=".2"/></linearGradient><linearGradient id="aQ" x1="19.542" y1="1.66" x2="19.542" y2="2.636" gradientUnits="userSpaceOnUse"><stop stop-color="#050505" stop-opacity=".15"/><stop offset="1" stop-color="#212121" stop-opacity=".2"/></linearGradient><linearGradient id="aR" x1="7.778" y1="1.856" x2="7.778" y2="2.637" gradientUnits="userSpaceOnUse"><stop stop-color="#050505" stop-opacity=".15"/><stop offset="1" stop-color="#212121" stop-opacity=".2"/></linearGradient><linearGradient id="aU" x1="82.372" y1="22.168" x2="82.372" y2="53.662" gradientUnits="userSpaceOnUse"><stop stop-color="#1DC538" stop-opacity=".39"/><stop offset="1" stop-color="#CFD0D2"/></linearGradient><radialGradient id="b" cx="0" cy="0" r="1" gradientUnits="userSpaceOnUse" gradientTransform="rotate(35.633) scale(100.659 141.756)"><stop stop-color="#0E1724"/><stop offset="1" stop-color="#0B121C"/></radialGradient><radialGradient id="d" cx="0" cy="0" r="1" gradientUnits="userSpaceOnUse" gradientTransform="matrix(0 27.4414 -55.3194 0 80.5 2.344)"><stop stop-color="#0E1724" stop-opacity=".8"/><stop offset="1" stop-color="#090F17" stop-opacity=".16"/></radialGradient><radialGradient id="h" cx="0" cy="0" r="1" gradientUnits="userSpaceOnUse" gradientTransform="matrix(0 19.3359 -55.3194 0 80.5 59.57)"><stop stop-color="#0E1724" stop-opacity=".8"/><stop offset="1" stop-color="#090F17" stop-opacity=".16"/></radialGradient><radialGradient id="S" cx="0" cy="0" r="1" gradientUnits="userSpaceOnUse" gradientTransform="rotate(35.633) scale(100.659 141.756)"><stop stop-color="#D8D9DB"/><stop offset="1" stop-color="#CECFD1"/></radialGradient><radialGradient id="U" cx="0" cy="0" r="1" gradientUnits="userSpaceOnUse" gradientTransform="matrix(0 50 -10.8403 0 10.84 0)"><stop stop-color="#E2E3E6" stop-opacity=".8"/><stop offset="1" stop-color="#CECFD1" stop-opacity=".16"/></radialGradient><radialGradient id="Z" cx="0" cy="0" r="1" gradientUnits="userSpaceOnUse" gradientTransform="matrix(0 27.4414 -55.3194 0 80.5 2.343)"><stop stop-color="#E2E3E6" stop-opacity=".8"/><stop offset="1" stop-color="#CECFD1" stop-opacity=".16"/></radialGradient><radialGradient id="ad" cx="0" cy="0" r="1" gradientUnits="userSpaceOnUse" gradientTransform="matrix(0 19.3359 -55.3194 0 80.5 59.57)"><stop stop-color="#E2E3E6" stop-opacity=".8"/><stop offset="1" stop-color="#CECFD1" stop-opacity=".16"/></radialGradient><filter id="c" x="23.625" y=".788" width="113.75" height="57.994" filterUnits="userSpaceOnUse" color-interpolation-filters="sRGB"><feFlood flood-opacity="0" result="BackgroundImageFix"/><feGaussianBlur in="BackgroundImageFix" stdDeviation=".778"/><feComposite in2="SourceAlpha" operator="in" result="effect1_backgroundBlur_287_19478"/><feBlend in="SourceGraphic" in2="effect1_backgroundBlur_287_19478" result="shape"/></filter><filter id="g" x="23.625" y="58.015" width="113.75" height="41.783" filterUnits="userSpaceOnUse" color-interpolation-filters="sRGB"><feFlood flood-opacity="0" result="BackgroundImageFix"/><feGaussianBlur in="BackgroundImageFix" stdDeviation=".778"/><feComposite in2="SourceAlpha" operator="in" result="effect1_backgroundBlur_287_19478"/><feBlend in="SourceGraphic" in2="effect1_backgroundBlur_287_19478" result="shape"/></filter><filter id="T" x="-1.556" y="-1.556" width="24.792" height="103.111" filterUnits="userSpaceOnUse" color-interpolation-filters="sRGB"><feFlood flood-opacity="0" result="BackgroundImageFix"/><feGaussianBlur in="BackgroundImageFix" stdDeviation=".778"/><feComposite in2="SourceAlpha" operator="in" result="effect1_backgroundBlur_287_19478"/><feBlend in="SourceGraphic" in2="effect1_backgroundBlur_287_19478" result="shape"/></filter><filter id="Y" x="23.625" y=".788" width="113.75" height="57.994" filterUnits="userSpaceOnUse" color-interpolation-filters="sRGB"><feFlood flood-opacity="0" result="BackgroundImageFix"/><feGaussianBlur in="BackgroundImageFix" stdDeviation=".778"/><feComposite in2="SourceAlpha" operator="in" result="effect1_backgroundBlur_287_19478"/><feBlend in="SourceGraphic" in2="effect1_backgroundBlur_287_19478" result="shape"/></filter><filter id="ac" x="23.625" y="58.015" width="113.75" height="41.783" filterUnits="userSpaceOnUse" color-interpolation-filters="sRGB"><feFlood flood-opacity="0" result="BackgroundImageFix"/><feGaussianBlur in="BackgroundImageFix" stdDeviation=".778"/><feComposite in2="SourceAlpha" operator="in" result="effect1_backgroundBlur_287_19478"/><feBlend in="SourceGraphic" in2="effect1_backgroundBlur_287_19478" result="shape"/></filter><clipPath id="a"><path fill="#fff" transform="translate(70)" d="M0 0h70v100H0z"/></clipPath><clipPath id="O"><path fill="#fff" transform="translate(29.847 21.972)" d="M0 0h104.806v31.738H0z"/></clipPath><clipPath id="R"><path fill="#fff" d="M0 0h70v100H0z"/></clipPath><clipPath id="aS"><path fill="#fff" transform="translate(30.042 21.973)" d="M0 0h104.806v31.738H0z"/></clipPath></defs></svg>