<svg width="140" height="100" viewBox="0 0 140 100" fill="none" xmlns="http://www.w3.org/2000/svg">
<path d="M0 1.55556C0 0.696446 0.696446 0 1.55556 0H138.444C139.304 0 140 0.696446 140 1.55556V100H0V1.55556Z" fill="url(#paint0_radial_287_19149)"/>
<g filter="url(#filter0_b_287_19149)">
<mask id="path-2-inside-1_287_19149" fill="white">
<path d="M0 1.55556C0 0.696446 0.696446 0 1.55556 0H21.6806V100H0V1.55556Z"/>
</mask>
<path d="M0 1.55556C0 0.696446 0.696446 0 1.55556 0H21.6806V100H0V1.55556Z" fill="url(#paint1_radial_287_19149)"/>
<path d="M0 1.55556C0 0.696446 0.696446 0 1.55556 0H21.6806V100H0V1.55556Z" fill="url(#paint2_linear_287_19149)" fill-opacity="0.2"/>
<path d="M0 0H21.6806H0ZM21.6806 100H0H21.6806ZM0 100V0V100ZM21.7778 0V100H21.5833V0H21.7778Z" fill="url(#paint3_linear_287_19149)" mask="url(#path-2-inside-1_287_19149)"/>
</g>
<g filter="url(#filter1_b_287_19149)">
<rect x="25.1807" y="2.34375" width="110.639" height="54.8828" rx="0.583333" fill="url(#paint4_radial_287_19149)"/>
<rect x="25.1807" y="2.34375" width="110.639" height="54.8828" rx="0.583333" fill="url(#paint5_linear_287_19149)" fill-opacity="0.2"/>
<rect x="25.2293" y="2.39236" width="110.542" height="54.7856" rx="0.534722" stroke="url(#paint6_linear_287_19149)" stroke-width="0.0972222"/>
</g>
<g filter="url(#filter2_b_287_19149)">
<rect x="25.1807" y="59.5703" width="110.639" height="38.6719" rx="0.583333" fill="url(#paint7_radial_287_19149)"/>
<rect x="25.1807" y="59.5703" width="110.639" height="38.6719" rx="0.583333" fill="url(#paint8_linear_287_19149)" fill-opacity="0.2"/>
<rect x="25.2293" y="59.6189" width="110.542" height="38.5747" rx="0.534722" stroke="url(#paint9_linear_287_19149)" stroke-width="0.0972222"/>
</g>
<rect x="1.2156" y="1.22049" width="2.81944" height="2.83247" rx="0.534722" fill="#181F29" stroke="url(#paint10_linear_287_19149)" stroke-width="0.0972222"/>
<rect x="1.2156" y="4.73611" width="19.25" height="2.63715" rx="0.534722" fill="#181F29" stroke="url(#paint11_linear_287_19149)" stroke-width="0.0972222"/>
<rect x="26.3958" y="3.56424" width="5.34722" height="1.07465" rx="0.145833" fill="#181F29" stroke="url(#paint12_linear_287_19149)" stroke-width="0.0972222"/>
<rect x="26.3958" y="5.12674" width="23.3333" height="5.85981" rx="0.534722" fill="#181F29" stroke="url(#paint13_linear_287_19149)" stroke-width="0.0972222"/>
<rect x="120.604" y="7.07986" width="14" height="4.102" rx="0.534722" fill="#181F29" stroke="url(#paint14_linear_287_19149)" stroke-width="0.0972222"/>
<rect x="105.924" y="7.07986" width="14" height="4.102" rx="0.534722" fill="#181F29" stroke="url(#paint15_linear_287_19149)" stroke-width="0.0972222"/>
<rect x="26.3958" y="12.6463" width="2.81944" height="1.07465" rx="0.145833" fill="#181F29" stroke="url(#paint16_linear_287_19149)" stroke-width="0.0972222"/>
<rect x="26.3958" y="20.6345" width="2.81944" height="1.07465" rx="0.145833" fill="#181F29" stroke="url(#paint17_linear_287_19149)" stroke-width="0.0972222"/>
<rect x="26.3958" y="28.6228" width="2.81944" height="1.07465" rx="0.145833" fill="#181F29" stroke="url(#paint18_linear_287_19149)" stroke-width="0.0972222"/>
<rect x="26.3958" y="36.6111" width="2.81944" height="1.07465" rx="0.145833" fill="#181F29" stroke="url(#paint19_linear_287_19149)" stroke-width="0.0972222"/>
<rect x="26.3958" y="44.5999" width="2.81944" height="1.07465" rx="0.145833" fill="#181F29" stroke="url(#paint20_linear_287_19149)" stroke-width="0.0972222"/>
<rect x="26.3958" y="52.5877" width="2.81944" height="1.07465" rx="0.145833" fill="#181F29" stroke="url(#paint21_linear_287_19149)" stroke-width="0.0972222"/>
<rect x="26.3958" y="63.7205" width="6.70833" height="1.07465" rx="0.145833" fill="#181F29" stroke="url(#paint22_linear_287_19149)" stroke-width="0.0972222"/>
<rect x="26.3958" y="60.7908" width="14.4861" height="1.26997" rx="0.145833" fill="#181F29" stroke="url(#paint23_linear_287_19149)" stroke-width="0.0972222"/>
<rect x="26.3958" y="66.0642" width="9.04167" height="3.12543" rx="0.145833" fill="#181F29" stroke="url(#paint24_linear_287_19149)" stroke-width="0.0972222"/>
<rect x="26.3958" y="71.6306" width="9.04167" height="3.12543" rx="0.145833" fill="#181F29" stroke="url(#paint25_linear_287_19149)" stroke-width="0.0972222"/>
<rect x="26.3958" y="77.197" width="9.04167" height="3.12543" rx="0.145833" fill="#181F29" stroke="url(#paint26_linear_287_19149)" stroke-width="0.0972222"/>
<rect x="26.3958" y="82.7635" width="9.04167" height="3.12543" rx="0.145833" fill="#181F29" stroke="url(#paint27_linear_287_19149)" stroke-width="0.0972222"/>
<rect x="26.3958" y="88.3299" width="9.04167" height="3.12543" rx="0.145833" fill="#181F29" stroke="url(#paint28_linear_287_19149)" stroke-width="0.0972222"/>
<rect x="26.3958" y="93.8963" width="9.04167" height="3.12543" rx="0.145833" fill="#181F29" stroke="url(#paint29_linear_287_19149)" stroke-width="0.0972222"/>
<rect x="51.8679" y="66.0642" width="9.04167" height="3.12543" rx="0.145833" fill="#181F29" stroke="url(#paint30_linear_287_19149)" stroke-width="0.0972222"/>
<rect x="51.8679" y="71.6306" width="9.04167" height="3.12543" rx="0.145833" fill="#181F29" stroke="url(#paint31_linear_287_19149)" stroke-width="0.0972222"/>
<rect x="51.8679" y="77.197" width="9.04167" height="3.12543" rx="0.145833" fill="#181F29" stroke="url(#paint32_linear_287_19149)" stroke-width="0.0972222"/>
<rect x="51.8679" y="82.7635" width="9.04167" height="3.12543" rx="0.145833" fill="#181F29" stroke="url(#paint33_linear_287_19149)" stroke-width="0.0972222"/>
<rect x="51.8679" y="88.3299" width="9.04167" height="3.12543" rx="0.145833" fill="#181F29" stroke="url(#paint34_linear_287_19149)" stroke-width="0.0972222"/>
<rect x="51.8679" y="93.8963" width="9.04167" height="3.12543" rx="0.145833" fill="#181F29" stroke="url(#paint35_linear_287_19149)" stroke-width="0.0972222"/>
<rect x="77.2429" y="66.0642" width="13.125" height="3.12543" rx="0.145833" fill="#181F29" stroke="url(#paint36_linear_287_19149)" stroke-width="0.0972222"/>
<rect x="77.2429" y="71.6306" width="13.125" height="3.12543" rx="0.145833" fill="#181F29" stroke="url(#paint37_linear_287_19149)" stroke-width="0.0972222"/>
<rect x="77.2429" y="77.197" width="13.125" height="3.12543" rx="0.145833" fill="#181F29" stroke="url(#paint38_linear_287_19149)" stroke-width="0.0972222"/>
<rect x="77.2429" y="82.7635" width="13.125" height="3.12543" rx="0.145833" fill="#181F29" stroke="url(#paint39_linear_287_19149)" stroke-width="0.0972222"/>
<rect x="77.2429" y="88.3299" width="13.125" height="3.12543" rx="0.145833" fill="#181F29" stroke="url(#paint40_linear_287_19149)" stroke-width="0.0972222"/>
<rect x="77.2429" y="93.8963" width="13.125" height="3.12543" rx="0.145833" fill="#181F29" stroke="url(#paint41_linear_287_19149)" stroke-width="0.0972222"/>
<rect x="102.618" y="66.0642" width="13.125" height="3.12543" rx="0.145833" fill="#181F29" stroke="url(#paint42_linear_287_19149)" stroke-width="0.0972222"/>
<rect x="102.618" y="71.6306" width="13.125" height="3.12543" rx="0.145833" fill="#181F29" stroke="url(#paint43_linear_287_19149)" stroke-width="0.0972222"/>
<rect x="102.618" y="77.197" width="13.125" height="3.12543" rx="0.145833" fill="#181F29" stroke="url(#paint44_linear_287_19149)" stroke-width="0.0972222"/>
<rect x="102.618" y="82.7635" width="13.125" height="3.12543" rx="0.145833" fill="#181F29" stroke="url(#paint45_linear_287_19149)" stroke-width="0.0972222"/>
<rect x="102.618" y="88.3299" width="13.125" height="3.12543" rx="0.145833" fill="#181F29" stroke="url(#paint46_linear_287_19149)" stroke-width="0.0972222"/>
<rect x="102.618" y="93.8963" width="13.125" height="3.12543" rx="0.145833" fill="#181F29" stroke="url(#paint47_linear_287_19149)" stroke-width="0.0972222"/>
<rect x="121.479" y="66.0642" width="13.125" height="3.12543" rx="0.145833" fill="#181F29" stroke="url(#paint48_linear_287_19149)" stroke-width="0.0972222"/>
<rect x="121.479" y="71.6306" width="13.125" height="3.12543" rx="0.145833" fill="#181F29" stroke="url(#paint49_linear_287_19149)" stroke-width="0.0972222"/>
<rect x="121.479" y="77.197" width="13.125" height="3.12543" rx="0.145833" fill="#181F29" stroke="url(#paint50_linear_287_19149)" stroke-width="0.0972222"/>
<rect x="121.479" y="82.7635" width="13.125" height="3.12543" rx="0.145833" fill="#181F29" stroke="url(#paint51_linear_287_19149)" stroke-width="0.0972222"/>
<rect x="121.479" y="88.3299" width="13.125" height="3.12543" rx="0.145833" fill="#181F29" stroke="url(#paint52_linear_287_19149)" stroke-width="0.0972222"/>
<rect x="121.479" y="93.8963" width="13.125" height="3.12543" rx="0.145833" fill="#181F29" stroke="url(#paint53_linear_287_19149)" stroke-width="0.0972222"/>
<rect x="51.8679" y="63.7205" width="6.70833" height="1.07465" rx="0.145833" fill="#181F29" stroke="url(#paint54_linear_287_19149)" stroke-width="0.0972222"/>
<rect x="77.2429" y="63.7205" width="6.70833" height="1.07465" rx="0.145833" fill="#181F29" stroke="url(#paint55_linear_287_19149)" stroke-width="0.0972222"/>
<rect x="102.618" y="63.7205" width="6.70833" height="1.07465" rx="0.145833" fill="#181F29" stroke="url(#paint56_linear_287_19149)" stroke-width="0.0972222"/>
<rect x="127.993" y="63.7205" width="6.70833" height="1.07465" rx="0.145833" fill="#181F29" stroke="url(#paint57_linear_287_19149)" stroke-width="0.0972222"/>
<rect x="30.1873" y="54.9314" width="2.81944" height="1.07465" rx="0.145833" fill="#181F29" stroke="url(#paint58_linear_287_19149)" stroke-width="0.0972222"/>
<rect x="39.4236" y="54.9314" width="2.81944" height="1.07465" rx="0.145833" fill="#181F29" stroke="url(#paint59_linear_287_19149)" stroke-width="0.0972222"/>
<rect x="48.6599" y="54.9314" width="2.81944" height="1.07465" rx="0.145833" fill="#181F29" stroke="url(#paint60_linear_287_19149)" stroke-width="0.0972222"/>
<rect x="57.8958" y="54.9314" width="2.81944" height="1.07465" rx="0.145833" fill="#181F29" stroke="url(#paint61_linear_287_19149)" stroke-width="0.0972222"/>
<rect x="67.1316" y="54.9314" width="2.81944" height="1.07465" rx="0.145833" fill="#181F29" stroke="url(#paint62_linear_287_19149)" stroke-width="0.0972222"/>
<rect x="76.3679" y="54.9314" width="2.81944" height="1.07465" rx="0.145833" fill="#181F29" stroke="url(#paint63_linear_287_19149)" stroke-width="0.0972222"/>
<rect x="85.6043" y="54.9314" width="2.81944" height="1.07465" rx="0.145833" fill="#181F29" stroke="url(#paint64_linear_287_19149)" stroke-width="0.0972222"/>
<rect x="94.8406" y="54.9314" width="2.81944" height="1.07465" rx="0.145833" fill="#181F29" stroke="url(#paint65_linear_287_19149)" stroke-width="0.0972222"/>
<rect x="104.076" y="54.9314" width="2.81944" height="1.07465" rx="0.145833" fill="#181F29" stroke="url(#paint66_linear_287_19149)" stroke-width="0.0972222"/>
<rect x="113.312" y="54.9314" width="2.81944" height="1.07465" rx="0.145833" fill="#181F29" stroke="url(#paint67_linear_287_19149)" stroke-width="0.0972222"/>
<rect x="122.549" y="54.9314" width="2.81944" height="1.07465" rx="0.145833" fill="#181F29" stroke="url(#paint68_linear_287_19149)" stroke-width="0.0972222"/>
<rect x="131.785" y="54.9314" width="2.81944" height="1.07465" rx="0.145833" fill="#181F29" stroke="url(#paint69_linear_287_19149)" stroke-width="0.0972222"/>
<rect x="1.2156" y="8.05642" width="19.25" height="2.63715" rx="0.534722" fill="#181F29" stroke="url(#paint70_linear_287_19149)" stroke-width="0.0972222"/>
<rect x="1.2156" y="89.5017" width="19.25" height="2.63715" rx="0.534722" fill="#181F29" stroke="url(#paint71_linear_287_19149)" stroke-width="0.0972222"/>
<rect x="1.2156" y="11.3767" width="19.25" height="2.63715" rx="0.534722" fill="#181F29" stroke="url(#paint72_linear_287_19149)" stroke-width="0.0972222"/>
<rect x="1.2156" y="92.822" width="19.25" height="2.63715" rx="0.534722" fill="#181F29" stroke="url(#paint73_linear_287_19149)" stroke-width="0.0972222"/>
<rect x="1.2156" y="14.697" width="19.25" height="2.63715" rx="0.534722" fill="#181F29" stroke="url(#paint74_linear_287_19149)" stroke-width="0.0972222"/>
<rect x="1.2156" y="96.1424" width="19.25" height="2.63715" rx="0.534722" fill="#181F29" stroke="url(#paint75_linear_287_19149)" stroke-width="0.0972222"/>
<rect x="18.6179" y="1.70877" width="1.84722" height="1.8559" rx="0.534722" fill="#181F29" stroke="url(#paint76_linear_287_19149)" stroke-width="0.0972222"/>
<rect x="4.81228" y="1.90408" width="5.93056" height="1.46528" rx="0.145833" fill="#181F29" stroke="url(#paint77_linear_287_19149)" stroke-width="0.0972222"/>
<mask id="mask0_287_19149" style="mask-type:alpha" maskUnits="userSpaceOnUse" x="29" y="21" width="106" height="33">
<rect x="29.8472" y="21.9722" width="104.806" height="31.7383" fill="#D9D9D9"/>
</mask>
<g mask="url(#mask0_287_19149)">
<path d="M40.1324 50.0366C37.0325 50.0366 29.7012 46.755 29.7012 46.755V53.6611H134.653V22.167C130.52 22.167 127.174 27.8977 124.615 27.8977C122.057 27.8977 118.908 24.4201 115.217 24.4201C111.527 24.4201 108.28 36.0283 105.524 36.0283C102.769 36.0283 101.096 32.3059 98.3896 32.3059C95.6834 32.3059 90.6646 40.6814 87.86 40.6814C85.0554 40.6814 81.2175 36.0283 78.3145 36.0283C75.4115 36.0283 70.9339 41.5141 68.1293 41.5141C65.3247 41.5141 63.0121 39.408 59.4695 39.408C55.9268 39.408 51.3508 43.7182 51.3508 43.7182C51.3508 43.7182 43.2322 50.0366 40.1324 50.0366Z" fill="url(#paint78_linear_287_19149)"/>
<path fill-rule="evenodd" clip-rule="evenodd" d="M126.798 27.1628C126.056 27.7034 125.323 28.0964 124.616 28.0964C123.934 28.0964 123.226 27.8652 122.504 27.5349C121.914 27.2647 121.299 26.9206 120.668 26.5679C120.528 26.4895 120.387 26.4107 120.245 26.3322C118.674 25.4609 117.006 24.6175 115.218 24.6175C114.81 24.6175 114.395 24.7777 113.969 25.0801C113.542 25.3829 113.115 25.821 112.688 26.3577C111.833 27.432 111.002 28.8698 110.193 30.3228C110.075 30.5334 109.958 30.7444 109.842 30.9546C109.159 32.1872 108.491 33.3918 107.845 34.3303C107.467 34.8799 107.089 35.3486 106.711 35.6816C106.337 36.0125 105.939 36.2299 105.525 36.2299C104.068 36.2299 102.909 35.2497 101.827 34.3343L101.803 34.3145C101.253 33.8491 100.719 33.3975 100.157 33.0597C99.5958 32.722 99.0191 32.5061 98.3901 32.5061C98.1006 32.5061 97.7611 32.6192 97.3736 32.8402C96.988 33.0601 96.5702 33.3779 96.1278 33.7663C95.2565 34.531 94.3122 35.5488 93.3544 36.5811L93.3068 36.6324C92.337 37.6776 91.3545 38.7335 90.4376 39.5274C89.9788 39.9247 89.5307 40.2615 89.1034 40.4997C88.6778 40.737 88.2584 40.8847 87.8606 40.8847C87.1091 40.8847 86.3079 40.5744 85.4996 40.1333C84.7043 39.6992 83.8784 39.1247 83.0601 38.5554L83.0121 38.522C82.1736 37.9388 81.3435 37.3638 80.5434 36.9337C79.7412 36.5025 78.9918 36.2299 78.3151 36.2299C77.6448 36.2299 76.8591 36.5493 75.9937 37.06C75.1329 37.568 74.2223 38.247 73.3039 38.9345L73.2519 38.9734C72.355 39.6448 71.4514 40.3213 70.5978 40.8322C69.7328 41.3499 68.8879 41.7176 68.13 41.7176C66.7714 41.7176 65.5272 41.2377 64.2538 40.7465C64.1713 40.7147 64.0888 40.6828 64.0061 40.6511C62.6359 40.1249 61.2019 39.6107 59.4702 39.6107C57.7638 39.6107 55.7779 40.6562 54.1934 41.7325C53.4067 42.267 52.7293 42.8017 52.2484 43.203C52.0081 43.4036 51.8172 43.5706 51.6866 43.6872C51.6213 43.7455 51.5711 43.7912 51.5374 43.8222C51.5299 43.829 51.5232 43.8352 51.5174 43.8406C51.5101 43.8474 51.504 43.853 51.4993 43.8574L51.4898 43.8662L51.4871 43.8688L51.487 43.8689L51.4802 43.8752L51.4729 43.8809L51.3517 43.7265C51.4729 43.8809 51.4729 43.881 51.4728 43.881L51.4725 43.8813L51.4668 43.8857L51.4491 43.8994C51.4334 43.9115 51.4103 43.9294 51.38 43.9527C51.3195 43.9992 51.2304 44.0674 51.116 44.1541C50.8872 44.3275 50.5571 44.575 50.1513 44.8721C49.3399 45.4659 48.2253 46.2582 47.0129 47.0507C45.8013 47.8428 44.4885 48.6376 43.2815 49.2351C42.0839 49.828 40.9586 50.2432 40.1333 50.2432C39.3308 50.2432 38.2703 50.032 37.1435 49.7232C36.0127 49.4134 34.7999 49.0009 33.6868 48.5895C32.5734 48.1779 31.5574 47.7665 30.8199 47.458C30.4511 47.3037 30.1518 47.1751 29.9445 47.0851C29.8409 47.04 29.7603 47.0046 29.7055 46.9804C29.6781 46.9683 29.6572 46.959 29.6431 46.9527L29.6229 46.9438L29.6219 46.9433L29.6216 46.9432C29.6215 46.9431 29.6215 46.9431 29.7022 46.7644C29.7829 46.5856 29.7829 46.5856 29.783 46.5856L29.7832 46.5857L29.788 46.5879L29.8036 46.5948C29.8174 46.601 29.838 46.6101 29.8651 46.6221C29.9192 46.646 29.9991 46.6811 30.102 46.7258C30.3078 46.8153 30.6054 46.9431 30.9724 47.0966C31.7064 47.4037 32.717 47.8129 33.8238 48.222C34.9311 48.6313 36.1323 49.0396 37.2479 49.3453C38.3676 49.6521 39.3859 49.8512 40.1333 49.8512C40.8579 49.8512 41.9099 49.4763 43.1063 48.8841C44.2934 48.2965 45.5914 47.5111 46.7969 46.723C48.0017 45.9354 49.1104 45.1475 49.9182 44.5562C50.3219 44.2607 50.6503 44.0144 50.8776 43.8422C50.9912 43.756 51.0796 43.6884 51.1395 43.6424C51.1694 43.6194 51.1922 43.6017 51.2075 43.5899L51.2235 43.5775L51.2305 43.571C51.2396 43.5625 51.253 43.5501 51.2705 43.534C51.3055 43.5019 51.3571 43.4549 51.4238 43.3953C51.5573 43.2762 51.7516 43.1063 51.9956 42.9026C52.4835 42.4954 53.1714 41.9523 53.9716 41.4087C55.5607 40.3292 57.634 39.2188 59.4702 39.2188C61.2812 39.2188 62.7748 39.7581 64.1477 40.2853C64.2247 40.3149 64.3012 40.3444 64.3773 40.3737C65.6688 40.8714 66.8477 41.3257 68.13 41.3257C68.7745 41.3257 69.5409 41.0074 70.395 40.4962C71.2309 39.9959 72.1206 39.3299 73.0248 38.653L73.0674 38.6211C73.9819 37.9366 74.9102 37.2438 75.7931 36.7228C76.6714 36.2045 77.534 35.8379 78.3151 35.8379C79.0899 35.8379 79.909 36.1472 80.7304 36.5888C81.554 37.0315 82.403 37.6202 83.2375 38.2006L83.2757 38.2273C84.1015 38.8017 84.9125 39.3658 85.6888 39.7895C86.4796 40.2211 87.2098 40.4927 87.8606 40.4927C88.1639 40.4927 88.5149 40.3786 88.9111 40.1577C89.3057 39.9377 89.731 39.6199 90.1793 39.2316C91.0768 38.4546 92.044 37.4158 93.0177 36.3664L93.0741 36.3057C94.025 35.2807 94.9809 34.2505 95.8675 33.4723C96.3199 33.0752 96.7601 32.7384 97.1779 32.5001C97.5938 32.2629 98.0032 32.1141 98.3901 32.1141C99.1142 32.1141 99.7615 32.3638 100.361 32.7242C100.95 33.0784 101.504 33.5474 102.045 34.0048L102.066 34.0226C103.181 34.9655 104.232 35.8379 105.525 35.8379C105.799 35.8379 106.106 35.6925 106.45 35.3883C106.792 35.0863 107.149 34.6477 107.52 34.1087C108.155 33.1873 108.811 32.0026 109.495 30.7685C109.612 30.5576 109.73 30.3453 109.848 30.1327C110.656 28.6826 111.502 27.2173 112.38 26.1143C112.819 25.5623 113.272 25.0932 113.74 24.7609C114.209 24.4283 114.703 24.2256 115.218 24.2256C117.12 24.2256 118.871 25.1217 120.437 25.9897C120.582 26.07 120.725 26.1501 120.866 26.2292C121.496 26.5814 122.094 26.9158 122.669 27.1787C123.372 27.5007 124.018 27.7044 124.616 27.7044C125.188 27.7044 125.832 27.3808 126.566 26.8464C127.12 26.4427 127.702 25.9376 128.319 25.4012C128.514 25.2317 128.713 25.059 128.915 24.8854C129.753 24.1678 130.651 23.4409 131.602 22.8937C132.555 22.3461 133.573 21.9717 134.653 21.9717V22.3637C133.666 22.3637 132.716 22.7059 131.799 23.2331C130.881 23.7608 130.007 24.4671 129.172 25.1826C128.976 25.3511 128.781 25.5204 128.588 25.688C127.967 26.2272 127.368 26.7482 126.798 27.1628Z" fill="#1DC538"/>
</g>
<defs>
<filter id="filter0_b_287_19149" x="-1.55556" y="-1.55556" width="24.7918" height="103.111" filterUnits="userSpaceOnUse" color-interpolation-filters="sRGB">
<feFlood flood-opacity="0" result="BackgroundImageFix"/>
<feGaussianBlur in="BackgroundImageFix" stdDeviation="0.777778"/>
<feComposite in2="SourceAlpha" operator="in" result="effect1_backgroundBlur_287_19149"/>
<feBlend mode="normal" in="SourceGraphic" in2="effect1_backgroundBlur_287_19149" result="shape"/>
</filter>
<filter id="filter1_b_287_19149" x="23.6251" y="0.788194" width="113.75" height="57.9939" filterUnits="userSpaceOnUse" color-interpolation-filters="sRGB">
<feFlood flood-opacity="0" result="BackgroundImageFix"/>
<feGaussianBlur in="BackgroundImageFix" stdDeviation="0.777778"/>
<feComposite in2="SourceAlpha" operator="in" result="effect1_backgroundBlur_287_19149"/>
<feBlend mode="normal" in="SourceGraphic" in2="effect1_backgroundBlur_287_19149" result="shape"/>
</filter>
<filter id="filter2_b_287_19149" x="23.6251" y="58.0148" width="113.75" height="41.783" filterUnits="userSpaceOnUse" color-interpolation-filters="sRGB">
<feFlood flood-opacity="0" result="BackgroundImageFix"/>
<feGaussianBlur in="BackgroundImageFix" stdDeviation="0.777778"/>
<feComposite in2="SourceAlpha" operator="in" result="effect1_backgroundBlur_287_19149"/>
<feBlend mode="normal" in="SourceGraphic" in2="effect1_backgroundBlur_287_19149" result="shape"/>
</filter>
<radialGradient id="paint0_radial_287_19149" cx="0" cy="0" r="1" gradientUnits="userSpaceOnUse" gradientTransform="rotate(35.6327) scale(100.659 141.756)">
<stop stop-color="#0E1724"/>
<stop offset="1" stop-color="#0B121C"/>
</radialGradient>
<radialGradient id="paint1_radial_287_19149" cx="0" cy="0" r="1" gradientUnits="userSpaceOnUse" gradientTransform="translate(10.8403) rotate(90) scale(50 10.8403)">
<stop stop-color="#0E1724" stop-opacity="0.8"/>
<stop offset="1" stop-color="#090F17" stop-opacity="0.16"/>
</radialGradient>
<linearGradient id="paint2_linear_287_19149" x1="10.8403" y1="0" x2="10.8403" y2="100" gradientUnits="userSpaceOnUse">
<stop stop-color="#0D141F" stop-opacity="0.51"/>
<stop offset="1" stop-color="#142133"/>
</linearGradient>
<linearGradient id="paint3_linear_287_19149" x1="10.8403" y1="0" x2="10.8403" y2="100" gradientUnits="userSpaceOnUse">
<stop stop-color="#FAFAFA" stop-opacity="0.15"/>
<stop offset="1" stop-color="#DDDCDC" stop-opacity="0.2"/>
</linearGradient>
<radialGradient id="paint4_radial_287_19149" cx="0" cy="0" r="1" gradientUnits="userSpaceOnUse" gradientTransform="translate(80.5001 2.34375) rotate(90) scale(27.4414 55.3194)">
<stop stop-color="#0E1724" stop-opacity="0.8"/>
<stop offset="1" stop-color="#090F17" stop-opacity="0.16"/>
</radialGradient>
<linearGradient id="paint5_linear_287_19149" x1="80.5001" y1="2.34375" x2="80.5001" y2="57.2266" gradientUnits="userSpaceOnUse">
<stop stop-color="#0D141F" stop-opacity="0.51"/>
<stop offset="1" stop-color="#142133"/>
</linearGradient>
<linearGradient id="paint6_linear_287_19149" x1="80.5001" y1="2.34375" x2="80.5001" y2="57.2266" gradientUnits="userSpaceOnUse">
<stop stop-color="#FAFAFA" stop-opacity="0.15"/>
<stop offset="1" stop-color="#DDDCDC" stop-opacity="0.2"/>
</linearGradient>
<radialGradient id="paint7_radial_287_19149" cx="0" cy="0" r="1" gradientUnits="userSpaceOnUse" gradientTransform="translate(80.5001 59.5703) rotate(90) scale(19.3359 55.3194)">
<stop stop-color="#0E1724" stop-opacity="0.8"/>
<stop offset="1" stop-color="#090F17" stop-opacity="0.16"/>
</radialGradient>
<linearGradient id="paint8_linear_287_19149" x1="80.5001" y1="59.5703" x2="80.5001" y2="98.2422" gradientUnits="userSpaceOnUse">
<stop stop-color="#0D141F" stop-opacity="0.51"/>
<stop offset="1" stop-color="#142133"/>
</linearGradient>
<linearGradient id="paint9_linear_287_19149" x1="80.5001" y1="59.5703" x2="80.5001" y2="98.2422" gradientUnits="userSpaceOnUse">
<stop stop-color="#FAFAFA" stop-opacity="0.15"/>
<stop offset="1" stop-color="#DDDCDC" stop-opacity="0.2"/>
</linearGradient>
<linearGradient id="paint10_linear_287_19149" x1="2.62533" y1="1.17187" x2="2.62533" y2="4.10156" gradientUnits="userSpaceOnUse">
<stop stop-color="#FAFAFA" stop-opacity="0.15"/>
<stop offset="1" stop-color="#DDDCDC" stop-opacity="0.2"/>
</linearGradient>
<linearGradient id="paint11_linear_287_19149" x1="10.8406" y1="4.6875" x2="10.8406" y2="7.42188" gradientUnits="userSpaceOnUse">
<stop stop-color="#FAFAFA" stop-opacity="0.15"/>
<stop offset="1" stop-color="#DDDCDC" stop-opacity="0.2"/>
</linearGradient>
<linearGradient id="paint12_linear_287_19149" x1="29.0694" y1="3.51562" x2="29.0694" y2="4.6875" gradientUnits="userSpaceOnUse">
<stop stop-color="#FAFAFA" stop-opacity="0.15"/>
<stop offset="1" stop-color="#DDDCDC" stop-opacity="0.2"/>
</linearGradient>
<linearGradient id="paint13_linear_287_19149" x1="38.0624" y1="5.07812" x2="38.0624" y2="11.0352" gradientUnits="userSpaceOnUse">
<stop stop-color="#FAFAFA" stop-opacity="0.15"/>
<stop offset="1" stop-color="#DDDCDC" stop-opacity="0.2"/>
</linearGradient>
<linearGradient id="paint14_linear_287_19149" x1="127.604" y1="7.03125" x2="127.604" y2="11.2305" gradientUnits="userSpaceOnUse">
<stop stop-color="#FAFAFA" stop-opacity="0.15"/>
<stop offset="1" stop-color="#DDDCDC" stop-opacity="0.2"/>
</linearGradient>
<linearGradient id="paint15_linear_287_19149" x1="112.924" y1="7.03125" x2="112.924" y2="11.2305" gradientUnits="userSpaceOnUse">
<stop stop-color="#FAFAFA" stop-opacity="0.15"/>
<stop offset="1" stop-color="#DDDCDC" stop-opacity="0.2"/>
</linearGradient>
<linearGradient id="paint16_linear_287_19149" x1="27.8055" y1="12.5977" x2="27.8055" y2="13.7695" gradientUnits="userSpaceOnUse">
<stop stop-color="#FAFAFA" stop-opacity="0.15"/>
<stop offset="1" stop-color="#DDDCDC" stop-opacity="0.2"/>
</linearGradient>
<linearGradient id="paint17_linear_287_19149" x1="27.8055" y1="20.5859" x2="27.8055" y2="21.7578" gradientUnits="userSpaceOnUse">
<stop stop-color="#FAFAFA" stop-opacity="0.15"/>
<stop offset="1" stop-color="#DDDCDC" stop-opacity="0.2"/>
</linearGradient>
<linearGradient id="paint18_linear_287_19149" x1="27.8055" y1="28.5742" x2="27.8055" y2="29.7461" gradientUnits="userSpaceOnUse">
<stop stop-color="#FAFAFA" stop-opacity="0.15"/>
<stop offset="1" stop-color="#DDDCDC" stop-opacity="0.2"/>
</linearGradient>
<linearGradient id="paint19_linear_287_19149" x1="27.8055" y1="36.5625" x2="27.8055" y2="37.7344" gradientUnits="userSpaceOnUse">
<stop stop-color="#FAFAFA" stop-opacity="0.15"/>
<stop offset="1" stop-color="#DDDCDC" stop-opacity="0.2"/>
</linearGradient>
<linearGradient id="paint20_linear_287_19149" x1="27.8055" y1="44.5513" x2="27.8055" y2="45.7231" gradientUnits="userSpaceOnUse">
<stop stop-color="#FAFAFA" stop-opacity="0.15"/>
<stop offset="1" stop-color="#DDDCDC" stop-opacity="0.2"/>
</linearGradient>
<linearGradient id="paint21_linear_287_19149" x1="27.8055" y1="52.5391" x2="27.8055" y2="53.7109" gradientUnits="userSpaceOnUse">
<stop stop-color="#FAFAFA" stop-opacity="0.15"/>
<stop offset="1" stop-color="#DDDCDC" stop-opacity="0.2"/>
</linearGradient>
<linearGradient id="paint22_linear_287_19149" x1="29.7499" y1="63.6719" x2="29.7499" y2="64.8437" gradientUnits="userSpaceOnUse">
<stop stop-color="#FAFAFA" stop-opacity="0.15"/>
<stop offset="1" stop-color="#DDDCDC" stop-opacity="0.2"/>
</linearGradient>
<linearGradient id="paint23_linear_287_19149" x1="33.6388" y1="60.7422" x2="33.6388" y2="62.1094" gradientUnits="userSpaceOnUse">
<stop stop-color="#FAFAFA" stop-opacity="0.15"/>
<stop offset="1" stop-color="#DDDCDC" stop-opacity="0.2"/>
</linearGradient>
<linearGradient id="paint24_linear_287_19149" x1="30.9166" y1="66.0156" x2="30.9166" y2="69.2383" gradientUnits="userSpaceOnUse">
<stop stop-color="#FAFAFA" stop-opacity="0.15"/>
<stop offset="1" stop-color="#DDDCDC" stop-opacity="0.2"/>
</linearGradient>
<linearGradient id="paint25_linear_287_19149" x1="30.9166" y1="71.582" x2="30.9166" y2="74.8047" gradientUnits="userSpaceOnUse">
<stop stop-color="#FAFAFA" stop-opacity="0.15"/>
<stop offset="1" stop-color="#DDDCDC" stop-opacity="0.2"/>
</linearGradient>
<linearGradient id="paint26_linear_287_19149" x1="30.9166" y1="77.1484" x2="30.9166" y2="80.3711" gradientUnits="userSpaceOnUse">
<stop stop-color="#FAFAFA" stop-opacity="0.15"/>
<stop offset="1" stop-color="#DDDCDC" stop-opacity="0.2"/>
</linearGradient>
<linearGradient id="paint27_linear_287_19149" x1="30.9166" y1="82.7148" x2="30.9166" y2="85.9375" gradientUnits="userSpaceOnUse">
<stop stop-color="#FAFAFA" stop-opacity="0.15"/>
<stop offset="1" stop-color="#DDDCDC" stop-opacity="0.2"/>
</linearGradient>
<linearGradient id="paint28_linear_287_19149" x1="30.9166" y1="88.2812" x2="30.9166" y2="91.5039" gradientUnits="userSpaceOnUse">
<stop stop-color="#FAFAFA" stop-opacity="0.15"/>
<stop offset="1" stop-color="#DDDCDC" stop-opacity="0.2"/>
</linearGradient>
<linearGradient id="paint29_linear_287_19149" x1="30.9166" y1="93.8477" x2="30.9166" y2="97.0703" gradientUnits="userSpaceOnUse">
<stop stop-color="#FAFAFA" stop-opacity="0.15"/>
<stop offset="1" stop-color="#DDDCDC" stop-opacity="0.2"/>
</linearGradient>
<linearGradient id="paint30_linear_287_19149" x1="56.3888" y1="66.0156" x2="56.3888" y2="69.2383" gradientUnits="userSpaceOnUse">
<stop stop-color="#FAFAFA" stop-opacity="0.15"/>
<stop offset="1" stop-color="#DDDCDC" stop-opacity="0.2"/>
</linearGradient>
<linearGradient id="paint31_linear_287_19149" x1="56.3888" y1="71.582" x2="56.3888" y2="74.8047" gradientUnits="userSpaceOnUse">
<stop stop-color="#FAFAFA" stop-opacity="0.15"/>
<stop offset="1" stop-color="#DDDCDC" stop-opacity="0.2"/>
</linearGradient>
<linearGradient id="paint32_linear_287_19149" x1="56.3888" y1="77.1484" x2="56.3888" y2="80.3711" gradientUnits="userSpaceOnUse">
<stop stop-color="#FAFAFA" stop-opacity="0.15"/>
<stop offset="1" stop-color="#DDDCDC" stop-opacity="0.2"/>
</linearGradient>
<linearGradient id="paint33_linear_287_19149" x1="56.3888" y1="82.7148" x2="56.3888" y2="85.9375" gradientUnits="userSpaceOnUse">
<stop stop-color="#FAFAFA" stop-opacity="0.15"/>
<stop offset="1" stop-color="#DDDCDC" stop-opacity="0.2"/>
</linearGradient>
<linearGradient id="paint34_linear_287_19149" x1="56.3888" y1="88.2812" x2="56.3888" y2="91.5039" gradientUnits="userSpaceOnUse">
<stop stop-color="#FAFAFA" stop-opacity="0.15"/>
<stop offset="1" stop-color="#DDDCDC" stop-opacity="0.2"/>
</linearGradient>
<linearGradient id="paint35_linear_287_19149" x1="56.3888" y1="93.8477" x2="56.3888" y2="97.0703" gradientUnits="userSpaceOnUse">
<stop stop-color="#FAFAFA" stop-opacity="0.15"/>
<stop offset="1" stop-color="#DDDCDC" stop-opacity="0.2"/>
</linearGradient>
<linearGradient id="paint36_linear_287_19149" x1="83.8054" y1="66.0156" x2="83.8054" y2="69.2383" gradientUnits="userSpaceOnUse">
<stop stop-color="#FAFAFA" stop-opacity="0.15"/>
<stop offset="1" stop-color="#DDDCDC" stop-opacity="0.2"/>
</linearGradient>
<linearGradient id="paint37_linear_287_19149" x1="83.8054" y1="71.582" x2="83.8054" y2="74.8047" gradientUnits="userSpaceOnUse">
<stop stop-color="#FAFAFA" stop-opacity="0.15"/>
<stop offset="1" stop-color="#DDDCDC" stop-opacity="0.2"/>
</linearGradient>
<linearGradient id="paint38_linear_287_19149" x1="83.8054" y1="77.1484" x2="83.8054" y2="80.3711" gradientUnits="userSpaceOnUse">
<stop stop-color="#FAFAFA" stop-opacity="0.15"/>
<stop offset="1" stop-color="#DDDCDC" stop-opacity="0.2"/>
</linearGradient>
<linearGradient id="paint39_linear_287_19149" x1="83.8054" y1="82.7148" x2="83.8054" y2="85.9375" gradientUnits="userSpaceOnUse">
<stop stop-color="#FAFAFA" stop-opacity="0.15"/>
<stop offset="1" stop-color="#DDDCDC" stop-opacity="0.2"/>
</linearGradient>
<linearGradient id="paint40_linear_287_19149" x1="83.8054" y1="88.2812" x2="83.8054" y2="91.5039" gradientUnits="userSpaceOnUse">
<stop stop-color="#FAFAFA" stop-opacity="0.15"/>
<stop offset="1" stop-color="#DDDCDC" stop-opacity="0.2"/>
</linearGradient>
<linearGradient id="paint41_linear_287_19149" x1="83.8054" y1="93.8477" x2="83.8054" y2="97.0703" gradientUnits="userSpaceOnUse">
<stop stop-color="#FAFAFA" stop-opacity="0.15"/>
<stop offset="1" stop-color="#DDDCDC" stop-opacity="0.2"/>
</linearGradient>
<linearGradient id="paint42_linear_287_19149" x1="109.18" y1="66.0156" x2="109.18" y2="69.2383" gradientUnits="userSpaceOnUse">
<stop stop-color="#FAFAFA" stop-opacity="0.15"/>
<stop offset="1" stop-color="#DDDCDC" stop-opacity="0.2"/>
</linearGradient>
<linearGradient id="paint43_linear_287_19149" x1="109.18" y1="71.582" x2="109.18" y2="74.8047" gradientUnits="userSpaceOnUse">
<stop stop-color="#FAFAFA" stop-opacity="0.15"/>
<stop offset="1" stop-color="#DDDCDC" stop-opacity="0.2"/>
</linearGradient>
<linearGradient id="paint44_linear_287_19149" x1="109.18" y1="77.1484" x2="109.18" y2="80.3711" gradientUnits="userSpaceOnUse">
<stop stop-color="#FAFAFA" stop-opacity="0.15"/>
<stop offset="1" stop-color="#DDDCDC" stop-opacity="0.2"/>
</linearGradient>
<linearGradient id="paint45_linear_287_19149" x1="109.18" y1="82.7148" x2="109.18" y2="85.9375" gradientUnits="userSpaceOnUse">
<stop stop-color="#FAFAFA" stop-opacity="0.15"/>
<stop offset="1" stop-color="#DDDCDC" stop-opacity="0.2"/>
</linearGradient>
<linearGradient id="paint46_linear_287_19149" x1="109.18" y1="88.2812" x2="109.18" y2="91.5039" gradientUnits="userSpaceOnUse">
<stop stop-color="#FAFAFA" stop-opacity="0.15"/>
<stop offset="1" stop-color="#DDDCDC" stop-opacity="0.2"/>
</linearGradient>
<linearGradient id="paint47_linear_287_19149" x1="109.18" y1="93.8477" x2="109.18" y2="97.0703" gradientUnits="userSpaceOnUse">
<stop stop-color="#FAFAFA" stop-opacity="0.15"/>
<stop offset="1" stop-color="#DDDCDC" stop-opacity="0.2"/>
</linearGradient>
<linearGradient id="paint48_linear_287_19149" x1="128.042" y1="66.0156" x2="128.042" y2="69.2383" gradientUnits="userSpaceOnUse">
<stop stop-color="#FAFAFA" stop-opacity="0.15"/>
<stop offset="1" stop-color="#DDDCDC" stop-opacity="0.2"/>
</linearGradient>
<linearGradient id="paint49_linear_287_19149" x1="128.042" y1="71.582" x2="128.042" y2="74.8047" gradientUnits="userSpaceOnUse">
<stop stop-color="#FAFAFA" stop-opacity="0.15"/>
<stop offset="1" stop-color="#DDDCDC" stop-opacity="0.2"/>
</linearGradient>
<linearGradient id="paint50_linear_287_19149" x1="128.042" y1="77.1484" x2="128.042" y2="80.3711" gradientUnits="userSpaceOnUse">
<stop stop-color="#FAFAFA" stop-opacity="0.15"/>
<stop offset="1" stop-color="#DDDCDC" stop-opacity="0.2"/>
</linearGradient>
<linearGradient id="paint51_linear_287_19149" x1="128.042" y1="82.7148" x2="128.042" y2="85.9375" gradientUnits="userSpaceOnUse">
<stop stop-color="#FAFAFA" stop-opacity="0.15"/>
<stop offset="1" stop-color="#DDDCDC" stop-opacity="0.2"/>
</linearGradient>
<linearGradient id="paint52_linear_287_19149" x1="128.042" y1="88.2812" x2="128.042" y2="91.5039" gradientUnits="userSpaceOnUse">
<stop stop-color="#FAFAFA" stop-opacity="0.15"/>
<stop offset="1" stop-color="#DDDCDC" stop-opacity="0.2"/>
</linearGradient>
<linearGradient id="paint53_linear_287_19149" x1="128.042" y1="93.8477" x2="128.042" y2="97.0703" gradientUnits="userSpaceOnUse">
<stop stop-color="#FAFAFA" stop-opacity="0.15"/>
<stop offset="1" stop-color="#DDDCDC" stop-opacity="0.2"/>
</linearGradient>
<linearGradient id="paint54_linear_287_19149" x1="55.2221" y1="63.6719" x2="55.2221" y2="64.8437" gradientUnits="userSpaceOnUse">
<stop stop-color="#FAFAFA" stop-opacity="0.15"/>
<stop offset="1" stop-color="#DDDCDC" stop-opacity="0.2"/>
</linearGradient>
<linearGradient id="paint55_linear_287_19149" x1="80.5971" y1="63.6719" x2="80.5971" y2="64.8437" gradientUnits="userSpaceOnUse">
<stop stop-color="#FAFAFA" stop-opacity="0.15"/>
<stop offset="1" stop-color="#DDDCDC" stop-opacity="0.2"/>
</linearGradient>
<linearGradient id="paint56_linear_287_19149" x1="105.972" y1="63.6719" x2="105.972" y2="64.8437" gradientUnits="userSpaceOnUse">
<stop stop-color="#FAFAFA" stop-opacity="0.15"/>
<stop offset="1" stop-color="#DDDCDC" stop-opacity="0.2"/>
</linearGradient>
<linearGradient id="paint57_linear_287_19149" x1="131.347" y1="63.6719" x2="131.347" y2="64.8437" gradientUnits="userSpaceOnUse">
<stop stop-color="#FAFAFA" stop-opacity="0.15"/>
<stop offset="1" stop-color="#DDDCDC" stop-opacity="0.2"/>
</linearGradient>
<linearGradient id="paint58_linear_287_19149" x1="31.597" y1="54.8828" x2="31.597" y2="56.0547" gradientUnits="userSpaceOnUse">
<stop stop-color="#FAFAFA" stop-opacity="0.15"/>
<stop offset="1" stop-color="#DDDCDC" stop-opacity="0.2"/>
</linearGradient>
<linearGradient id="paint59_linear_287_19149" x1="40.8333" y1="54.8828" x2="40.8333" y2="56.0547" gradientUnits="userSpaceOnUse">
<stop stop-color="#FAFAFA" stop-opacity="0.15"/>
<stop offset="1" stop-color="#DDDCDC" stop-opacity="0.2"/>
</linearGradient>
<linearGradient id="paint60_linear_287_19149" x1="50.0697" y1="54.8828" x2="50.0697" y2="56.0547" gradientUnits="userSpaceOnUse">
<stop stop-color="#FAFAFA" stop-opacity="0.15"/>
<stop offset="1" stop-color="#DDDCDC" stop-opacity="0.2"/>
</linearGradient>
<linearGradient id="paint61_linear_287_19149" x1="59.3055" y1="54.8828" x2="59.3055" y2="56.0547" gradientUnits="userSpaceOnUse">
<stop stop-color="#FAFAFA" stop-opacity="0.15"/>
<stop offset="1" stop-color="#DDDCDC" stop-opacity="0.2"/>
</linearGradient>
<linearGradient id="paint62_linear_287_19149" x1="68.5413" y1="54.8828" x2="68.5413" y2="56.0547" gradientUnits="userSpaceOnUse">
<stop stop-color="#FAFAFA" stop-opacity="0.15"/>
<stop offset="1" stop-color="#DDDCDC" stop-opacity="0.2"/>
</linearGradient>
<linearGradient id="paint63_linear_287_19149" x1="77.7777" y1="54.8828" x2="77.7777" y2="56.0547" gradientUnits="userSpaceOnUse">
<stop stop-color="#FAFAFA" stop-opacity="0.15"/>
<stop offset="1" stop-color="#DDDCDC" stop-opacity="0.2"/>
</linearGradient>
<linearGradient id="paint64_linear_287_19149" x1="87.014" y1="54.8828" x2="87.014" y2="56.0547" gradientUnits="userSpaceOnUse">
<stop stop-color="#FAFAFA" stop-opacity="0.15"/>
<stop offset="1" stop-color="#DDDCDC" stop-opacity="0.2"/>
</linearGradient>
<linearGradient id="paint65_linear_287_19149" x1="96.2503" y1="54.8828" x2="96.2503" y2="56.0547" gradientUnits="userSpaceOnUse">
<stop stop-color="#FAFAFA" stop-opacity="0.15"/>
<stop offset="1" stop-color="#DDDCDC" stop-opacity="0.2"/>
</linearGradient>
<linearGradient id="paint66_linear_287_19149" x1="105.486" y1="54.8828" x2="105.486" y2="56.0547" gradientUnits="userSpaceOnUse">
<stop stop-color="#FAFAFA" stop-opacity="0.15"/>
<stop offset="1" stop-color="#DDDCDC" stop-opacity="0.2"/>
</linearGradient>
<linearGradient id="paint67_linear_287_19149" x1="114.722" y1="54.8828" x2="114.722" y2="56.0547" gradientUnits="userSpaceOnUse">
<stop stop-color="#FAFAFA" stop-opacity="0.15"/>
<stop offset="1" stop-color="#DDDCDC" stop-opacity="0.2"/>
</linearGradient>
<linearGradient id="paint68_linear_287_19149" x1="123.958" y1="54.8828" x2="123.958" y2="56.0547" gradientUnits="userSpaceOnUse">
<stop stop-color="#FAFAFA" stop-opacity="0.15"/>
<stop offset="1" stop-color="#DDDCDC" stop-opacity="0.2"/>
</linearGradient>
<linearGradient id="paint69_linear_287_19149" x1="133.195" y1="54.8828" x2="133.195" y2="56.0547" gradientUnits="userSpaceOnUse">
<stop stop-color="#FAFAFA" stop-opacity="0.15"/>
<stop offset="1" stop-color="#DDDCDC" stop-opacity="0.2"/>
</linearGradient>
<linearGradient id="paint70_linear_287_19149" x1="10.8406" y1="8.00781" x2="10.8406" y2="10.7422" gradientUnits="userSpaceOnUse">
<stop stop-color="#FAFAFA" stop-opacity="0.15"/>
<stop offset="1" stop-color="#DDDCDC" stop-opacity="0.2"/>
</linearGradient>
<linearGradient id="paint71_linear_287_19149" x1="10.8406" y1="89.4531" x2="10.8406" y2="92.1875" gradientUnits="userSpaceOnUse">
<stop stop-color="#FAFAFA" stop-opacity="0.15"/>
<stop offset="1" stop-color="#DDDCDC" stop-opacity="0.2"/>
</linearGradient>
<linearGradient id="paint72_linear_287_19149" x1="10.8406" y1="11.3281" x2="10.8406" y2="14.0625" gradientUnits="userSpaceOnUse">
<stop stop-color="#FAFAFA" stop-opacity="0.15"/>
<stop offset="1" stop-color="#DDDCDC" stop-opacity="0.2"/>
</linearGradient>
<linearGradient id="paint73_linear_287_19149" x1="10.8406" y1="92.7734" x2="10.8406" y2="95.5078" gradientUnits="userSpaceOnUse">
<stop stop-color="#FAFAFA" stop-opacity="0.15"/>
<stop offset="1" stop-color="#DDDCDC" stop-opacity="0.2"/>
</linearGradient>
<linearGradient id="paint74_linear_287_19149" x1="10.8406" y1="14.6484" x2="10.8406" y2="17.3828" gradientUnits="userSpaceOnUse">
<stop stop-color="#FAFAFA" stop-opacity="0.15"/>
<stop offset="1" stop-color="#DDDCDC" stop-opacity="0.2"/>
</linearGradient>
<linearGradient id="paint75_linear_287_19149" x1="10.8406" y1="96.0938" x2="10.8406" y2="98.8281" gradientUnits="userSpaceOnUse">
<stop stop-color="#FAFAFA" stop-opacity="0.15"/>
<stop offset="1" stop-color="#DDDCDC" stop-opacity="0.2"/>
</linearGradient>
<linearGradient id="paint76_linear_287_19149" x1="19.5416" y1="1.66016" x2="19.5416" y2="3.61328" gradientUnits="userSpaceOnUse">
<stop stop-color="#FAFAFA" stop-opacity="0.15"/>
<stop offset="1" stop-color="#DDDCDC" stop-opacity="0.2"/>
</linearGradient>
<linearGradient id="paint77_linear_287_19149" x1="7.77756" y1="1.85547" x2="7.77756" y2="3.41797" gradientUnits="userSpaceOnUse">
<stop stop-color="#FAFAFA" stop-opacity="0.15"/>
<stop offset="1" stop-color="#DDDCDC" stop-opacity="0.2"/>
</linearGradient>
<linearGradient id="paint78_linear_287_19149" x1="82.177" y1="22.167" x2="82.177" y2="53.6611" gradientUnits="userSpaceOnUse">
<stop stop-color="#1DC538" stop-opacity="0.39"/>
<stop offset="1" stop-color="#0E1721" stop-opacity="0"/>
</linearGradient>
</defs>
</svg>
