<svg width="64" height="64" fill="none" xmlns="http://www.w3.org/2000/svg"><g clip-path="url(#a)"><mask id="b" style="mask-type:luminance" maskUnits="userSpaceOnUse" x="0" y="0" width="64" height="64"><path d="M64 0H0v64h64V0Z" fill="#fff"/></mask><g mask="url(#b)"><mask id="c" style="mask-type:luminance" maskUnits="userSpaceOnUse" x="0" y="4" width="65" height="56"><path d="M4.56 53.149c4.82 8 16.416 8.195 21.229.179a17.545 17.545 0 0 0 2.49-8.38l.153-4.1S21.12 47.52 18.106 47.11c-1.018-.137-.244-2.025.124-2.96 1.399-3.52 9.895-12.179 9.895-12.179S28.8 19.706 30 16.342c.62-1.74 1.34-2.537 2-2.854.66.32 1.38 1.114 2 2.854 1.2 3.364 1.875 15.63 1.875 15.63s8.496 8.64 9.895 12.178c.368.935 1.142 2.823.124 2.96-3.017.41-10.326-6.262-10.326-6.262l.154 4.1a17.547 17.547 0 0 0 2.748 8.8c4.833 7.558 16.049 7.36 20.769-.266A31.812 31.812 0 0 0 64 36.934c.131-17.37-13.862-31.83-31.232-32.236A32 32 0 0 0 4.56 53.148Z" fill="#fff"/></mask><g mask="url(#c)"><path d="M4.56 53.149c4.82 8 16.416 8.195 21.229.179a17.545 17.545 0 0 0 2.49-8.38l.153-4.1S21.12 47.52 18.106 47.11c-1.018-.137-.244-2.025.124-2.96 1.399-3.52 9.895-12.179 9.895-12.179S28.8 19.706 30 16.342c.62-1.74 1.34-2.537 2-2.854.66.32 1.38 1.114 2 2.854 1.2 3.364 1.875 15.63 1.875 15.63s8.496 8.64 9.895 12.178c.368.935 1.142 2.823.124 2.96-3.017.41-10.326-6.262-10.326-6.262l.154 4.1a17.547 17.547 0 0 0 2.748 8.8c4.833 7.558 16.049 7.36 20.769-.266A31.812 31.812 0 0 0 64 36.934c.131-17.37-13.862-31.83-31.232-32.236A32 32 0 0 0 4.56 53.148Z" fill="#FBB03B"/><path d="M85.2 15.68c0 16.458-13.968 29.798-31.2 29.798S22.8 32.148 22.8 15.68C22.8-.787 31.168-6.52 48.4-6.52S85.2-.768 85.2 15.68Z" fill="url(#d)"/><path d="M36.4 64.49c0 18.444-46.4 4.646-46.4-13.802s-2.032-19.6 15.2-19.6S36.4 46.04 36.4 64.489Z" fill="url(#e)"/></g></g></g><defs><linearGradient id="d" x1="72.352" y1="39.632" x2="35.376" y2="-4.63" gradientUnits="userSpaceOnUse"><stop stop-color="#01DDA5"/><stop offset="1" stop-color="#3CADE2"/></linearGradient><linearGradient id="e" x1="29.894" y1="73.494" x2="-4.621" y2="32.179" gradientUnits="userSpaceOnUse"><stop stop-color="#FF8A11"/><stop offset="1" stop-color="#E81894"/></linearGradient><clipPath id="a"><path fill="#fff" d="M0 0h64v64H0z"/></clipPath></defs></svg>