<svg width="64" height="64" fill="none" xmlns="http://www.w3.org/2000/svg"><g clip-path="url(#a)"><mask id="b" style="mask-type:luminance" maskUnits="userSpaceOnUse" x="0" y="0" width="64" height="64"><path d="M64 0H0v64h64V0Z" fill="#fff"/></mask><g mask="url(#b)"><path d="M32 0a32 32 0 0 1 0 64H7.68A7.681 7.681 0 0 1 0 56.32V32A32 32 0 0 1 32 0Z" fill="url(#c)"/><path d="m27.229 57.78-4.746-3.52 10.24-13.886a35.19 35.19 0 0 1-1.415.167c-.39.035-.7.054-.96.054-3.46 0-6.456-1.315-8.988-3.945a13.121 13.121 0 0 1-3.76-9.428 13.653 13.653 0 0 1 4.188-10.048 13.818 13.818 0 0 1 10.1-4.195 14.248 14.248 0 0 1 10.182 4.138c2.887 2.745 4.33 5.985 4.33 9.718 0 3.311-1.406 6.89-4.218 10.736L27.228 57.78Zm-3.332-31.04A8.08 8.08 0 0 0 32 34.921a8.08 8.08 0 0 0 8.102-8.042 8.083 8.083 0 0 0-8.131-8.077 7.768 7.768 0 0 0-5.686 2.346 7.648 7.648 0 0 0-2.388 5.603v-.013Z" fill="#fff"/></g></g><defs><linearGradient id="c" x1="0" y1="32" x2="64" y2="32" gradientUnits="userSpaceOnUse"><stop stop-color="#FF8A11"/><stop offset="1" stop-color="#E81894"/></linearGradient><clipPath id="a"><path fill="#fff" d="M0 0h64v64H0z"/></clipPath></defs></svg>