<svg width="32" height="11" viewBox="0 0 32 11" fill="none" xmlns="http://www.w3.org/2000/svg">
<path d="M16.5496 3.3035C16.5314 4.743 17.8325 5.54625 18.8126 6.02387C19.8196 6.51387 20.1579 6.82812 20.1539 7.26637C20.1464 7.937 19.3506 8.233 18.606 8.2445C17.3069 8.26462 16.5515 7.89375 15.951 7.61325L15.483 9.80312C16.0855 10.0807 17.2011 10.3229 18.358 10.3335C21.0736 10.3335 22.8502 8.993 22.8599 6.91462C22.8705 4.27687 19.2114 4.13087 19.2364 2.95187C19.245 2.59437 19.5861 2.21287 20.3336 2.11587C20.7036 2.06687 21.725 2.02937 22.883 2.56262L23.3375 0.443871C22.7147 0.217121 21.9144 -3.8147e-06 20.9179 -3.8147e-06C18.3619 -3.8147e-06 16.5641 1.35875 16.5496 3.3035ZM27.7048 0.182496C27.2089 0.182496 26.791 0.471746 26.6045 0.915621L22.7254 10.1779H25.439L25.979 8.6855H29.295L29.6082 10.1779H32L29.9129 0.182496H27.7048ZM28.0844 2.88262L28.8675 6.636H26.7227L28.0844 2.88262ZM13.2595 0.182621L11.1205 10.1777H13.7064L15.8444 0.182371L13.2595 0.182621ZM9.43412 0.182371L6.74263 6.98575L5.65387 1.20112C5.52612 0.555371 5.02163 0.182496 4.46138 0.182496H0.061625L0 0.472746C0.90325 0.668746 1.9295 0.984871 2.55125 1.32312C2.93175 1.52975 3.04025 1.71037 3.16525 2.20137L5.22738 10.1779H7.96L12.1495 0.182496L9.43412 0.182371Z" fill="white"/>
</svg>
