<svg width="64" height="64" fill="none" xmlns="http://www.w3.org/2000/svg"><g clip-path="url(#a)"><mask id="b" style="mask-type:luminance" maskUnits="userSpaceOnUse" x="0" y="0" width="64" height="64"><path d="M64 0H0v64h64V0Z" fill="#fff"/></mask><g mask="url(#b)" fill="#742BFF"><path d="M61.21 35.66c-.506-8.357-3.61-14.751-8.707-18l-.224-.137c-3.2-1.878-8.07-3.36-13.367-4.192l4.98-3.2A4.001 4.001 0 1 0 39.156 3.7l-9.78 8.221L16.874.906a3.63 3.63 0 1 0-4.62 5.597l8.831 6.844c-5.389 1.018-10.74 3.274-14.08 7.885l-.077.109c-4.64 6.685-4.48 16.067-3.974 21.062 0 .045 0 .09.016.135 1.216 9.942 5.27 16.342 12.07 19.04l.048.019C19.095 63.146 24.595 64 30.573 64c3.667 0 9.171-.32 14.566-1.882 5.818-1.68 9.959-4.37 12.31-8 .065-.102.129-.204.19-.32 2.604-4.518 3.974-11.471 3.57-18.137Zm-9.69 14.615c-2.973 4.596-12.272 6.66-20.947 6.66-4.947 0-9.69-.67-12.938-1.92-4.995-1.975-6.924-7.39-7.641-13.319-.605-5.93.387-12.374 3.126-16.32 2.999-4.16 9.453-5.706 16.531-5.706 7.488 0 15.255 1.735 19.066 3.962 6.922 4.394 6.666 19.94 2.803 26.643Z"/><path d="M24.269 29.485c-2.756 1.974 2.096 17.744 5.44 19.06 3.344 1.314 15.779-10.04 14.518-13.614-1.027-2.93-17.206-7.41-19.958-5.446Z"/></g></g><defs><clipPath id="a"><path fill="#fff" d="M0 0h64v64H0z"/></clipPath></defs></svg>