<svg xmlns="http://www.w3.org/2000/svg" width="28" height="28" fill="none"><rect width="26.88" height="26.88" x=".56" y=".56" fill="url(#a)" stroke="url(#b)" stroke-width="1.12" rx="3.92"/><path fill="url(#c)" fill-rule="evenodd" d="M18.63 14.916a.56.56 0 0 1 .774.24l3.496 6.992a.56.56 0 0 1-.5.81h-9.534a.56.56 0 0 1-.48-.271l-1.638-2.73a.56.56 0 0 1 .209-.777l7.674-4.264Zm-1.124-2.36a.56.56 0 0 0 .228-.739L14.501 5.35a.56.56 0 0 0-1.002 0L8.402 15.544a.56.56 0 0 0 .021.538l.406.676a.56.56 0 0 0 .752.201l7.925-4.402ZM6.399 19.552a.56.56 0 0 1 .98-.038l1.56 2.598a.56.56 0 0 1-.48.848H5.6a.56.56 0 0 1-.501-.81l1.299-2.598Z" clip-rule="evenodd"/><defs><linearGradient id="b" x1="26.6" x2="-1.4" y1="-6.44" y2="33.6" gradientUnits="userSpaceOnUse"><stop stop-color="#FDF5F5"/><stop offset="1" stop-color="#F8F8F8"/></linearGradient><linearGradient id="c" x1="25.306" x2="3.974" y1="6.097" y2="24.231" gradientUnits="userSpaceOnUse"><stop stop-color="#F9F9F9"/><stop offset="1" stop-color="#EBEBEB"/></linearGradient><radialGradient id="a" cx="0" cy="0" r="1" gradientTransform="rotate(45.1) scale(23.1807 34.471)" gradientUnits="userSpaceOnUse"><stop stop-color="#0E1724"/><stop offset="1" stop-color="#0B121C"/></radialGradient></defs></svg>